<svg width="217" height="169" viewBox="0 0 217 169" fill="none" xmlns="http://www.w3.org/2000/svg">
<path d="M217 148.722H0V100.056L60.2778 39.2222L144.667 67.6111L217 23V148.722Z" fill="#3F51B5"/>
<path d="M217 169H0V128.444L60.2778 96L144.667 104.111L217 67.6111V169Z" fill="#00BCD4"/>
<path d="M136 6C126.1 6 118 14.1 118 24C118 33.9 126.1 42 136 42C141.2 42 145.9 39.8 149.1 36.3L136 24V6Z" fill="#00BCD4"/>
<path d="M154 24C154 14.1 145.9 6 136 6V24H154Z" fill="#448AFF"/>
<path d="M136 24L149.1 36.3C152.1 33.1 154 28.8 154 24H136V24Z" fill="#3F51B5"/>
</svg>
