<svg width="28" height="28" viewBox="0 0 28 28" fill="none" xmlns="http://www.w3.org/2000/svg">
<rect x="1" y="1" width="26" height="26" rx="3" stroke="#3E3E3E" stroke-width="2" stroke-linecap="round" stroke-linejoin="round"/>
<path d="M17 11.0451C17 11.0451 15.6529 6.28709 10.7137 8.66614C5.77449 11.0452 3.82267 21.5864 9.29515 21.9729C14.7676 22.3595 16.7576 18.4797 16.7576 18.4797" stroke="#8600B5" stroke-width="2.5" stroke-linecap="round" stroke-linejoin="round"/>
<path d="M19 10.0451C19 10.0451 17.6529 5.28709 12.7137 7.66614C7.77449 10.0452 5.82267 20.5864 11.2952 20.9729C16.7676 21.3595 18.7576 17.4797 18.7576 17.4797" stroke="#0400B5" stroke-width="2.5" stroke-linecap="round"/>
<path d="M21 9.04512C21 9.04512 19.6529 4.28709 14.7137 6.66614C9.77449 9.0452 7.82267 19.5864 13.2952 19.9729C18.7676 20.3595 20.7576 16.4797 20.7576 16.4797" stroke="#B50057" stroke-width="2.5" stroke-linecap="round"/>
</svg>
