<svg width="76" height="76" viewBox="0 0 76 76" fill="none" xmlns="http://www.w3.org/2000/svg">
<path d="M0 0H76V76H0V0ZM69.7743 57.874C69.2202 54.4065 66.9623 51.4932 60.2648 48.7762C57.9342 47.6837 55.3438 46.9237 54.5743 45.1662C54.2862 44.1212 54.2418 43.5512 54.4287 42.9337C54.9037 40.888 57.3262 40.2737 59.2262 40.8437C60.4612 41.2237 61.6012 42.1737 62.3168 43.6937C65.5912 41.553 65.5912 41.553 67.8743 40.1312C67.0193 38.8012 66.595 38.228 66.0187 37.6612C64.0237 35.4287 61.3668 34.2887 57.0443 34.3868L54.8118 34.6687C52.6712 35.1912 50.6318 36.3312 49.3968 37.8512C45.7868 41.9393 46.8287 49.0643 51.1987 52.0093C55.5212 55.2393 61.8418 55.9487 62.6493 58.9918C63.4093 62.6968 59.8943 63.8843 56.4237 63.4568C53.8555 62.8868 52.4337 61.6012 50.8662 59.2262L45.0712 62.5543C45.7362 64.0743 46.4962 64.7362 47.6362 66.0662C53.1462 71.6268 66.9212 71.3418 69.3943 62.8868C69.4862 62.6018 70.1543 60.6543 69.6287 57.6618L69.7743 57.874V57.874ZM41.3282 34.9315H34.2095C34.2095 41.0685 34.181 47.1675 34.181 53.314C34.181 57.2153 34.3805 60.7968 33.744 61.8988C32.699 64.0807 30.0073 63.802 28.785 63.4188C27.531 62.7982 26.8945 61.9432 26.1567 60.7113C25.9572 60.3788 25.8083 60.0907 25.7545 60.0907L19.9753 63.6532C20.9412 65.6482 22.3503 67.3645 24.168 68.457C26.8755 70.072 30.514 70.5945 34.3235 69.7395C36.803 69.0238 38.9405 67.5513 40.0583 65.2713C41.6733 62.3263 41.3313 58.7163 41.3155 54.6757C41.3535 48.1713 41.3155 41.6638 41.3155 35.1088L41.3282 34.9315V34.9315Z" fill="#2C2C2C"/>
</svg>
