<svg width="24" height="24" viewBox="0 0 24 24" fill="none" xmlns="http://www.w3.org/2000/svg">
<path d="M15 9V1.125H0.75V15.375H9V23.25H23.25V9H15ZM2.25 13.875V2.625H13.5V9H10.375L8.798 4.5H6.952L4.598 11.217H6.187L6.57 10.125H9V13.875H2.25ZM8.654 8.625H7.096L7.875 6.401L8.654 8.625ZM21.75 21.75H10.5V10.5H21.75V21.75Z" fill="black"/>
<path d="M14.88 17.273C15.038 17.525 15.194 17.741 15.362 17.946L15.353 17.935C14.809 18.2283 14.1913 18.3753 13.5 18.376V19.876C14.632 19.876 15.643 19.576 16.5 18.994C17.357 19.576 18.368 19.876 19.5 19.876V18.376C18.81 18.376 18.1927 18.229 17.648 17.935C17.8131 17.7328 17.9658 17.5208 18.105 17.3L18.121 17.274C18.5464 16.5881 18.8607 15.8391 19.052 15.055L19.063 15.002H19.876V13.502H17.251V12.377H15.751V13.502H13.126V15.002H13.939C14.1328 15.8172 14.4573 16.5956 14.9 17.307L14.881 17.274L14.88 17.273ZM17.509 15C17.3514 15.5291 17.1241 16.0349 16.833 16.504L16.848 16.478C16.74 16.6515 16.6215 16.8181 16.493 16.977L16.5 16.968C16.3875 16.8298 16.283 16.6852 16.187 16.535L16.175 16.516C15.8862 16.0578 15.6598 15.5631 15.502 15.045L15.49 15.001L17.509 15Z" fill="black"/>
</svg>
