<svg width="87" height="76" viewBox="0 0 87 76" fill="none" xmlns="http://www.w3.org/2000/svg">
<path d="M43.3932 30.3853C42.3896 30.3853 41.3959 30.5822 40.4687 30.9648C39.5416 31.3474 38.6991 31.9082 37.9895 32.6151C37.2799 33.322 36.717 34.1613 36.333 35.0849C35.9489 36.0086 35.7513 36.9985 35.7513 37.9983C35.7513 38.998 35.9489 39.988 36.333 40.9116C36.717 41.8353 37.2799 42.6745 37.9895 43.3815C38.6991 44.0884 39.5416 44.6492 40.4687 45.0318C41.3959 45.4143 42.3896 45.6113 43.3932 45.6113C44.3967 45.6113 45.3904 45.4143 46.3176 45.0318C47.2447 44.6492 48.0872 44.0884 48.7968 43.3815C49.5064 42.6745 50.0693 41.8353 50.4534 40.9116C50.8374 39.988 51.0351 38.998 51.0351 37.9983C51.0351 36.9985 50.8374 36.0086 50.4534 35.0849C50.0693 34.1613 49.5064 33.322 48.7968 32.6151C48.0872 31.9082 47.2447 31.3474 46.3176 30.9648C45.3904 30.5822 44.3967 30.3853 43.3932 30.3853ZM21.9858 53.1424L20.2996 52.7153C7.73097 49.5512 0.521362 44.1805 0.521362 37.984C0.521362 31.7876 7.73097 26.4169 20.2996 23.2528L21.9858 22.8293L22.461 24.4949C23.7342 28.8645 25.3628 33.1235 27.3305 37.2295L27.6914 37.9876L27.3305 38.7457C25.3595 42.8503 23.7308 47.1095 22.461 51.4803L21.9858 53.1424V53.1424ZM19.5171 27.1429C9.96388 29.8158 4.10116 33.9053 4.10116 37.984C4.10116 42.0593 9.96388 46.1487 19.5171 48.8252C20.6855 45.1234 22.0961 41.502 23.74 37.984C22.0943 34.4669 20.6836 30.8453 19.5171 27.1429V27.1429ZM64.8005 53.1424L64.3253 51.4731C63.0534 47.1038 61.4235 42.8458 59.4522 38.7421L59.0914 37.984L59.4522 37.226C61.4228 33.1207 63.0526 28.8616 64.3253 24.4914L64.8005 22.8257L66.4903 23.2492C79.0553 26.4133 86.265 31.784 86.265 37.984C86.265 44.1841 79.0553 49.5512 66.4903 52.7153L64.8005 53.1424V53.1424ZM63.0463 37.984C64.7612 41.682 66.1795 45.3159 67.2692 48.8252C76.826 46.1487 82.6852 42.0593 82.6852 37.984C82.6852 33.9053 76.8224 29.8194 67.2692 27.1429C66.1024 30.8452 64.6917 34.4668 63.0463 37.984V37.984ZM19.4921 27.1251L19.017 25.463C15.4836 13.0559 16.5554 4.1652 21.9573 1.06164C27.2555 -1.98498 35.762 1.6133 44.6757 10.7282L45.8904 11.9704L44.6757 13.2125C41.5084 16.4926 38.6145 20.0243 36.0228 23.7724L35.5405 24.4594L34.7009 24.5305C30.1419 24.8886 25.6195 25.6146 21.1784 26.7016L19.4921 27.1251V27.1251ZM26.2659 3.52811C25.3084 3.52811 24.4617 3.73454 23.7472 4.14384C20.1959 6.18322 19.5672 13.273 22.0144 22.8399C25.8216 21.9962 29.6799 21.4006 33.5648 21.0568C35.8064 17.8817 38.2554 14.857 40.8959 12.0024C35.3225 6.59608 30.0457 3.52811 26.2659 3.52811V3.52811ZM60.524 75.9991C60.5204 75.9991 60.5204 75.9991 60.524 75.9991C55.433 75.9991 48.895 72.1802 42.1106 65.2399L40.8959 63.9977L42.1106 62.7556C45.2771 59.4744 48.1698 55.9416 50.76 52.1921L51.2423 51.5052L52.0783 51.434C56.6397 51.0779 61.1644 50.353 65.6079 49.2665L67.2942 48.843L67.7729 50.5086C71.2991 62.9086 70.2309 71.8029 64.8291 74.9029C63.5169 75.642 62.0312 76.0203 60.524 75.9991V75.9991ZM45.8904 63.9657C51.4638 69.372 56.7406 72.44 60.5204 72.44H60.524C61.4779 72.44 62.3282 72.2335 63.0392 71.8242C66.5904 69.7849 67.2227 62.6915 64.7719 53.1246C60.9638 53.9695 57.1042 54.5652 53.2179 54.9077C50.9791 58.0851 48.5312 61.111 45.8904 63.9657V63.9657ZM67.2942 27.1251L65.6079 26.7016C61.165 25.6115 56.64 24.8854 52.0783 24.5305L51.2423 24.4594L50.76 23.7724C48.1711 20.0231 45.2783 16.4913 42.1106 13.2125L40.8959 11.9704L42.1106 10.7282C51.0208 1.61686 59.5237 -1.98142 64.8291 1.06164C70.2309 4.1652 71.3027 13.0559 67.7729 25.4595L67.2942 27.1251ZM53.2179 21.0568C57.2979 21.427 61.1742 22.0285 64.7719 22.8399C67.2227 13.273 66.5904 6.18322 63.0392 4.14384C59.5094 2.11158 52.875 5.22582 45.8904 12.0024C48.5297 14.8571 50.9775 17.8818 53.2179 21.0568V21.0568ZM26.2659 75.9991C24.7575 76.0209 23.2704 75.6426 21.9573 74.9029C16.5554 71.8029 15.4836 62.9122 19.017 50.5086L19.4886 48.843L21.1749 49.2665C25.3013 50.3022 29.8528 51.0318 34.6973 51.434L35.5369 51.5052L36.0156 52.1921C38.6078 55.9411 41.5017 59.4739 44.6686 62.7556L45.8833 63.9977L44.6686 65.2399C37.8877 72.1802 31.3498 75.9991 26.2659 75.9991V75.9991ZM22.0144 53.1246C19.5636 62.6915 20.1959 69.7849 23.7472 71.8242C27.2734 73.828 33.9042 70.7387 40.8959 63.9657C38.2564 61.109 35.8075 58.0832 33.5648 54.9077C29.6797 54.5654 25.8213 53.9698 22.0144 53.1246V53.1246ZM43.3932 55.3597C40.4529 55.3597 37.4304 55.2316 34.4044 54.9824L33.5648 54.9113L33.0825 54.2244C31.3709 51.7742 29.7618 49.2546 28.2594 46.6719C26.7615 44.0871 25.3717 41.4416 24.0937 38.7421L23.7364 37.984L24.0937 37.226C25.3715 34.5264 26.7613 31.8809 28.2594 29.2962C29.7385 26.7479 31.364 24.2067 33.0825 21.7437L33.5648 21.0568L34.4044 20.9856C40.3874 20.4803 46.4025 20.4803 52.3855 20.9856L53.2215 21.0568L53.7003 21.7437C57.127 26.6449 60.135 31.8238 62.6926 37.226L63.0535 37.984L62.6926 38.7421C60.1412 44.1475 57.1329 49.3269 53.7003 54.2244L53.2215 54.9113L52.3855 54.9824C49.3595 55.2316 46.3334 55.3597 43.3932 55.3597V55.3597ZM35.544 51.5016C40.8316 51.8967 45.9547 51.8967 51.2458 51.5016C54.1998 47.1995 56.8225 42.6808 59.0914 37.984C56.8265 33.2845 54.2024 28.7653 51.2423 24.4665C46.017 24.0714 40.7693 24.0714 35.544 24.4665C32.5826 28.7645 29.9584 33.2838 27.6949 37.984C29.9663 42.6802 32.5901 47.1989 35.544 51.5016V51.5016Z" fill="#424242"/>
</svg>
