<svg width="81" height="76" viewBox="0 0 81 76" fill="none" xmlns="http://www.w3.org/2000/svg">
<path d="M56.1587 53.0402C59.0578 52.7922 61.2952 50.235 61.1528 47.1819C60.9955 44.1288 58.4984 41.6793 55.4695 41.6793H55.2597C53.7512 41.7335 52.3259 42.3863 51.2971 43.4942C50.2684 44.6022 49.7204 46.0746 49.7736 47.5877C49.876 49.1931 50.5253 50.483 51.4242 51.4347C47.9258 58.2448 42.6969 63.244 34.7512 67.4543C29.42 70.2469 23.7865 71.3038 18.3005 70.5475C13.7083 69.9088 10.12 67.85 7.9226 64.5464C4.62895 59.5372 4.3293 54.1498 7.07609 48.7373C9.07625 44.8376 12.0702 41.9773 14.0579 40.5823C13.4605 38.9041 12.9954 37.1815 12.6671 35.4303C-2.10567 46.0373 -0.597432 60.5565 3.88982 67.4067C7.23341 72.4159 14.0579 75.6118 21.5367 75.6118C23.5418 75.6118 25.6344 75.469 27.677 74.9581C40.6593 72.4535 50.4778 64.6516 56.1062 53.1479L56.1587 53.0402ZM73.9628 40.5322C66.2394 31.4254 54.8577 26.4162 41.8929 26.4162H40.1874C39.3558 24.5753 37.4031 23.4181 35.2057 23.4181H35.0633C31.917 23.4181 29.4699 26.1306 29.5723 29.2764C29.6796 32.2745 32.2117 34.7791 35.2556 34.7791H35.5053C36.5853 34.735 37.63 34.381 38.5153 33.759C39.4006 33.137 40.0893 32.2731 40.4995 31.2701H42.3448C50.0333 31.2701 57.3048 33.5268 63.9496 37.9249C69.0211 41.2735 72.6768 45.6867 74.717 50.9413C76.5124 55.2317 76.4075 59.447 74.5596 62.956C71.7255 68.4461 66.9261 71.3539 60.606 71.3539C56.6131 71.3539 52.7252 70.1016 50.72 69.2025C49.5239 70.1943 47.5213 71.8499 46.0755 72.8567C50.4728 74.8504 54.9076 76 59.2001 76C68.9287 76 76.1603 70.5074 78.9046 65.2001C81.8936 59.1991 81.6488 49.0879 74.0128 40.427L73.9628 40.5322ZM22.3832 54.841C22.4514 56.3147 23.0798 57.7061 24.1391 58.7295C25.1984 59.7529 26.6083 60.3305 28.079 60.3437H28.2763C29.0261 60.3258 29.7647 60.1578 30.4488 59.8494C31.1329 59.5411 31.7486 59.0987 32.2597 58.5482C32.7709 57.9977 33.1671 57.3503 33.4252 56.6439C33.6832 55.9376 33.7979 55.1867 33.7624 54.4353C33.7624 51.4322 31.1754 48.9276 28.1315 48.9276H27.9217C27.7294 48.9276 27.4298 48.9276 27.1701 49.0353C23.0349 42.0299 21.2895 34.5161 21.9387 26.4137C22.3307 20.3099 24.3334 15.0127 27.9217 10.6045C30.9157 6.86014 36.5441 4.9942 40.3946 4.90403C51.1645 4.69365 55.6642 18.1685 56.0038 23.5183L60.998 25.0186C59.8394 8.60836 49.6713 0 39.9426 0C30.8133 0 22.3832 6.65225 18.9897 16.4102C14.3576 29.4317 17.4015 41.9272 23.0849 51.9457C22.5929 52.5844 22.2933 53.7465 22.3832 54.841Z" fill="#424242"/>
</svg>
