<svg width="102" height="76" viewBox="0 0 102 76" fill="none" xmlns="http://www.w3.org/2000/svg">
<path d="M48.1057 57.457C48.0579 57.552 48.0101 57.628 48.1057 57.457V57.457ZM87.8113 43.6831C84.6058 43.6821 81.443 44.4134 78.5674 45.8204C77.6271 43.9364 76.6549 42.2899 76.4955 41.055C76.3043 39.6143 76.0971 38.7593 76.3202 37.0495C76.5434 35.3396 77.5474 32.9173 77.5315 32.7432C77.5156 32.569 77.3084 31.6982 75.2524 31.6824C73.1964 31.6666 71.4274 32.0782 71.2218 32.6165C70.8586 33.6002 70.5762 34.6115 70.3771 35.6404C70.0105 37.4928 66.2667 44.1106 64.147 47.562C63.4458 46.2162 62.8561 45.0288 62.7286 44.0789C62.5373 42.6382 62.3301 41.7833 62.5533 40.0734C62.7764 38.3635 63.7805 35.9412 63.7645 35.7671C63.7486 35.5929 63.5414 34.7222 61.487 34.7063C59.4327 34.6905 57.662 35.1021 57.4548 35.6404C57.2476 36.1787 57.0245 37.4453 56.6101 38.6643C56.1957 39.8834 51.2088 50.9025 49.9035 53.7681C49.2341 55.2247 48.6604 56.3962 48.246 57.1878C48.1822 57.3145 48.1344 57.3937 48.1026 57.457C48.1504 57.3778 48.1822 57.2987 48.1822 57.3303C47.8316 58.0111 47.6244 58.3911 47.6244 58.3911V58.4069C47.3535 58.9135 47.0507 59.3727 46.9072 59.3727C46.8116 59.3727 46.6044 58.0428 46.955 56.2221C47.7041 52.3907 49.4732 46.4379 49.4573 46.2321C49.4413 46.1212 49.7919 45.0922 48.2938 44.538C46.8435 44.0156 46.3175 44.8863 46.19 44.8863C46.0625 44.8863 45.9669 45.203 45.9669 45.203C45.9669 45.203 47.5766 38.4902 42.8766 38.4902C39.9441 38.4902 35.864 41.6883 33.859 44.5855C32.6 45.2663 29.8746 46.7387 27.0058 48.3061C25.9061 48.9077 24.7746 49.5251 23.7067 50.1109C23.6271 50.0317 23.5633 49.9526 23.4836 49.8734C17.7795 43.8256 7.24789 39.5509 7.69415 31.4291C7.85352 28.4685 8.88947 20.695 27.9462 11.2591C43.5651 3.53304 56.0523 5.65453 58.2023 10.3725C61.2942 17.1011 51.526 29.6242 35.3062 31.4291C29.124 32.1099 25.8743 29.7351 25.0614 28.8485C24.2167 27.9144 24.0892 27.8669 23.7705 28.041C23.2445 28.326 23.5792 29.1493 23.7705 29.6401C24.2486 30.8908 26.2408 33.1073 29.634 34.2155C32.6143 35.1813 39.8628 35.7196 48.6269 32.3474C58.4732 28.5793 66.1376 18.0827 63.8904 9.2959C61.6018 0.366632 46.6969 -2.5623 32.6032 2.40897C24.2056 5.36956 15.1243 10.0242 8.59144 16.0879C0.83138 23.3073 -0.410166 29.5926 0.0998396 32.2207C1.91514 41.5458 14.8534 47.6253 20.0315 52.1216C19.7765 52.2641 19.5374 52.3907 19.3143 52.5174C16.7181 53.7998 6.85423 58.9294 4.38548 64.3439C1.59639 70.4868 4.84768 74.8881 6.98173 75.4897C13.6421 77.3262 20.4618 74.0173 24.1259 68.5869C27.79 63.1565 27.3453 56.0638 25.6559 52.834C25.64 52.7865 25.6081 52.7549 25.5922 52.7074C26.2616 52.3116 26.9469 51.9158 27.6322 51.52C28.9534 50.7442 30.2444 50.0317 31.376 49.4143C30.7384 51.1242 30.2763 53.1823 30.0372 56.1588C29.7503 59.6418 31.2006 64.1539 33.0813 65.9271C33.91 66.7029 34.9125 66.7187 35.5341 66.7187C37.7335 66.7187 38.7216 64.9139 39.8197 62.7607C41.1744 60.1326 42.3698 57.077 42.3698 57.077C42.3698 57.077 40.8716 65.3413 44.9676 65.3413C46.4642 65.3413 47.9623 63.4257 48.6333 62.4441V62.4599C48.6333 62.4599 48.6652 62.3966 48.7448 62.2699C48.9042 62.0324 48.9839 61.89 48.9839 61.89V61.8425C49.5895 60.8134 50.9124 58.4544 52.903 54.5597C55.4849 49.5251 57.9536 43.2398 57.9536 43.2398C58.1922 44.6215 58.5223 45.986 58.9418 47.3245C59.388 48.8285 60.3284 50.475 61.0774 52.0741C60.4718 52.8974 60.1052 53.3723 60.1052 53.3723C60.1064 53.3845 60.1121 53.3958 60.1212 53.404C59.643 54.0373 59.1011 54.718 58.5433 55.383C56.5049 57.7895 54.0808 60.5442 53.762 61.3358C53.3795 62.2699 53.4751 62.9665 54.2083 63.5048C54.7502 63.9165 55.7064 63.9798 56.7089 63.9006C58.5417 63.774 59.8327 63.3307 60.4543 63.0457C61.6001 62.6375 62.6832 62.0727 63.6721 61.3675C65.6643 59.9109 66.8756 57.8211 66.764 55.0663C66.7002 53.5465 66.2062 52.0266 65.6005 50.6017C65.7759 50.3484 65.9671 50.0792 66.1424 49.8101C69.2965 45.2346 71.735 40.2127 71.735 40.2127C71.9735 41.5944 72.3036 42.9589 72.7231 44.2974C73.1056 45.5798 73.8531 46.9888 74.5384 48.3662C71.5756 50.7569 69.7427 53.5275 69.1052 55.3482C67.9258 58.7204 68.8502 60.2403 70.5874 60.5886C71.3684 60.7469 72.484 60.3827 73.3128 60.0344C74.5436 59.6272 75.7041 59.0345 76.7537 58.2771C78.7459 56.8205 80.6728 54.7782 80.5453 52.0076C80.4975 50.7569 80.1469 49.5061 79.6847 48.3029C82.1869 47.258 85.4366 46.688 89.5804 47.163C98.4545 48.1921 100.192 53.7016 99.857 55.9973C99.5223 58.2929 97.6576 59.5753 97.036 59.9553C96.4145 60.3352 96.2232 60.4777 96.271 60.7627C96.3507 61.1743 96.6376 61.1585 97.1635 61.0635C97.8967 60.9369 101.816 59.1953 101.991 54.9365C102.246 49.5536 97.036 43.6324 87.8065 43.6799L87.8113 43.6831ZM19.4099 66.5921C16.479 69.7743 12.3671 70.9775 10.5996 69.9643C8.703 68.8687 9.45207 64.1856 13.0683 60.7944C15.2677 58.7362 18.103 56.8364 19.9837 55.6648C20.414 55.4115 21.0356 55.0315 21.8006 54.5724C21.9281 54.4932 21.9918 54.4616 21.9918 54.4616C22.1353 54.3666 22.2947 54.2874 22.454 54.1924C23.7753 59.0053 22.5019 63.2483 19.4099 66.5889V66.5921ZM40.8238 52.1216C39.8038 54.6072 37.6538 60.94 36.3469 60.6076C35.2313 60.3226 34.546 55.4938 36.1238 50.7442C36.9207 48.3536 38.6101 45.5038 39.6141 44.3955C41.2223 42.6065 42.9913 42.0366 43.4057 42.749C43.9635 43.6831 41.4613 50.57 40.8238 52.1216ZM58.5146 60.5126C58.0843 60.7342 57.6859 60.8767 57.4946 60.7659C57.3512 60.6867 57.6699 60.3859 57.6699 60.3859C57.6699 60.3859 59.8853 58.0269 60.7619 56.9504C61.2719 56.3171 61.8616 55.573 62.4975 54.7497C62.4975 54.8289 62.5134 54.908 62.5134 55.003C62.4927 57.8369 59.753 59.7526 58.5099 60.5126H58.5146ZM72.1541 57.4253C71.8354 57.2037 71.8832 56.4596 72.951 54.1481C73.3654 53.2457 74.32 51.7258 75.9792 50.2692C76.167 50.8206 76.2691 51.3972 76.282 51.9791C76.266 55.5413 73.7001 56.8712 72.1557 57.4253H72.1541Z" fill="#404040"/>
</svg>
