<svg width="36" height="36" viewBox="0 0 36 36" fill="none" xmlns="http://www.w3.org/2000/svg">
<path d="M28.2644 8.47356C27.9797 8.23671 27.6361 8.0815 27.2702 8.02445C26.9043 7.9674 26.5297 8.01063 26.1864 8.14956L8.26542 15.3846C7.88227 15.5423 7.55613 15.8127 7.33026 16.1601C7.10439 16.5074 6.98948 16.9152 7.00076 17.3294C7.01204 17.7436 7.14899 18.1446 7.39343 18.4791C7.63787 18.8136 7.97825 19.066 8.36942 19.2026L11.9944 20.4636L14.0144 27.1456C14.0421 27.2347 14.0822 27.3195 14.1334 27.3976C14.1414 27.4096 14.1524 27.4176 14.1604 27.4306C14.2193 27.5126 14.2905 27.5851 14.3714 27.6456C14.394 27.6632 14.4174 27.6799 14.4414 27.6956C14.5361 27.7584 14.641 27.8044 14.7514 27.8316L14.7644 27.8326L14.7704 27.8356C14.8372 27.849 14.9053 27.8557 14.9734 27.8556L14.9914 27.8526C15.0938 27.8509 15.1954 27.8333 15.2924 27.8006C15.3154 27.7926 15.3344 27.7806 15.3564 27.7706C15.429 27.7408 15.4978 27.7025 15.5614 27.6566C15.6121 27.6135 15.6627 27.5705 15.7134 27.5276L18.4154 24.5446L22.4454 27.6666C22.8001 27.9428 23.2368 28.0931 23.6864 28.0936C24.1577 28.093 24.6144 27.9304 24.98 27.6331C25.3456 27.3358 25.5978 26.9218 25.6944 26.4606L28.9574 10.4436C29.0312 10.0832 29.0057 9.70959 28.8837 9.36261C28.7616 9.01563 28.5476 8.70833 28.2644 8.47356V8.47356ZM15.3694 20.7816C15.2309 20.9198 15.1363 21.0958 15.0974 21.2876L14.7874 22.7916L14.0034 20.1986L18.0684 18.0816L15.3694 20.7816ZM23.6714 26.0856L18.9084 22.3956C18.7091 22.2418 18.4592 22.1687 18.2084 22.191C17.9577 22.2132 17.7245 22.3291 17.5554 22.5156L16.6894 23.4706L16.9954 21.9836L24.0784 14.9006C24.2465 14.7315 24.3486 14.5079 24.3664 14.2702C24.3841 14.0324 24.3164 13.7962 24.1754 13.604C24.0343 13.4118 23.8293 13.2763 23.5971 13.2219C23.365 13.1676 23.1211 13.198 22.9094 13.3076L12.7444 18.5996L9.01942 17.2366L26.9984 10.0456L23.6714 26.0856Z" fill="black"/>
<path d="M34.7558 17.88C34.7558 27.2027 27.1992 34.76 17.8779 34.76C8.55661 34.76 1 27.2027 1 17.88C1 8.55732 8.55661 1 17.8779 1C27.1992 1 34.7558 8.55732 34.7558 17.88Z" stroke="black" stroke-width="2"/>
</svg>
