<svg width="36" height="36" viewBox="0 0 36 36" fill="none" xmlns="http://www.w3.org/2000/svg">
<path fill-rule="evenodd" clip-rule="evenodd" d="M17.9335 23.9433H19.0459C19.0459 23.9433 19.3796 23.8877 19.5464 23.7208C19.7133 23.5539 19.7133 23.2202 19.7133 23.2202C19.7133 23.2202 19.7133 21.7739 20.3807 21.5514C21.0482 21.3289 21.9381 22.9977 22.828 23.6096C23.4955 24.1102 23.996 23.999 23.996 23.999L26.4433 23.9433C26.4433 23.9433 27.7226 23.8877 27.1108 22.8308C27.0552 22.7752 26.7771 22.1077 25.2753 20.717C23.7179 19.2707 23.9404 19.5488 25.7759 17.0456C26.8883 15.5437 27.3333 14.6537 27.222 14.2087C27.1108 13.8193 26.2765 13.9305 26.2765 13.9305H23.4955C23.4955 13.9305 23.273 13.8749 23.1617 13.9862C22.9949 14.0974 22.9393 14.2643 22.9393 14.2643C22.9393 14.2643 22.4943 15.4325 21.9381 16.4337C20.7145 18.4919 20.2139 18.6032 20.047 18.4919C19.6021 18.2138 19.7133 17.2681 19.7133 16.6562C19.7133 14.6537 20.047 13.8193 19.1015 13.5968C18.8234 13.5411 18.6009 13.4855 17.8222 13.4855C16.821 13.4855 15.9867 13.4855 15.5418 13.708C15.2081 13.8749 14.9856 14.2087 15.1524 14.2087C15.3193 14.2087 15.7643 14.3199 15.9867 14.5981C16.2092 15.0987 16.2092 15.9331 16.2092 15.9331C16.2092 15.9331 16.3761 18.325 15.8199 18.6032C15.4305 18.8257 14.93 18.3807 13.8176 16.4894C13.2614 15.5437 12.8164 14.4312 12.8164 14.4312C12.8164 14.4312 12.7608 14.2087 12.5939 14.0974C12.4271 13.9862 12.149 13.9305 12.149 13.9305H9.53481C9.53481 13.9305 9.14547 13.9305 8.97861 14.0974C8.86737 14.2643 8.97861 14.5424 8.97861 14.5424C8.97861 14.5424 11.0366 19.3263 13.3726 21.7739C15.5418 24.1102 17.9335 23.9433 17.9335 23.9433V23.9433Z" fill="black"/>
<path d="M34.7558 17.88C34.7558 27.2027 27.1992 34.76 17.8779 34.76C8.55661 34.76 1 27.2027 1 17.88C1 8.55732 8.55661 1 17.8779 1C27.1992 1 34.7558 8.55732 34.7558 17.88Z" stroke="black" stroke-width="2"/>
</svg>
