<svg width="192" height="71" viewBox="0 0 192 71" fill="none" xmlns="http://www.w3.org/2000/svg">
<g clip-path="url(#clip0)">
<path d="M19.5303 14.9799C18.8366 14.5255 17.7406 13.3436 16.8241 14.2411C16.0651 15.0637 16.9227 16.9515 17.904 17.6027C17.2457 17.534 16.4678 18.1284 16.38 18.8044C16.1449 20.3131 17.784 21.4176 19.171 21.5878C17.7274 22.0334 18.0081 23.7765 18.8411 24.5455C19.6741 25.3145 21.4921 25.1589 22.518 24.8864C22.518 24.8864 25.7693 23.992 24.3347 22.5039C21.8704 19.9479 23.2777 16.4078 22.9142 13.7343C22.7763 12.6785 21.5931 10.5674 19.9713 11.1605C18.5171 11.7602 19.2536 13.9809 19.5303 14.9799V14.9799Z" fill="#CFD8DC"/>
<path opacity="0.2" d="M20.9467 11.7636C21.6512 12.1266 22.1949 13.2112 22.279 13.8301C22.3839 14.6054 22.3279 15.4781 22.27 16.4053C22.1338 18.544 21.9799 20.9682 23.8483 22.9052C24.0169 23.0822 24.0863 23.2255 24.0478 23.3374C23.9238 23.7035 22.9899 24.1413 22.3682 24.3133C21.4687 24.5538 20.2092 24.6193 19.5433 24.2762C19.4524 24.2294 19.3738 24.175 19.3084 24.117C18.9172 23.756 18.7059 23.0958 18.8374 22.6434C18.9096 22.3928 19.074 22.2382 19.3535 22.1499C19.6401 22.0618 19.8336 21.8043 19.816 21.5282C19.8085 21.3944 19.7521 21.2689 19.6559 21.1721C19.5597 21.0753 19.4293 21.013 19.286 20.9951C18.9403 20.9522 18.5624 20.8338 18.224 20.6595C17.902 20.4936 16.8594 19.8697 17.018 18.8592C17.0185 18.8525 17.0202 18.8499 17.0208 18.8433C17.0441 18.675 17.1684 18.4859 17.3499 18.3505C17.502 18.2382 17.6771 18.1758 17.8039 18.1892C17.9454 18.2035 18.0902 18.1739 18.2157 18.1048C18.3411 18.0358 18.4401 17.9313 18.4971 17.8077C18.6129 17.5518 18.5314 17.2671 18.2948 17.1105C17.7646 16.7611 17.2552 15.8918 17.1836 15.2134C17.1576 14.9504 17.1966 14.7346 17.2958 14.6193C17.4043 14.5123 17.5305 14.4177 17.946 14.6318C18.1992 14.7623 18.4675 14.9664 18.7034 15.1469C18.8557 15.2635 19.0014 15.3732 19.1427 15.4668C19.1603 15.4794 19.1796 15.4893 19.1989 15.4992C19.4108 15.6084 19.6767 15.5928 19.8885 15.4558C20.1158 15.3059 20.2233 15.0457 20.1581 14.8041L20.1032 14.6093C19.8678 13.7807 19.3779 12.0615 20.2029 11.7029C20.4564 11.615 20.6935 11.6332 20.9467 11.7636V11.7636ZM21.2798 11.2417C20.8945 11.0432 20.454 10.9827 19.9729 11.1579C18.5171 11.7602 19.2526 13.9769 19.5319 14.9773C19.1892 14.7522 18.7497 14.3524 18.2791 14.1099C17.7975 13.8618 17.2882 13.7832 16.823 14.237C16.064 15.0596 16.9216 16.9474 17.9029 17.5986C17.2446 17.53 16.4667 18.1244 16.379 18.8004C16.2158 19.8468 16.958 20.7007 17.8909 21.1814C18.3009 21.3926 18.746 21.5318 19.1699 21.5837C17.7263 22.0294 18.0071 23.7725 18.84 24.5415C18.9477 24.6421 19.0715 24.7232 19.2091 24.7941C20.131 25.269 21.6236 25.1191 22.5186 24.8798C22.5186 24.8798 25.7698 23.9854 24.3353 22.4973C21.871 19.9412 23.2783 16.4012 22.9148 13.7277C22.8169 12.9872 22.2016 11.7167 21.2798 11.2417V11.2417Z" fill="#424242"/>
<path d="M34.6846 17.0071L34.6989 17.0249Z" fill="url(#paint0_linear)"/>
<path d="M28.1966 34.702C33.3723 32.7117 38.8872 31.2497 41.7222 26.1601L41.7069 26.1384L33.6588 15.6464C33.4251 15.3422 32.9137 15.37 32.6961 15.7052C30.5418 19.0407 26.9922 20.735 23.3086 22.1521C18.2401 24.1007 12.8354 25.5847 9.95181 30.4239C9.82256 30.6035 9.8133 30.8414 9.94989 31.0228L9.95264 31.0242C12.7403 34.6583 15.5285 38.292 18.3172 41.9254L18.3183 41.9295C20.476 38.0444 24.2468 36.2213 28.1966 34.702Z" fill="url(#paint1_linear)"/>
<path d="M34.8839 19.915L38.6951 24.8814C38.2292 25.3106 37.9178 25.86 37.8064 26.449C37.695 27.0381 37.7895 27.6359 38.076 28.1548C35.6237 30.3069 32.3668 31.514 29.2154 32.6817L29.1828 32.6927C28.5735 32.9197 27.9421 33.1527 27.3262 33.3902C24.7734 34.3705 22.1283 35.5356 19.9956 37.3877C19.8532 37.2727 19.6991 37.176 19.5313 37.0895C18.6617 36.6415 17.5916 36.645 16.6897 37.0784L12.8786 32.112C13.4693 31.5703 13.811 30.8344 13.813 30.0691C13.8115 30.0371 13.8117 30.0025 13.8101 29.9705L13.8097 29.9425L13.8019 29.8345C13.7982 29.7944 13.7917 29.753 13.788 29.7129C13.7827 29.6755 13.7762 29.634 13.7648 29.5831C13.7578 29.5483 13.7535 29.5148 13.7449 29.4826C13.7302 29.4196 13.7112 29.3578 13.6921 29.296C13.6818 29.2663 13.6714 29.2367 13.655 29.1936C13.6365 29.1425 13.6163 29.0939 13.5961 29.0454C13.583 29.0143 13.5682 28.9859 13.5523 28.9535C13.5305 28.9075 13.5058 28.8602 13.4719 28.8045C13.4582 28.7801 13.4445 28.7557 13.4291 28.734C13.4281 28.7299 13.4225 28.7271 13.4215 28.7231C15.8715 26.5802 19.1196 25.3755 22.2665 24.209L22.2991 24.198C22.9084 23.971 23.5398 23.738 24.1558 23.5005C26.6953 22.5238 29.3282 21.3663 31.4637 19.5156C31.6357 19.6701 31.8299 19.8014 32.0418 19.9106C32.918 20.3481 33.9881 20.3446 34.8839 19.915V19.915ZM35.0297 19.3313C34.6296 19.6018 34.1587 19.7636 33.6735 19.7972C33.1883 19.8308 32.7094 19.7347 32.2943 19.5205C32.0412 19.3901 31.8091 19.2151 31.617 18.9947L31.6153 18.9973C31.5813 18.959 31.5472 18.9207 31.5149 18.8797L31.5088 18.8835C29.4137 20.8313 26.7491 22.0383 23.9986 23.0936C23.3738 23.3335 22.7452 23.5679 22.1155 23.7982C18.7398 25.0481 15.3679 26.3034 12.8288 28.6605L12.8122 28.6692C12.815 28.6707 12.815 28.6707 12.8161 28.6747C12.8446 28.7102 12.8759 28.7471 12.9072 28.784C12.9138 28.7909 12.9159 28.799 12.9225 28.8058C12.9598 28.8563 12.9944 28.9053 13.0272 28.9569C13.0426 28.9787 13.0535 29.0016 13.0672 29.026C13.0897 29.0653 13.1094 29.1032 13.1291 29.1411C13.1428 29.1655 13.1548 29.1925 13.1641 29.2181C13.1821 29.2586 13.1985 29.3017 13.2148 29.3448C13.2252 29.3744 13.2372 29.4014 13.2476 29.431C13.2644 29.4848 13.2786 29.5371 13.2927 29.5895C13.3014 29.6217 13.3073 29.6525 13.3116 29.6859C13.3159 29.7193 13.3246 29.7516 13.3288 29.785C13.3331 29.8184 13.3357 29.8544 13.34 29.8878L13.3446 29.9838C13.3444 30.0184 13.3487 30.0518 13.3486 30.0864C13.3486 30.4644 13.2487 30.841 13.0574 31.1836C12.8662 31.5262 12.5894 31.8243 12.2511 32.0523L16.5555 37.6612C16.9563 37.3908 17.4277 37.2293 17.9134 37.196C18.399 37.1627 18.8782 37.259 19.2936 37.4733C19.5496 37.6052 19.7799 37.7828 19.9765 38.002L19.9914 37.9958L19.9931 37.9932C22.0876 36.0521 24.7488 34.8502 27.4966 33.7935C28.1214 33.5537 28.75 33.3193 29.3797 33.0889C32.7554 31.839 36.1273 30.5837 38.6664 28.2267C38.6725 28.2229 38.6758 28.2177 38.6819 28.2139C37.893 27.1867 38.1875 25.7226 39.3379 24.9456L35.0297 19.3313V19.3313Z" fill="#2E7D32"/>
<path d="M21.0377 31.7038C20.8737 31.491 20.6502 31.3655 20.3685 31.3313C20.0868 31.2971 19.7022 31.3556 19.2101 31.5077C18.538 31.7301 17.9806 31.8071 17.5396 31.7359C17.0987 31.6648 16.7328 31.4416 16.4465 31.0652C16.1535 30.682 16.0371 30.2856 16.0989 29.8737C16.1607 29.4617 16.3906 29.0842 16.7914 28.7428L16.3278 28.1399C16.2949 28.0966 16.2825 28.0423 16.2933 27.9887C16.3042 27.9352 16.3374 27.8868 16.3858 27.8542L16.6059 27.7041C16.7066 27.6381 16.8433 27.653 16.913 27.7444L17.3776 28.3514C17.8574 28.1096 18.3248 28.0418 18.7794 28.1546C19.1877 28.254 19.5573 28.4999 19.8954 28.8926C19.9608 28.9679 19.9377 29.0843 19.8475 29.1453L19.4443 29.4161C19.4031 29.4432 19.353 29.4553 19.3041 29.4501C19.2552 29.4448 19.2112 29.4226 19.1808 29.3878C18.954 29.1358 18.7032 28.9788 18.4271 28.9129C18.1031 28.8361 17.7929 28.8982 17.4964 29.0991C17.1861 29.3103 17.0021 29.5414 16.9497 29.7953C16.8974 30.0492 16.9669 30.307 17.1633 30.5607C17.3466 30.8008 17.5782 30.9305 17.8594 30.954C18.1406 30.9776 18.5259 30.9125 19.0135 30.7615C19.4984 30.6091 19.9097 30.5262 20.2384 30.5153C20.5672 30.5044 20.8577 30.5534 21.1037 30.6664C21.3498 30.7793 21.5686 30.9579 21.7584 31.2048C22.0591 31.5989 22.1732 32.0045 22.0921 32.4239C22.0109 32.8432 21.7495 33.2356 21.3034 33.6022L21.6908 34.1069C21.7577 34.1969 21.7351 34.3239 21.6328 34.3926L21.416 34.5375C21.3153 34.6035 21.1786 34.5886 21.1089 34.4972L20.7216 33.9925C20.2047 34.281 19.7085 34.3825 19.224 34.2993C18.7963 34.2246 18.4161 34.001 18.0878 33.6273C18.0197 33.5506 18.0456 33.4356 18.133 33.3731L18.5395 33.0971C18.6219 33.0425 18.7349 33.0487 18.7937 33.1171C19.0166 33.3637 19.2714 33.5089 19.5497 33.5483C19.875 33.5945 20.2096 33.4999 20.5608 33.2647C20.9015 33.0345 21.1149 32.7804 21.1982 32.5008C21.2871 32.2241 21.2314 31.9561 21.0377 31.7038V31.7038Z" fill="white"/>
<path d="M21.4142 33.7495L20.7199 33.9951L16.8029 28.7592L16.6701 28.5833L17.3776 28.3514L21.2979 33.5994L21.4142 33.7495Z" fill="white"/>
<path opacity="0.5" d="M27.9832 29.8624C30.0487 30.9265 32.7364 30.2014 33.9864 28.2428C35.2364 26.2842 34.5753 23.8338 32.5098 22.7697C30.4444 21.7056 27.7566 22.4307 26.5067 24.3893C25.2567 26.3479 25.9178 28.7983 27.9832 29.8624Z" fill="#2E7D32"/>
<path d="M23.3042 22.1533C25.378 21.3562 27.4092 20.4713 29.1714 19.257C27.4109 20.4686 25.3858 21.3498 23.3147 22.1483C20.0775 23.3932 16.7015 24.4488 13.9328 26.3061C16.6988 24.4474 20.0714 23.397 23.3042 22.1533V22.1533Z" fill="#2E7D32"/>
<path d="M41.6887 26.1325L34.3917 16.6238L41.6706 26.1093L41.6887 26.1325Z" fill="#2E7D32"/>
<path d="M29.4997 36.3616C34.5594 34.4155 39.9231 32.9901 42.8104 28.1737C42.9397 27.9941 42.9489 27.7561 42.8107 27.5774C42.8079 27.576 42.8052 27.5745 42.8068 27.5719L41.725 26.1616C38.8917 31.2485 33.3751 32.7131 28.1994 34.7035C24.2512 36.2201 20.4788 38.0458 18.3156 41.928C18.6179 42.3196 18.8785 42.6619 19.0836 42.9305C19.3173 43.2347 19.8271 43.2095 20.0447 42.8743C22.2555 39.4847 25.8073 37.7812 29.4997 36.3616V36.3616Z" fill="#2E7D32"/>
<path d="M23.9561 21.8997C23.7296 21.9911 23.5169 22.0722 23.2937 22.1583C21.8403 22.7168 20.2853 23.2853 18.9109 23.8117L27.4807 34.9816C27.716 34.8879 27.9558 34.7929 28.1966 34.702C29.6351 34.1498 31.1005 33.6356 32.5269 33.0737L23.9561 21.8997Z" fill="#FFECB3"/>
<path d="M32.5341 33.0739C31.1049 33.6344 29.6396 34.1486 28.1994 34.7035C27.9613 34.7958 27.7232 34.8881 27.4862 34.9844L28.0351 36.949C28.5186 36.7473 29.0086 36.5525 29.5025 36.3631C30.6896 35.9067 31.896 35.4775 33.0826 35.0278L32.5341 33.0739V33.0739Z" fill="#FFECB3"/>
<path opacity="0.5" d="M32.5341 33.0739C31.1049 33.6344 29.6396 34.1486 28.1994 34.7035C27.9613 34.7958 27.7232 34.8881 27.4862 34.9844L28.0351 36.949C28.5186 36.7473 29.0086 36.5525 29.5025 36.3631C30.6896 35.9067 31.896 35.4775 33.0826 35.0278L32.5341 33.0739V33.0739Z" fill="#FFB74D"/>
<path opacity="0.2" d="M33.1838 16.0813L41.1803 26.5051L41.183 26.5065C41.1841 26.5105 41.1896 26.5134 41.1907 26.5174L42.2506 27.8991L42.249 27.9017C39.8525 31.9031 35.6665 33.4428 31.238 35.0761C30.5934 35.3127 29.9277 35.5592 29.2748 35.8088C25.8398 37.1287 21.9823 38.8412 19.5548 42.4902L18.8422 41.5613L18.5503 41.1821L18.3309 40.8956L10.5044 30.6982L10.5078 30.6929C12.9232 26.639 17.1711 25.0652 21.6687 23.3982C22.278 23.1711 22.9094 22.9382 23.5281 22.7021C26.962 21.3782 30.8205 19.6697 33.1838 16.0813V16.0813ZM33.4774 15.5009C33.2188 15.3676 32.8643 15.4416 32.6917 15.7064C30.5374 19.0419 26.9878 20.7361 23.3042 22.1533C18.2357 24.1018 12.831 25.5859 9.9474 30.425C9.81815 30.6046 9.8089 30.8426 9.94548 31.0239L9.94824 31.0254C12.7359 34.6595 15.5241 38.2932 18.3128 41.9266L18.3139 41.9306C18.6162 42.3222 18.8768 42.6645 19.082 42.9331C19.1297 42.9959 19.1929 43.0458 19.259 43.0798C19.5149 43.2117 19.8704 43.1417 20.043 42.8769C22.2565 39.4887 25.8056 37.7838 29.4981 36.3643C34.5594 34.4155 39.9231 32.9901 42.8104 28.1737C42.9397 27.9941 42.9489 27.7561 42.8107 27.5774C42.8079 27.576 42.8052 27.5745 42.8068 27.5719L41.725 26.1615L41.7096 26.1398L33.6616 15.6478C33.6067 15.5848 33.5462 15.5364 33.4774 15.5009V15.5009Z" fill="#424242"/>
<path d="M43.0907 41.7895C44.2095 40.535 42.4489 38.8131 41.4249 38.3549C38.8368 37.1845 34.8117 37.3091 33.0089 34.3067C31.9593 32.5593 30.0225 35.1643 30.0225 35.1643C29.4185 35.9904 28.6823 37.5564 29.1973 38.543C29.7095 39.5281 31.3851 40.329 32.2927 39.1876C32.0238 40.4742 32.6208 42.2833 34.222 42.5534C34.9318 42.6902 35.7794 42.1872 35.9187 41.5793C36.2628 42.6617 37.9025 44.0231 38.9753 43.6084C40.1716 43.0804 39.3261 41.7294 39.0877 40.9685C40.0103 41.534 42.0212 42.8925 43.0907 41.7895V41.7895Z" fill="#CFD8DC"/>
<path opacity="0.2" d="M41.2146 38.9366C41.8805 39.2797 42.6743 40.07 42.7917 40.7512C42.8381 41.0109 42.7809 41.2207 42.613 41.4151C42.2763 41.7479 41.6109 41.6617 40.634 41.1583C40.2652 40.9684 39.9203 40.7525 39.6419 40.5814L39.4631 40.4719C39.4494 40.4648 39.4373 40.4551 39.4235 40.448C39.2061 40.336 38.9297 40.3566 38.7201 40.5017C38.4966 40.657 38.3973 40.9214 38.4714 41.1607C38.5198 41.314 38.5859 41.4798 38.6558 41.651C39.0729 42.6877 39.0211 42.935 38.7404 43.0712C38.5625 43.1321 38.2688 43.071 37.9523 42.9079C37.3304 42.5875 36.7099 41.9211 36.5405 41.39C36.4942 41.2448 36.3894 41.1283 36.2573 41.0603C36.1692 41.0157 36.07 40.9916 35.9677 40.99C35.8654 40.9883 35.763 41.0091 35.669 41.0507C35.575 41.0924 35.4919 41.1536 35.4268 41.2293C35.3616 41.305 35.3162 41.3932 35.2942 41.4864C35.2667 41.604 35.1486 41.7374 34.9861 41.8374C34.7931 41.9565 34.5629 42.0078 34.386 41.9756C34.3805 41.9727 34.376 41.9739 34.3689 41.9737C34.2101 41.9474 34.0592 41.8974 33.9216 41.8265C33.0713 41.3884 32.7426 40.1615 32.9288 39.2796C32.9536 39.1592 32.9382 39.0364 32.8847 38.9276C32.8313 38.8189 32.7423 38.7294 32.6296 38.6712C32.6076 38.6598 32.5856 38.6485 32.5575 38.6409C32.286 38.5392 31.9646 38.6302 31.7839 38.8561C31.4224 39.3079 30.9078 39.1746 30.5418 38.986C30.2116 38.8159 29.9286 38.5487 29.7847 38.27C29.4422 37.615 29.9267 36.3458 30.5518 35.4924C31.0027 34.889 31.8402 34.1554 32.1815 34.3312C32.242 34.3624 32.336 34.4386 32.4467 34.6204C33.0202 35.5782 33.8384 36.3188 34.9474 36.8901C36.073 37.47 37.3165 37.7848 38.5193 38.0889C39.473 38.3306 40.3761 38.5601 41.1287 38.8992C41.154 38.9054 41.1815 38.9195 41.2146 38.9366V38.9366ZM41.5476 38.4146C41.5064 38.3934 41.4678 38.3735 41.4276 38.3563C39.6599 37.5565 37.2212 37.3612 35.2783 36.3602C34.3785 35.8966 33.583 35.2579 33.0133 34.3056C32.8627 34.0546 32.694 33.8948 32.5151 33.8027C31.4474 33.2526 30.0253 35.1657 30.0253 35.1657C29.4213 35.9918 28.6851 37.5578 29.2001 38.5444C29.3998 38.9247 29.7728 39.2799 30.2077 39.5039C30.8956 39.8583 31.7399 39.8876 32.2955 39.189C32.0659 40.2879 32.4702 41.7687 33.5874 42.3444C33.7773 42.4422 33.991 42.5142 34.2247 42.5548C34.9346 42.6917 35.7822 42.1886 35.9214 41.5808C36.136 42.253 36.8514 43.0343 37.6165 43.4284C38.0843 43.6694 38.5704 43.7673 38.9753 43.6084C40.1716 43.0804 39.3261 41.7294 39.0877 40.9685C39.3947 41.1579 39.8221 41.4336 40.2982 41.6788C41.2448 42.1666 42.3768 42.5244 43.0908 41.7895C44.168 40.583 42.5796 38.9463 41.5476 38.4146V38.4146Z" fill="#424242"/>
</g>
<g clip-path="url(#clip1)">
<path d="M39.0439 51.7137C38.5578 51.7241 37.6127 51.5311 37.5424 52.2207C37.5145 52.8276 38.6217 53.4131 39.3125 53.4022C38.9897 53.5756 38.8661 54.0854 39.0847 54.4177C39.5548 55.1715 40.7151 55.1608 41.405 54.8069C40.9247 55.4563 41.7168 56.1556 42.3857 56.2439C43.0547 56.3322 43.8144 55.6974 44.1727 55.2559C44.1727 55.2559 45.2962 53.8426 44.0816 53.6166C41.9952 53.2286 41.2777 51.1942 40.0931 50.1007C39.6278 49.6672 38.2886 49.0821 37.7843 49.8533C37.358 50.5755 38.5378 51.3488 39.0439 51.7137V51.7137Z" fill="#CFD8DC"/>
<path opacity="0.2" d="M38.454 49.8225C38.91 49.7675 39.5692 50.0881 39.8434 50.3412C40.1867 50.6585 40.4947 51.0697 40.8226 51.506C41.5778 52.5133 42.4341 53.655 44.0156 53.9488C44.1591 53.9763 44.2451 54.0194 44.2705 54.0818C44.3545 54.2855 44.1008 54.7731 43.8863 55.0438C43.5729 55.4317 43.0303 55.8523 42.5992 55.9043C42.5405 55.9114 42.4842 55.9113 42.4327 55.9055C42.1185 55.864 41.7712 55.6318 41.6577 55.3868C41.5946 55.2513 41.6097 55.1305 41.7018 55.0039C41.7973 54.8751 41.7863 54.6988 41.6729 54.5797C41.6184 54.5216 41.5451 54.4825 41.4648 54.4688C41.3845 54.455 41.3019 54.4673 41.2305 54.5037C41.0584 54.5918 40.8429 54.6557 40.6238 54.6821C40.4154 54.7073 39.7074 54.7496 39.393 54.2443C39.3907 54.2411 39.3905 54.2394 39.3882 54.2363C39.3345 54.1531 39.3183 54.0292 39.3484 53.9117C39.374 53.8138 39.4291 53.7313 39.4913 53.6979C39.5606 53.6605 39.6145 53.6021 39.6447 53.532C39.6748 53.4619 39.6796 53.384 39.6581 53.3105C39.6125 53.1591 39.467 53.0559 39.3007 53.0588C38.9283 53.0657 38.3669 52.8317 38.0756 52.5478C37.9635 52.4372 37.8987 52.3278 37.8993 52.2449C37.9073 52.1629 37.9281 52.0811 38.1971 52.0486C38.361 52.0289 38.5598 52.0376 38.735 52.0458C38.8481 52.0511 38.9557 52.0554 39.0552 52.0538C39.0679 52.054 39.0803 52.0524 39.0928 52.0509C39.23 52.0344 39.3438 51.9448 39.387 51.8172C39.4321 51.6789 39.3813 51.5282 39.2596 51.4394L39.1605 51.3686C38.7381 51.0677 37.8609 50.4442 38.0957 50.0261C38.1764 49.9078 38.2901 49.8423 38.454 49.8225V49.8225ZM38.4048 49.4836C38.1554 49.5137 37.9339 49.6232 37.784 49.8516C37.358 50.5755 38.5358 51.3474 39.0436 51.712C38.8033 51.7169 38.4525 51.673 38.1479 51.7097C37.8362 51.7473 37.5766 51.87 37.5403 52.2193C37.5124 52.8261 38.6196 53.4116 39.3105 53.4007C38.9876 53.5742 38.864 54.084 39.0826 54.4163C39.4087 54.9391 40.0691 55.0939 40.673 55.0211C40.9384 54.989 41.1921 54.9136 41.403 54.8054C40.9227 55.4548 41.7147 56.1542 42.3837 56.2425C42.4706 56.2544 42.5573 56.2525 42.6464 56.2418C43.2432 56.1698 43.8585 55.6386 44.1704 55.2527C44.1704 55.2527 45.2939 53.8394 44.0793 53.6135C41.9929 53.2254 41.2754 51.191 40.0908 50.0976C39.7639 49.7938 39.0016 49.4116 38.4048 49.4836V49.4836Z" fill="#424242"/>
<path d="M46.6464 47.9221L46.6605 47.9254Z" fill="url(#paint2_linear)"/>
<path d="M50.4792 57.9214C52.0514 55.4159 53.9782 53.0435 53.3123 49.8666L53.2971 49.8615L45.6646 47.6267C45.4432 47.562 45.2233 47.7334 45.2533 47.9522C45.5561 50.1263 44.6036 51.9931 43.4849 53.7766C41.945 56.2298 40.0763 58.578 40.6247 61.657C40.635 61.7782 40.7217 61.8884 40.8525 61.9278L40.8543 61.9276C43.498 62.7017 46.1418 63.4754 48.7857 64.2488L48.7877 64.2503C48.2765 61.8272 49.2795 59.8335 50.4792 57.9214Z" fill="url(#paint3_linear)"/>
<path d="M47.8465 49.1723L51.4601 50.2297C51.414 50.568 51.4835 50.9126 51.6582 51.213C51.8329 51.5134 52.1038 51.7538 52.431 51.899C52.1477 53.6316 51.1411 55.1877 50.1669 56.6934L50.1564 56.7084C49.9686 57.0001 49.773 57.3013 49.5861 57.5997C48.8102 58.8349 48.0632 60.182 47.8093 61.6801C47.7013 61.6724 47.595 61.6766 47.4863 61.6897C46.9234 61.7576 46.4426 62.0915 46.2017 62.5672L42.5881 61.5098C42.6474 61.0819 42.5204 60.6438 42.2291 60.2978C42.2162 60.2838 42.2031 60.2682 42.1902 60.2542L42.1793 60.2417L42.1345 60.1954C42.1176 60.1785 42.0988 60.1618 42.0819 60.1449C42.0651 60.1296 42.0464 60.1129 42.0218 60.0935C42.0054 60.0799 41.9907 60.0662 41.9745 60.0544C41.9438 60.0305 41.9116 60.0085 41.8794 59.9865C41.8635 59.9764 41.8475 59.9662 41.8237 59.9518C41.7958 59.9345 41.7681 59.9189 41.7405 59.9033C41.7227 59.8933 41.7052 59.8851 41.6857 59.8754C41.6583 59.8614 41.6291 59.8477 41.5925 59.8332C41.5771 59.8264 41.5616 59.8196 41.5464 59.8146C41.5443 59.8131 41.5408 59.8135 41.5387 59.8121C41.8245 58.0843 42.8281 56.532 43.8007 55.0283L43.8112 55.0132C43.9991 54.7216 44.1946 54.4203 44.3815 54.1219C45.1528 52.8925 45.8973 51.5525 46.1529 50.0543C46.2894 50.0706 46.427 50.0695 46.5641 50.053C47.1261 49.9783 47.6069 49.6444 47.8465 49.1723V49.1723ZM47.6893 48.8636C47.6123 49.11 47.4619 49.3292 47.2561 49.4951C47.0503 49.6609 46.7979 49.7663 46.529 49.7985C46.3652 49.8183 46.1938 49.8114 46.0231 49.7716L46.0233 49.7733C45.9933 49.7666 45.9633 49.7599 45.9331 49.7514L45.9318 49.755C45.7315 51.2846 44.9917 52.6567 44.1553 53.9871C43.9654 54.2894 43.7716 54.5904 43.5758 54.8899C42.532 56.5022 41.4919 58.1158 41.2478 59.9679L41.2437 59.977C41.2454 59.9768 41.2454 59.9768 41.2475 59.9782C41.2739 59.9854 41.3021 59.9923 41.3303 59.9993C41.3359 60.0003 41.3399 60.0033 41.3455 60.0044C41.3816 60.0155 41.4158 60.0269 41.4504 60.04C41.4656 60.045 41.4793 60.052 41.4948 60.0588C41.5199 60.0695 41.5433 60.0805 41.5666 60.0915C41.5821 60.0982 41.5978 60.1067 41.6118 60.1154C41.6353 60.128 41.6592 60.1424 41.683 60.1568C41.699 60.1669 41.7147 60.1754 41.7307 60.1855C41.7588 60.2045 41.7852 60.2238 41.8115 60.243C41.8277 60.2548 41.8422 60.2669 41.8569 60.2806C41.8716 60.2944 41.8878 60.3062 41.9025 60.32C41.9171 60.3337 41.9321 60.3492 41.9467 60.3629L41.9855 60.4048C41.9986 60.4205 42.0133 60.4342 42.0264 60.4499C42.1708 60.6204 42.2696 60.8214 42.3142 61.0354C42.3588 61.2493 42.348 61.4698 42.2826 61.6777L46.3637 62.8718C46.4411 62.6254 46.5918 62.4061 46.7979 62.2402C47.004 62.0744 47.2567 61.969 47.5258 61.9367C47.6914 61.9167 47.8631 61.9253 48.0353 61.9632L48.0397 61.9558L48.0394 61.9541C48.242 60.4277 48.9823 59.059 49.8169 57.7288C50.0069 57.4265 50.2006 57.1255 50.3964 56.826C51.4403 55.2137 52.4803 53.6001 52.7245 51.748C52.7258 51.7444 52.7253 51.7411 52.7265 51.7374C51.9789 51.519 51.5525 50.7669 51.7743 50.059L47.6893 48.8636V48.8636Z" fill="#2E7D32"/>
<path d="M46.1087 58.7917C45.9535 58.7467 45.8049 58.7594 45.6649 58.8315C45.525 58.9035 45.3739 59.0494 45.2103 59.2709C44.9924 59.5799 44.7706 59.7878 44.5447 59.8926C44.3189 59.9974 44.0688 60.0104 43.7961 59.9295C43.5177 59.8475 43.3139 59.7048 43.1845 59.4997C43.055 59.2946 43.0145 59.0529 43.0647 58.7744L42.6256 58.6463C42.5943 58.637 42.5679 58.6164 42.5524 58.5888C42.5368 58.5613 42.5333 58.5291 42.5427 58.4994L42.5846 58.3633C42.6047 58.3023 42.672 58.2666 42.7383 58.2861L43.1794 58.4157C43.3033 58.1576 43.488 57.9819 43.7359 57.8916C43.9579 57.8097 44.2183 57.8058 44.5206 57.878C44.5788 57.8917 44.6128 57.9514 44.5955 58.0069L44.5172 58.2543C44.509 58.2793 44.491 58.3004 44.467 58.3132C44.443 58.326 44.4146 58.3296 44.3877 58.3234C44.1893 58.2801 44.0163 58.2872 43.8667 58.3431C43.6914 58.4091 43.5753 58.5335 43.5185 58.7162C43.4593 58.9079 43.4646 59.0693 43.538 59.2002C43.6113 59.331 43.7411 59.4257 43.9265 59.4792C44.1007 59.5306 44.2546 59.5172 44.3903 59.4405C44.526 59.3638 44.6747 59.2148 44.8368 58.9952C44.9971 58.7758 45.1508 58.6107 45.2947 58.5037C45.4387 58.3966 45.5883 58.3286 45.7423 58.3031C45.8963 58.2776 46.0631 58.2903 46.2429 58.3427C46.5288 58.4272 46.7351 58.5748 46.8587 58.7892C46.9823 59.0036 47.0143 59.2619 46.9533 59.5658L47.3205 59.6733C47.385 59.6931 47.4233 59.7574 47.4035 59.8202L47.3611 59.9529C47.341 60.014 47.2736 60.0497 47.2073 60.0301L46.8401 59.9226C46.7174 60.2133 46.5325 60.4132 46.2825 60.5262C46.0612 60.6253 45.8045 60.6425 45.5139 60.5758C45.4539 60.5623 45.4217 60.5024 45.4372 60.4471L45.515 60.1963C45.5313 60.146 45.5846 60.1137 45.6372 60.1264C45.8318 60.1684 46.002 60.1548 46.1425 60.0861C46.3066 60.006 46.4213 59.8593 46.4898 59.6442C46.5554 59.4345 46.5545 59.2535 46.4853 59.1015C46.4197 58.9491 46.2923 58.8455 46.1087 58.7917V58.7917Z" fill="white"/>
<path d="M47.0594 59.5979L46.8404 59.9243L43.0761 58.7782L42.9492 58.7401L43.1794 58.4157L46.9497 59.5663L47.0594 59.5979Z" fill="white"/>
<path opacity="0.5" d="M48.5352 55.8039C49.8722 55.6426 50.8064 54.4807 50.6218 53.2087C50.4372 51.9368 49.2037 51.0364 47.8667 51.1977C46.5297 51.359 45.5955 52.5209 45.7801 53.7928C45.9647 55.0648 47.1982 55.9651 48.5352 55.8039Z" fill="#2E7D32"/>
<path d="M43.4834 53.7785C44.1135 52.7747 44.6908 51.7446 45.0213 50.6495C44.6906 51.7429 44.1145 52.7695 43.4862 53.7729C42.5029 55.34 41.3847 56.8647 40.8463 58.5627C41.3829 56.865 42.5016 55.3436 43.4834 53.7785V53.7785Z" fill="#2E7D32"/>
<path d="M53.2867 49.8645L46.368 47.8401L53.2696 49.8596L53.2867 49.8645Z" fill="#2E7D32"/>
<path d="M51.7001 58.2655C53.2369 55.816 55.1095 53.5071 54.5715 50.4372C54.5612 50.316 54.4745 50.2057 54.3439 50.168C54.3422 50.1682 54.3404 50.1685 54.3401 50.1668L53.3141 49.8663C53.9798 53.0416 52.0532 55.4157 50.4811 57.9211C49.2811 59.8316 48.2784 61.827 48.786 64.2505C49.0717 64.3333 49.3198 64.4068 49.5148 64.4644C49.7363 64.529 49.9563 64.3594 49.9264 64.1405C49.6284 61.9245 50.5784 60.0528 51.7001 58.2655V58.2655Z" fill="#2E7D32"/>
<path d="M43.6802 53.4616C43.6131 53.5731 43.5482 53.6758 43.4805 53.784C43.0389 54.4873 42.5553 55.2268 42.1369 55.8911L50.2634 58.2699C50.3336 58.1545 50.4054 58.0372 50.4792 57.9214C50.9166 57.2254 51.3805 56.5383 51.8087 55.8418L43.6802 53.4616Z" fill="#FFECB3"/>
<path d="M51.8121 55.8396C51.3821 56.5364 50.9181 57.2235 50.4811 57.9211C50.409 58.0367 50.337 58.1523 50.267 58.2694L51.2645 58.9854C51.4053 58.7442 51.5517 58.5041 51.7019 58.2653C52.0626 57.6907 52.4423 57.1224 52.8053 56.551L51.8121 55.8396V55.8396Z" fill="#FFECB3"/>
<path opacity="0.5" d="M51.8121 55.8396C51.3821 56.5364 50.9181 57.2235 50.4811 57.9211C50.409 58.0367 50.337 58.1523 50.267 58.2694L51.2645 58.9854C51.4053 58.7442 51.5517 58.5041 51.7019 58.2653C52.0626 57.6907 52.4423 57.1224 52.8053 56.551L51.8121 55.8396V55.8396Z" fill="#FFB74D"/>
<path opacity="0.2" d="M45.6166 47.9704L53.1999 50.1905L53.2016 50.1903C53.2037 50.1918 53.2072 50.1913 53.2093 50.1928L54.2144 50.4871L54.2147 50.4888C54.6626 53.0386 53.3644 55.0333 51.9925 57.1456C51.7924 57.4526 51.5866 57.7705 51.3877 58.0859C50.3438 59.7483 49.2596 61.7189 49.559 64.1193L48.8832 63.9215L48.6069 63.841L48.3986 63.7799L40.9785 61.6092L40.978 61.6058C40.5184 59.0264 41.8316 56.9971 43.2217 54.8481C43.4096 54.5564 43.6051 54.2552 43.7938 53.9566C44.8356 52.2928 45.9219 50.3236 45.6166 47.9704V47.9704ZM45.5273 47.6174C45.3599 47.6376 45.2284 47.781 45.2518 47.9541C45.5546 50.1282 44.6021 51.995 43.4834 53.7785C41.9435 56.2317 40.0748 58.5799 40.6232 61.6589C40.6335 61.7801 40.7202 61.8904 40.851 61.9298L40.8528 61.9295C43.4965 62.7036 46.1403 63.4773 48.7842 64.2507L48.7862 64.2522C49.0719 64.335 49.32 64.4085 49.5151 64.4661C49.5605 64.4795 49.6081 64.4824 49.6508 64.4773C49.8165 64.4573 49.9499 64.3153 49.9266 64.1422C49.6304 61.926 50.5786 60.0545 51.7003 58.2672C53.2369 55.816 55.1095 53.5071 54.5715 50.4372C54.5612 50.316 54.4745 50.2057 54.3439 50.168C54.3421 50.1682 54.3404 50.1685 54.3401 50.1668L53.3141 49.8663L53.2989 49.8613L45.6664 47.6265C45.6176 47.6151 45.5719 47.612 45.5273 47.6174V47.6174Z" fill="#424242"/>
<path d="M59.8967 56.4939C59.9218 55.5804 58.471 55.3502 57.8346 55.4614C56.2216 55.7371 54.4554 57.0434 52.4967 56.2485C51.3566 55.786 51.4785 57.5629 51.4785 57.5629C51.5218 58.1232 51.788 59.0585 52.3967 59.3437C53.0037 59.6292 54.0645 59.4701 54.0377 58.6733C54.4077 59.3373 55.3675 59.9682 56.1921 59.5928C56.5642 59.4341 56.7541 58.9439 56.5847 58.6264C57.153 59.0079 58.4117 59.113 58.7367 58.5927C59.0742 57.9829 58.1774 57.6359 57.7794 57.3666C58.4111 57.3353 59.8359 57.3237 59.8967 56.4939V56.4939Z" fill="#CFD8DC"/>
<path opacity="0.2" d="M57.9619 55.7892C58.393 55.7372 59.0524 55.8474 59.3654 56.1183C59.4855 56.221 59.5399 56.3335 59.5384 56.4733C59.5137 56.728 59.181 56.8958 58.5486 56.9721C58.3099 57.0008 58.0721 57.0106 57.8813 57.0198L57.7589 57.0259C57.75 57.027 57.7409 57.0264 57.732 57.0275C57.5913 57.0444 57.4746 57.1396 57.4355 57.2702C57.3941 57.4096 57.4504 57.5598 57.5751 57.6447C57.6554 57.6989 57.7485 57.7531 57.8454 57.8087C58.4292 58.147 58.5002 58.2746 58.4257 58.4233C58.3689 58.506 58.2132 58.5696 58.0083 58.5943C57.6057 58.6429 57.0717 58.5349 56.7926 58.3478C56.7163 58.2967 56.6246 58.2767 56.5391 58.287C56.4824 58.2943 56.4284 58.3142 56.3817 58.3452C56.335 58.3762 56.2968 58.4174 56.2704 58.4654C56.2439 58.5134 56.2298 58.5668 56.2294 58.6212C56.2289 58.6756 56.2421 58.7295 56.2678 58.7784C56.3003 58.84 56.2981 58.9369 56.263 59.0325C56.2215 59.1461 56.1373 59.2408 56.0453 59.2812C56.0418 59.2816 56.0402 59.2835 56.0369 59.2856C55.9553 59.3231 55.8682 59.3474 55.7792 59.3581C55.2287 59.4245 54.6122 58.973 54.3594 58.5172C54.3246 58.4552 54.2707 58.4046 54.2051 58.3721C54.1395 58.3396 54.0652 58.3269 53.9923 58.3356C53.978 58.3373 53.9637 58.339 53.9482 58.3444C53.787 58.3828 53.677 58.5237 53.6818 58.6817C53.6914 58.9978 53.4086 59.0975 53.1717 59.1261C52.9579 59.1518 52.7284 59.1192 52.5572 59.0381C52.1527 58.8489 51.8864 58.1258 51.8423 57.5466C51.815 57.1343 51.9123 56.5432 52.1332 56.5165C52.1724 56.5118 52.2438 56.517 52.3631 56.5646C52.9873 56.8187 53.6387 56.8988 54.3566 56.8122C55.0852 56.7243 55.7657 56.4801 56.4238 56.2438C56.9458 56.0567 57.4403 55.8797 57.909 55.7991C57.9227 55.794 57.9405 55.7918 57.9619 55.7892V55.7892ZM57.9127 55.4503C57.886 55.4535 57.8611 55.4565 57.8364 55.4612C56.7345 55.6493 55.561 56.3185 54.3034 56.4703C53.7209 56.5405 53.1186 56.4994 52.4982 56.2466C52.3345 56.1801 52.1975 56.1604 52.0817 56.1744C51.3906 56.2578 51.4803 57.5626 51.4803 57.5626C51.5235 58.123 51.7898 59.0583 52.3985 59.3435C52.6337 59.4531 52.9374 59.4975 53.2189 59.4635C53.6642 59.4098 54.0558 59.1608 54.0394 58.6731C54.3555 59.2402 55.1031 59.7828 55.8263 59.6956C55.9493 59.6808 56.073 59.6469 56.1938 59.5926C56.5659 59.4339 56.7558 58.9437 56.5865 58.6262C56.9398 58.8629 57.5605 58.9932 58.0557 58.9335C58.3586 58.8969 58.6149 58.7901 58.7367 58.5927C59.0742 57.9829 58.1773 57.6359 57.7794 57.3666C57.99 57.3567 58.2879 57.3484 58.596 57.3112C59.2088 57.2373 59.8555 57.0472 59.8966 56.4939C59.9213 55.6149 58.5807 55.3697 57.9127 55.4503V55.4503Z" fill="#424242"/>
</g>
<g clip-path="url(#clip2)">
<path d="M136.837 41.206C136.292 40.894 135.396 40.0627 134.781 40.7428C134.276 41.3639 135.045 42.7167 135.818 43.1641C135.325 43.1324 134.791 43.5877 134.773 44.0831C134.706 45.1899 135.997 45.9496 137.037 46.035C135.999 46.4003 136.33 47.6637 137.001 48.2012C137.672 48.7387 139.008 48.5744 139.749 48.3471C139.749 48.3471 142.094 47.604 140.926 46.5588C138.921 44.7636 139.714 42.1426 139.256 40.2031C139.08 39.4369 138.054 37.9305 136.895 38.4083C135.86 38.8862 136.562 40.4852 136.837 41.206V41.206Z" fill="#CFD8DC"/>
<path opacity="0.2" d="M137.66 38.8209C138.207 39.0659 138.687 39.8417 138.792 40.2907C138.925 40.8531 138.945 41.4912 138.967 42.169C139.017 43.7324 139.074 45.5047 140.594 46.8651C140.732 46.9895 140.793 47.092 140.773 47.1747C140.707 47.4452 140.046 47.7905 139.597 47.9333C138.948 48.1339 138.02 48.2168 137.502 47.9852C137.432 47.9536 137.369 47.9161 137.317 47.8757C137.002 47.6233 136.799 47.1477 136.864 46.8141C136.9 46.6293 137.011 46.5121 137.212 46.4398C137.418 46.3675 137.543 46.1744 137.51 45.9735C137.495 45.8761 137.445 45.7862 137.367 45.7183C137.289 45.6504 137.188 45.6086 137.08 45.5995C136.821 45.578 136.533 45.5022 136.27 45.3844C136.02 45.2725 135.203 44.8466 135.25 44.1052C135.25 44.1004 135.251 44.0984 135.251 44.0936C135.256 43.9702 135.335 43.8288 135.46 43.725C135.565 43.6389 135.69 43.5885 135.785 43.5947C135.891 43.6012 135.996 43.5755 136.084 43.5217C136.172 43.4678 136.238 43.3888 136.271 43.2971C136.339 43.1073 136.259 42.9019 136.072 42.7943C135.655 42.5543 135.216 41.9346 135.116 41.4418C135.078 41.2507 135.091 41.0923 135.157 41.0055C135.23 40.9244 135.316 40.8519 135.639 40.9964C135.836 41.0845 136.049 41.2258 136.237 41.3509C136.358 41.4316 136.473 41.5076 136.585 41.5719C136.599 41.5806 136.614 41.5873 136.628 41.594C136.793 41.6677 136.989 41.6489 137.136 41.543C137.294 41.4273 137.355 41.2346 137.29 41.0602L137.236 40.9197C137.003 40.322 136.519 39.082 137.105 38.7974C137.286 38.7262 137.463 38.7328 137.66 38.8209V38.8209ZM137.87 38.4309C137.57 38.2969 137.24 38.2652 136.896 38.4063C135.86 38.8863 136.561 40.4823 136.838 41.2041C136.569 41.0495 136.215 40.7702 135.849 40.6065C135.475 40.439 135.092 40.3959 134.78 40.7399C134.275 41.361 135.044 42.7138 135.816 43.1612C135.324 43.1296 134.79 43.5848 134.772 44.0802C134.725 44.8479 135.335 45.4499 136.06 45.7744C136.379 45.917 136.718 46.006 137.036 46.0321C135.998 46.3974 136.329 47.6608 137 48.1983C137.087 48.2686 137.184 48.3243 137.291 48.3722C138.007 48.6928 139.102 48.5418 139.749 48.3422C139.749 48.3422 142.094 47.5991 140.926 46.554C138.921 44.7588 139.714 42.1378 139.256 40.1982C139.132 39.661 138.586 38.7516 137.87 38.4309V38.4309Z" fill="#424242"/>
<path d="M148.206 42.261L148.218 42.2735Z" fill="url(#paint4_linear)"/>
<path d="M144.647 55.3467C148.34 53.7506 152.323 52.5303 154.064 48.7394L154.051 48.724L147.35 41.2973C147.156 41.082 146.779 41.1166 146.641 41.3671C145.28 43.8598 142.77 45.1945 140.142 46.331C136.524 47.8936 132.625 49.1268 130.83 52.7365C130.747 52.8711 130.757 53.0449 130.871 53.1733L130.873 53.1742C133.194 55.7466 135.516 58.3187 137.838 60.8906L137.839 60.8935C139.163 57.9999 141.828 56.565 144.647 55.3467Z" fill="url(#paint5_linear)"/>
<path d="M148.558 44.3761L151.731 47.8915C151.417 48.2174 151.225 48.6268 151.184 49.0595C151.143 49.4923 151.255 49.9256 151.504 50.296C149.839 51.934 147.511 52.9052 145.259 53.8449L145.236 53.8538C144.8 54.0364 144.349 54.2239 143.91 54.4143C142.088 55.2006 140.21 56.1241 138.761 57.5344C138.648 57.4545 138.527 57.3883 138.396 57.3299C137.72 57.0275 136.928 57.06 136.291 57.4013L133.117 53.8859C133.517 53.4743 133.718 52.928 133.666 52.3699C133.662 52.3466 133.66 52.3214 133.657 52.2981L133.654 52.2777L133.641 52.1991C133.635 52.17 133.628 52.1399 133.622 52.1108C133.615 52.0837 133.608 52.0536 133.596 52.0168C133.588 51.9916 133.583 51.9674 133.574 51.9441C133.559 51.8985 133.54 51.854 133.522 51.8094C133.512 51.7881 133.502 51.7668 133.487 51.7358C133.47 51.6991 133.451 51.6642 133.433 51.6294C133.421 51.6071 133.408 51.5868 133.394 51.5636C133.374 51.5307 133.353 51.4968 133.324 51.4572C133.312 51.4398 133.3 51.4224 133.287 51.4069C133.286 51.404 133.282 51.4021 133.281 51.3992C134.945 49.768 137.266 48.7987 139.515 47.8601L139.538 47.8512C139.973 47.6686 140.425 47.481 140.864 47.2906C142.676 46.5074 144.545 45.5897 145.997 44.1804C146.135 44.2883 146.288 44.3785 146.453 44.4522C147.133 44.7469 147.925 44.7144 148.558 44.3761V44.3761ZM148.625 43.9463C148.348 44.1548 148.01 44.2859 147.653 44.324C147.296 44.362 146.935 44.3053 146.612 44.1608C146.416 44.0727 146.231 43.9515 146.074 43.7962L146.072 43.7982C146.045 43.7712 146.017 43.7441 145.99 43.7152L145.986 43.7181C144.571 45.1971 142.682 46.1518 140.719 46.9983C140.273 47.1907 139.824 47.3792 139.374 47.5648C136.961 48.5706 134.552 49.5802 132.837 51.3701L132.826 51.377C132.828 51.3779 132.828 51.3779 132.829 51.3808C132.853 51.4059 132.878 51.432 132.904 51.458C132.909 51.4629 132.912 51.4687 132.917 51.4735C132.948 51.5092 132.977 51.544 133.005 51.5807C133.018 51.5962 133.028 51.6126 133.04 51.63C133.059 51.6581 133.076 51.6852 133.094 51.7122C133.105 51.7296 133.116 51.749 133.125 51.7674C133.141 51.7964 133.156 51.8274 133.171 51.8584C133.181 51.8797 133.192 51.899 133.202 51.9203C133.218 51.9591 133.232 51.9969 133.246 52.0347C133.255 52.0579 133.262 52.0802 133.267 52.1045C133.273 52.1287 133.281 52.152 133.287 52.1762C133.292 52.2005 133.297 52.2266 133.302 52.2509L133.313 52.3208C133.315 52.346 133.32 52.3702 133.323 52.3955C133.349 52.6712 133.302 52.9486 133.184 53.2038C133.067 53.4589 132.883 53.6841 132.648 53.8598L136.232 57.83C136.51 57.6216 136.848 57.4907 137.205 57.4528C137.563 57.4149 137.924 57.4718 138.247 57.6165C138.446 57.7055 138.629 57.8286 138.79 57.9829L138.801 57.978L138.802 57.9761C140.217 56.5019 142.103 55.5511 144.064 54.7037C144.51 54.5113 144.959 54.3228 145.409 54.1372C147.822 53.1314 150.231 52.1217 151.946 50.3319C151.95 50.3289 151.952 50.325 151.956 50.3221C151.3 49.5951 151.415 48.5191 152.212 47.9203L148.625 43.9463V43.9463Z" fill="#2E7D32"/>
<path d="M139.133 53.3602C138.996 53.2096 138.822 53.1243 138.611 53.1072C138.4 53.0902 138.119 53.1435 137.765 53.2683C137.283 53.4492 136.875 53.5209 136.544 53.4813C136.212 53.4418 135.925 53.2893 135.687 53.0228C135.443 52.7515 135.328 52.4657 135.345 52.1635C135.362 51.8613 135.506 51.5796 135.778 51.3195L135.393 50.8927C135.365 50.8621 135.352 50.8228 135.356 50.7834C135.361 50.7441 135.382 50.7079 135.415 50.6828L135.568 50.5671C135.638 50.5162 135.74 50.5233 135.798 50.5879L136.185 51.0176C136.523 50.8279 136.865 50.7654 137.21 50.835C137.519 50.8961 137.81 51.0651 138.088 51.342C138.142 51.395 138.133 51.4806 138.071 51.5276L137.791 51.7364C137.762 51.7572 137.726 51.7675 137.69 51.765C137.653 51.7626 137.619 51.7476 137.594 51.7231C137.408 51.5456 137.211 51.4381 137.002 51.3978C136.757 51.3508 136.531 51.4048 136.326 51.5596C136.111 51.7223 135.991 51.896 135.97 52.0826C135.949 52.2692 136.019 52.4553 136.182 52.6348C136.335 52.8048 136.515 52.8929 136.725 52.9022C136.935 52.9115 137.216 52.8533 137.567 52.7296C137.915 52.6049 138.214 52.5329 138.457 52.5158C138.699 52.4986 138.918 52.5263 139.108 52.6018C139.299 52.6772 139.473 52.8014 139.631 52.9761C139.882 53.2552 139.995 53.5477 139.964 53.8559C139.934 54.164 139.768 54.4574 139.463 54.7372L139.786 55.0945C139.842 55.1582 139.834 55.2515 139.763 55.3044L139.612 55.4162C139.542 55.4671 139.44 55.46 139.382 55.3954L139.06 55.0381C138.697 55.263 138.337 55.3508 137.972 55.3037C137.65 55.2612 137.352 55.1087 137.083 54.8454C137.027 54.7913 137.038 54.7068 137.098 54.6588L137.38 54.4461C137.437 54.404 137.522 54.4054 137.57 54.4536C137.752 54.6272 137.951 54.7259 138.16 54.7469C138.404 54.7715 138.646 54.6931 138.889 54.5118C139.125 54.3345 139.266 54.1432 139.308 53.937C139.354 53.7327 139.294 53.5388 139.133 53.3602V53.3602Z" fill="white"/>
<path d="M139.556 54.8415L139.059 55.0401L135.788 51.3311L135.677 51.2065L136.185 51.0176L139.459 54.7353L139.556 54.8415Z" fill="white"/>
<path opacity="0.5" d="M144.148 51.8232C145.753 52.5416 147.692 51.9377 148.48 50.4744C149.268 49.0111 148.606 47.2426 147.001 46.5243C145.396 45.8059 143.456 46.4098 142.668 47.8731C141.88 49.3364 142.543 51.1049 144.148 51.8232Z" fill="#2E7D32"/>
<path d="M140.138 46.3319C141.618 45.6927 143.061 44.9906 144.28 44.0558C143.062 44.9886 141.624 45.6878 140.146 46.328C137.836 47.3263 135.409 48.1904 133.489 49.6223C135.407 48.1895 137.831 47.3293 140.138 46.3319V46.3319Z" fill="#2E7D32"/>
<path d="M154.037 48.7202L147.962 41.9897L154.022 48.7038L154.037 48.7202Z" fill="#2E7D32"/>
<path d="M145.729 56.5206C149.34 54.96 153.212 53.7706 155.012 50.1774C155.095 50.0429 155.085 49.8691 154.97 49.7426C154.968 49.7416 154.966 49.7407 154.967 49.7387L154.066 48.7404C152.326 52.5294 148.343 53.7515 144.649 55.3477C141.831 56.564 139.165 58.0008 137.837 60.8925C138.088 61.1696 138.305 61.4119 138.476 61.6022C138.671 61.8175 139.047 61.7849 139.184 61.5343C140.583 59.0006 143.094 57.659 145.729 56.5206V56.5206Z" fill="#2E7D32"/>
<path d="M140.603 46.1288C140.442 46.2017 140.29 46.2668 140.131 46.3359C139.094 46.7838 137.982 47.2418 137.001 47.6641L144.136 55.5706C144.304 55.4957 144.475 55.4197 144.647 55.3467C145.673 54.9038 146.723 54.4879 147.74 54.0382L140.603 46.1288Z" fill="#FFECB3"/>
<path d="M147.745 54.0381C146.726 54.4869 145.677 54.9028 144.649 55.3477C144.479 55.4216 144.309 55.4956 144.14 55.5725L144.685 56.9899C145.029 56.8293 145.379 56.6735 145.731 56.5216C146.578 56.1556 147.442 55.8089 148.289 55.4478L147.745 54.0381V54.0381Z" fill="#FFECB3"/>
<path opacity="0.5" d="M147.745 54.0381C146.726 54.4869 145.677 54.9028 144.649 55.3477C144.479 55.4216 144.309 55.4956 144.14 55.5725L144.685 56.9899C145.029 56.8293 145.379 56.6735 145.731 56.5216C146.578 56.1556 147.442 55.8089 148.289 55.4478L147.745 54.0381V54.0381Z" fill="#FFB74D"/>
<path opacity="0.2" d="M147.029 41.6277L153.687 49.0061L153.689 49.0071C153.69 49.01 153.694 49.0119 153.695 49.0148L154.578 49.9929L154.577 49.9948C153.084 52.9798 150.091 54.2197 146.926 55.5345C146.465 55.7251 145.989 55.9235 145.523 56.1237C143.072 57.1823 140.335 58.5389 138.794 61.2679L138.201 60.6103L137.958 60.3419L137.775 60.1392L131.259 52.9211L131.261 52.9172C132.765 49.8932 135.801 48.6269 139.015 47.2855C139.45 47.1029 139.901 46.9153 140.343 46.7259C142.793 45.6645 145.531 44.3107 147.029 41.6277V41.6277ZM147.205 41.1963C147.004 41.1063 146.747 41.1702 146.638 41.3681C145.277 43.8608 142.767 45.1955 140.138 46.3319C136.521 47.8946 132.622 49.1278 130.827 52.7375C130.744 52.8721 130.754 53.0459 130.868 53.1743L130.87 53.1752C133.191 55.7476 135.513 58.3197 137.834 60.8915L137.836 60.8945C138.087 61.1715 138.304 61.4139 138.475 61.6041C138.515 61.6485 138.565 61.6832 138.617 61.7061C138.815 61.7951 139.074 61.7342 139.183 61.5363C140.584 59.0035 143.093 57.661 145.728 56.5226C149.34 54.96 153.212 53.7706 155.012 50.1774C155.095 50.0428 155.085 49.8691 154.97 49.7426C154.968 49.7416 154.966 49.7407 154.967 49.7387L154.066 48.7404L154.053 48.7249L147.352 41.2983C147.307 41.2539 147.259 41.2202 147.205 41.1963V41.1963Z" fill="#424242"/>
<path d="M156.179 60.0993C156.919 59.1532 155.494 57.9466 154.703 57.641C152.703 56.8598 149.731 57.0632 148.184 54.924C147.283 53.6789 146.032 55.6328 146.032 55.6328C145.643 56.2521 145.208 57.4148 145.659 58.1199C146.108 58.824 147.405 59.3612 147.997 58.5035C147.888 59.4493 148.458 60.7519 149.663 60.9042C150.199 60.9841 150.791 60.5936 150.852 60.1464C151.183 60.9261 152.493 61.8731 153.259 61.5407C154.108 61.1223 153.386 60.1606 153.156 59.6124C153.879 59.999 155.464 60.9335 156.179 60.0993V60.0993Z" fill="#CFD8DC"/>
<path opacity="0.2" d="M154.588 58.0711C155.106 58.3027 155.749 58.857 155.884 59.3504C155.937 59.5385 155.909 59.6931 155.799 59.8396C155.573 60.0917 155.074 60.0474 154.315 59.7076C154.028 59.5794 153.757 59.4316 153.539 59.3146L153.399 59.2397C153.388 59.235 153.379 59.2282 153.368 59.2234C153.199 59.1478 152.996 59.1706 152.851 59.2822C152.696 59.4018 152.641 59.5974 152.713 59.7698C152.76 59.8802 152.82 59.9993 152.884 60.1222C153.266 60.8666 153.245 61.0484 153.047 61.1556C152.919 61.205 152.697 61.1686 152.452 61.0585C151.968 60.8422 151.462 60.3735 151.299 59.9909C151.254 59.8863 151.168 59.8043 151.066 59.7584C150.997 59.7284 150.922 59.7136 150.846 59.7152C150.77 59.7169 150.696 59.7349 150.629 59.7679C150.563 59.8009 150.505 59.8478 150.462 59.9049C150.42 59.9619 150.392 60.0275 150.382 60.0961C150.37 60.1826 150.292 60.2832 150.179 60.3607C150.044 60.4529 149.877 60.4967 149.744 60.4782C149.74 60.4763 149.737 60.4773 149.731 60.4773C149.612 60.4626 149.497 60.4303 149.39 60.3824C148.729 60.0867 148.399 59.2011 148.475 58.5528C148.485 58.4643 148.465 58.3751 148.417 58.2973C148.37 58.2195 148.298 58.1568 148.21 58.1174C148.193 58.1098 148.176 58.1021 148.155 58.0974C147.946 58.0308 147.715 58.1062 147.597 58.276C147.361 58.6155 146.97 58.5327 146.686 58.4054C146.429 58.2905 146.201 58.1036 146.075 57.9044C145.775 57.4363 146.044 56.4972 146.447 55.8573C146.739 55.4047 147.307 54.8463 147.572 54.965C147.619 54.986 147.694 55.0389 147.789 55.1685C148.282 55.8509 148.94 56.3681 149.802 56.7538C150.676 57.1453 151.62 57.3401 152.532 57.5282C153.255 57.6779 153.941 57.82 154.522 58.0463C154.541 58.0501 154.563 58.0596 154.588 58.0711V58.0711ZM154.798 57.6812C154.766 57.6669 154.736 57.6535 154.705 57.642C153.339 57.1081 151.519 57.0338 150.009 56.3581C149.31 56.0451 148.676 55.6016 148.187 54.923C148.057 54.7442 147.921 54.6324 147.782 54.5702C146.953 54.1988 146.034 55.6337 146.034 55.6337C145.645 56.2531 145.21 57.4157 145.661 58.1208C145.836 58.3926 146.137 58.6412 146.475 58.7924C147.009 59.0317 147.637 59.0294 147.999 58.5045C147.907 59.3122 148.31 60.3809 149.179 60.7695C149.326 60.8355 149.489 60.882 149.665 60.9051C150.201 60.9851 150.793 60.5946 150.854 60.1474C151.06 60.6316 151.645 61.1814 152.239 61.4475C152.603 61.6102 152.97 61.6679 153.259 61.5407C154.108 61.1223 153.386 60.1606 153.156 59.6124C153.397 59.7419 153.733 59.931 154.103 60.0966C154.838 60.4258 155.702 60.6551 156.179 60.0993C156.892 59.1893 155.6 58.0401 154.798 57.6812V57.6812Z" fill="#424242"/>
</g>
<g clip-path="url(#clip3)">
<path d="M147.345 28.1716C146.721 28.6332 145.284 29.2614 145.916 30.1981C146.517 30.991 148.578 30.7095 149.469 30.0582C149.229 30.5754 149.603 31.3339 150.238 31.5522C151.643 32.0713 153.147 30.9872 153.677 29.9031C153.731 31.1672 155.5 31.3205 156.467 30.8148C157.433 30.3092 157.759 28.8056 157.763 27.9168C157.763 27.9168 157.746 25.0935 155.923 25.9287C152.79 27.3633 149.717 25.4536 147.021 25.1644C145.958 25.0457 143.595 25.5417 143.746 26.9821C143.948 28.2884 146.301 28.1773 147.345 28.1716V28.1716Z" fill="#CFD8DC"/>
<path opacity="0.2" d="M144.588 26.3251C145.126 25.8348 146.324 25.6318 146.948 25.6988C147.729 25.7831 148.563 26.0187 149.45 26.2677C151.494 26.8442 153.811 27.4974 156.185 26.4094C156.402 26.3117 156.559 26.2868 156.658 26.3424C156.981 26.5224 157.162 27.3729 157.166 27.913C157.164 28.6926 156.897 29.725 156.389 30.1885C156.32 30.2517 156.246 30.3034 156.173 30.3436C155.719 30.5811 155.021 30.608 154.616 30.403C154.391 30.29 154.284 30.1234 154.271 29.8782C154.261 29.6273 154.061 29.4147 153.788 29.3687C153.656 29.3456 153.519 29.3638 153.4 29.4205C153.28 29.4772 153.185 29.5689 153.13 29.6809C152.998 29.951 152.784 30.2306 152.525 30.4662C152.28 30.6903 151.399 31.3971 150.458 31.0485C150.452 31.0466 150.45 31.0447 150.443 31.0427C150.286 30.9872 150.135 30.8455 150.051 30.6692C149.981 30.5218 149.967 30.3666 150.013 30.267C150.064 30.1558 150.073 30.0323 150.039 29.9158C150.005 29.7993 149.929 29.6965 149.824 29.6234C149.605 29.474 149.307 29.4779 149.093 29.6349C148.614 29.9874 147.635 30.2096 146.956 30.1195C146.693 30.0831 146.494 30.0046 146.408 29.8993C146.332 29.7882 146.273 29.6656 146.59 29.3764C146.784 29.2001 147.053 29.0278 147.29 28.8764C147.443 28.7788 147.588 28.6849 147.717 28.591C147.733 28.5796 147.748 28.5661 147.763 28.5527C147.925 28.4053 147.979 28.1869 147.901 27.9858C147.815 27.7693 147.59 27.6257 147.338 27.6257L147.135 27.6276C146.267 27.6372 144.466 27.6583 144.334 26.9132C144.315 26.6891 144.395 26.5014 144.588 26.3251V26.3251ZM144.168 25.9421C143.874 26.2102 143.7 26.5531 143.744 26.9802C143.948 28.2884 146.296 28.1773 147.343 28.1697C147.034 28.3976 146.53 28.6657 146.17 28.9933C145.803 29.3285 145.593 29.723 145.912 30.1981C146.513 30.991 148.574 30.7095 149.464 30.0582C149.225 30.5754 149.599 31.3339 150.233 31.5522C151.208 31.9123 152.233 31.4986 152.946 30.8493C153.259 30.5639 153.511 30.2345 153.673 29.9031C153.727 31.1672 155.496 31.3205 156.462 30.8148C156.589 30.7497 156.7 30.6673 156.805 30.5716C157.509 29.9299 157.755 28.6906 157.757 27.9149C157.757 27.9149 157.74 25.0916 155.916 25.9267C152.784 27.3614 149.71 25.4517 147.015 25.1625C146.269 25.0801 144.872 25.3004 144.168 25.9421V25.9421Z" fill="#424242"/>
<path d="M153.292 16.3632L153.313 16.3556Z" fill="url(#paint6_linear)"/>
<path d="M168.799 25.4671C168.221 20.849 168.246 16.0721 164.04 12.6703L164.015 12.678L151.7 16.8957C151.343 17.0183 151.235 17.4377 151.504 17.6867C154.183 20.1557 154.899 23.3946 155.311 26.6814C155.876 31.2037 155.902 35.8964 159.851 39.2828C159.992 39.4264 160.221 39.4858 160.433 39.4149L160.435 39.413C164.701 37.9521 168.966 36.4907 173.232 35.0287L173.236 35.0287C170.024 32.4372 169.24 28.9914 168.799 25.4671Z" fill="url(#paint7_linear)"/>
<path d="M156.173 16.8363L162.003 14.8385C162.298 15.3087 162.75 15.6803 163.294 15.8988C163.838 16.1174 164.444 16.1714 165.024 16.0529C166.473 18.5046 166.793 21.4007 167.101 24.2029L167.103 24.2316C167.164 24.7737 167.225 25.3349 167.295 25.8846C167.578 28.162 168.017 30.5543 169.259 32.6823C169.11 32.7723 168.975 32.8758 168.847 32.9926C168.183 33.5979 167.906 34.4636 168.091 35.2873L162.261 37.285C161.889 36.6893 161.263 36.2526 160.519 36.0841C160.488 36.0783 160.454 36.0707 160.423 36.0649L160.395 36.0592L160.288 36.0419C160.248 36.0362 160.206 36.0323 160.166 36.0266C160.129 36.0228 160.086 36.0189 160.034 36.017C159.998 36.0151 159.965 36.0113 159.931 36.0113C159.866 36.0094 159.801 36.0113 159.736 36.0132C159.704 36.0151 159.673 36.017 159.626 36.0208C159.572 36.0247 159.519 36.0304 159.467 36.0362C159.433 36.04 159.402 36.0457 159.366 36.0515C159.315 36.0592 159.263 36.0687 159.2 36.0841C159.173 36.0898 159.145 36.0956 159.12 36.1032C159.116 36.1032 159.112 36.107 159.107 36.107C157.666 33.6592 157.347 30.7708 157.038 27.9724L157.036 27.9436C156.975 27.4016 156.914 26.8404 156.845 26.2907C156.561 24.0248 156.126 21.6439 154.887 19.514C155.082 19.4087 155.261 19.2803 155.423 19.1328C156.078 18.5199 156.355 17.6542 156.173 16.8363V16.8363ZM155.643 16.5911C155.801 16.9736 155.835 17.3895 155.74 17.7891C155.646 18.1886 155.427 18.5548 155.11 18.8436C154.916 19.0198 154.685 19.1692 154.42 19.2765L154.423 19.2784C154.376 19.2976 154.33 19.3167 154.282 19.334L154.284 19.3397C155.628 21.4581 156.103 23.8754 156.408 26.329C156.477 26.8863 156.54 27.4456 156.599 28.0049C156.929 31.0064 157.265 34.0059 158.891 36.5725L158.895 36.5878C158.897 36.5859 158.897 36.5859 158.902 36.5859C158.944 36.5706 158.988 36.5533 159.032 36.5361C159.04 36.5323 159.049 36.5323 159.057 36.5284C159.116 36.5093 159.173 36.492 159.231 36.4767C159.257 36.4691 159.282 36.4652 159.309 36.4595C159.353 36.4499 159.395 36.4422 159.437 36.4346C159.465 36.4288 159.494 36.425 159.521 36.4231C159.565 36.4173 159.612 36.4135 159.658 36.4097C159.689 36.4078 159.719 36.4039 159.75 36.402C159.807 36.4001 159.862 36.4001 159.916 36.4001C159.95 36.4001 159.981 36.402 160.015 36.4058C160.049 36.4097 160.082 36.4097 160.116 36.4135C160.15 36.4173 160.185 36.4231 160.219 36.4269L160.313 36.4442C160.347 36.4518 160.381 36.4556 160.414 36.4633C160.782 36.5457 161.122 36.7086 161.405 36.9379C161.688 37.1672 161.905 37.456 162.038 37.7792L168.622 35.5228C168.465 35.1399 168.431 34.7236 168.526 34.3237C168.621 33.9239 168.841 33.5575 169.158 33.2684C169.353 33.0903 169.587 32.9428 169.851 32.8317L169.849 32.8183L169.847 32.8164C168.509 30.6999 168.038 28.2865 167.732 25.8348C167.662 25.2774 167.599 24.7181 167.54 24.1588C167.211 21.1574 166.874 18.1579 165.248 15.5913C165.246 15.5855 165.242 15.5817 165.24 15.576C164.034 15.9897 162.687 15.4323 162.234 14.3329L155.643 16.5911V16.5911Z" fill="#2E7D32"/>
<path d="M164.005 30.6003C163.755 30.6865 163.574 30.8397 163.467 31.06C163.36 31.2803 163.316 31.604 163.334 32.0349C163.374 32.6268 163.303 33.0941 163.118 33.4351C162.933 33.776 162.62 34.0231 162.179 34.1725C161.729 34.3257 161.313 34.3334 160.929 34.1936C160.545 34.0538 160.238 33.7856 160.011 33.3872L159.303 33.6304C159.252 33.6476 159.196 33.6458 159.147 33.6253C159.098 33.6049 159.059 33.5675 159.04 33.5213L158.952 33.3106C158.914 33.2148 158.965 33.1075 159.072 33.0712L159.784 32.8279C159.675 32.3874 159.731 31.9947 159.96 31.6519C160.164 31.3435 160.5 31.0983 160.971 30.9106C161.061 30.8742 161.168 30.9183 161.204 31.0044L161.362 31.3894C161.377 31.4287 161.376 31.4718 161.358 31.5102C161.34 31.5485 161.307 31.5793 161.265 31.5963C160.96 31.7246 160.742 31.8932 160.605 32.102C160.446 32.3471 160.425 32.6115 160.542 32.8949C160.666 33.1918 160.843 33.391 161.076 33.4887C161.309 33.5864 161.578 33.5864 161.876 33.483C162.158 33.3872 162.345 33.2282 162.442 33.006C162.538 32.7838 162.576 32.4582 162.557 32.0311C162.536 31.6059 162.563 31.2554 162.639 30.9872C162.715 30.7191 162.839 30.495 163.013 30.3207C163.187 30.1464 163.419 30.0084 163.708 29.9088C164.171 29.7518 164.595 29.748 164.982 29.905C165.368 30.0621 165.681 30.359 165.921 30.7995L166.513 30.5965C166.618 30.562 166.736 30.608 166.776 30.7056L166.86 30.9125C166.898 31.0083 166.847 31.1155 166.74 31.1519L166.148 31.355C166.293 31.8357 166.261 32.259 166.053 32.6325C165.868 32.962 165.551 33.2206 165.101 33.4044C165.009 33.4427 164.904 33.3968 164.866 33.3125L164.704 32.9237C164.673 32.8451 164.708 32.7551 164.79 32.7226C165.089 32.5961 165.297 32.4218 165.408 32.2054C165.538 31.9526 165.534 31.6614 165.398 31.3262C165.263 31.0006 165.072 30.7727 164.822 30.6444C164.576 30.5122 164.301 30.4988 164.005 30.6003V30.6003Z" fill="white"/>
<path d="M166.093 30.7421L166.15 31.3569L160.03 33.3815L159.824 33.4504L159.784 32.8279L165.916 30.8033L166.093 30.7421Z" fill="white"/>
<path opacity="0.5" d="M164.036 24.5841C165.613 23.1465 165.613 20.8156 164.036 19.378C162.459 17.9404 159.903 17.9404 158.326 19.378C156.749 20.8156 156.749 23.1465 158.326 24.5841C159.903 26.0217 162.459 26.0217 164.036 24.5841Z" fill="#2E7D32"/>
<path d="M155.311 26.6852C155.08 24.835 154.752 23 154.034 21.3107C154.75 22.9981 155.076 24.8273 155.309 26.6757C155.67 29.5641 155.811 32.5234 156.891 35.1666C155.809 32.5253 155.673 29.5698 155.311 26.6852V26.6852Z" fill="#2E7D32"/>
<path d="M164.005 12.6914L152.843 16.5164L163.977 12.701L164.005 12.6914Z" fill="#2E7D32"/>
<path d="M170.755 24.7756C170.19 20.261 170.211 15.6143 166.284 12.2298C166.143 12.0861 165.914 12.0267 165.704 12.0995C165.702 12.1014 165.7 12.1034 165.698 12.1014L164.042 12.6684C168.246 16.0682 168.223 20.8471 168.801 25.4651C169.24 28.9875 170.026 32.4352 173.234 35.0306C173.694 34.8716 174.095 34.7356 174.41 34.6284C174.767 34.5058 174.877 34.0882 174.608 33.8392C171.891 31.3128 171.167 28.0701 170.755 24.7756V24.7756Z" fill="#2E7D32"/>
<path d="M155.236 26.103C155.265 26.306 155.288 26.4956 155.313 26.6948C155.475 27.9915 155.62 29.3725 155.771 30.5984L168.883 26.1068C168.853 25.8961 168.824 25.6816 168.799 25.4671C168.639 24.1837 168.524 22.887 168.351 21.6114L155.236 26.103Z" fill="#FFECB3"/>
<path d="M168.353 21.6056C168.524 22.8832 168.639 24.1799 168.801 25.4651C168.828 25.6777 168.856 25.8903 168.887 26.103L170.942 26.0876C170.872 25.6528 170.811 25.2142 170.757 24.7737C170.625 23.7145 170.524 22.6457 170.398 21.5884L168.353 21.6056V21.6056Z" fill="#FFECB3"/>
<path opacity="0.5" d="M168.353 21.6056C168.524 22.8832 168.639 24.1799 168.801 25.4651C168.828 25.6777 168.856 25.8903 168.887 26.103L170.942 26.0876C170.872 25.6528 170.811 25.2142 170.757 24.7737C170.625 23.7145 170.524 22.6457 170.398 21.5884L168.353 21.6056V21.6056Z" fill="#FFB74D"/>
<path opacity="0.2" d="M151.998 17.3745L164.234 13.1836L164.236 13.1817C164.24 13.1817 164.244 13.1779 164.248 13.1779L165.87 12.6224L165.872 12.6244C169.135 15.4342 169.534 19.1539 169.961 23.09C170.022 23.6628 170.087 24.2546 170.158 24.8369C170.54 27.9015 171.194 31.3933 174.106 34.1514L173.015 34.5249L172.57 34.6782L172.234 34.7931L160.263 38.8959L160.259 38.892C156.95 36.0553 156.534 32.2782 156.093 28.2788C156.032 27.7368 155.971 27.1756 155.904 26.6239C155.517 23.5593 154.868 20.0676 151.998 17.3745V17.3745ZM151.511 17.0106C151.313 17.1906 151.292 17.4933 151.504 17.6906C154.183 20.1595 154.899 23.3984 155.311 26.6852C155.876 31.2075 155.902 35.9002 159.851 39.2866C159.992 39.4303 160.221 39.4896 160.433 39.4188L160.435 39.4168C164.701 37.9559 168.966 36.4945 173.232 35.0325L173.236 35.0325C173.696 34.8735 174.097 34.7375 174.412 34.6303C174.486 34.6054 174.551 34.5652 174.601 34.5192C174.797 34.3411 174.822 34.0384 174.61 33.8411C171.896 31.3128 171.169 28.072 170.757 24.7775C170.19 20.261 170.211 15.6143 166.284 12.2298C166.143 12.0861 165.914 12.0267 165.704 12.0995C165.702 12.1014 165.7 12.1034 165.698 12.1014L164.042 12.6684L164.017 12.6761L151.702 16.8938C151.626 16.9244 151.563 16.9627 151.511 17.0106V17.0106Z" fill="#424242"/>
<path d="M179.599 14.9726C178.673 13.7947 176.536 14.8424 175.822 15.5702C174.005 17.4071 173.07 20.6882 169.677 21.4907C167.702 21.9581 169.727 24.0918 169.727 24.0918C170.372 24.7603 171.702 25.6969 172.797 25.4958C173.889 25.2966 175.108 24.1167 174.236 23.1341C175.417 23.6321 177.333 23.544 178.015 22.3086C178.335 21.7646 178.068 20.9697 177.513 20.7246C178.656 20.6824 180.41 19.6538 180.289 18.6962C180.089 17.614 178.553 18.0028 177.751 18.0296C178.543 17.4071 180.392 16.0778 179.599 14.9726V14.9726Z" fill="#CFD8DC"/>
<path opacity="0.2" d="M176.333 15.8671C176.841 15.4036 177.818 14.9343 178.511 14.9879C178.776 15.0071 178.965 15.099 179.11 15.2772C179.345 15.6219 179.087 16.141 178.341 16.821C178.06 17.0776 177.759 17.3094 177.52 17.4971L177.366 17.6178C177.356 17.6273 177.343 17.635 177.333 17.6446C177.167 17.7959 177.114 18.0238 177.2 18.2249C177.293 18.4395 177.524 18.5774 177.776 18.5697C177.938 18.564 178.116 18.5467 178.301 18.5276C179.419 18.4165 179.646 18.5122 179.705 18.7689C179.717 18.926 179.581 19.1501 179.339 19.3703C178.864 19.8032 178.053 20.1595 177.492 20.1806C177.339 20.1863 177.198 20.2457 177.097 20.3376C177.031 20.3991 176.981 20.4741 176.953 20.5564C176.925 20.6387 176.918 20.726 176.934 20.8111C176.95 20.8962 176.987 20.9766 177.044 21.0458C177.1 21.115 177.174 21.171 177.259 21.2091C177.366 21.257 177.465 21.3815 177.52 21.5347C177.585 21.7167 177.574 21.914 177.497 22.05C177.492 22.0538 177.492 22.0576 177.49 22.0634C177.423 22.186 177.335 22.2971 177.23 22.3928C176.581 22.9847 175.301 22.9828 174.492 22.6399C174.382 22.5936 174.258 22.5793 174.138 22.5988C174.019 22.6183 173.908 22.6708 173.822 22.7491C173.805 22.7644 173.788 22.7797 173.774 22.8008C173.604 22.9981 173.608 23.2777 173.78 23.4731C174.125 23.8639 173.86 24.2508 173.58 24.5055C173.328 24.7354 172.994 24.9058 172.686 24.9614C171.959 25.0955 170.851 24.427 170.185 23.7355C169.717 23.2394 169.223 22.4024 169.484 22.1649C169.53 22.1228 169.629 22.0634 169.835 22.0136C170.917 21.7588 171.851 21.2589 172.698 20.487C173.557 19.7036 174.19 18.767 174.801 17.861C175.286 17.1427 175.746 16.4628 176.274 15.9284C176.286 15.9092 176.307 15.8901 176.333 15.8671V15.8671ZM175.912 15.484C175.881 15.5127 175.852 15.5396 175.824 15.5683C174.583 16.8229 173.753 18.7517 172.27 20.1039C171.583 20.7303 170.753 21.234 169.677 21.4869C169.393 21.5539 169.194 21.6554 169.057 21.7799C168.242 22.5231 169.73 24.0899 169.73 24.0899C170.375 24.7583 171.704 25.695 172.799 25.4939C173.221 25.4153 173.665 25.1912 173.996 24.8886C174.522 24.4097 174.772 23.7336 174.238 23.1322C175.246 23.5574 176.793 23.5536 177.646 22.7759C177.791 22.6438 177.917 22.4867 178.018 22.3066C178.337 21.7627 178.07 20.9678 177.515 20.7226C178.226 20.6958 179.173 20.2878 179.757 19.7553C180.114 19.4297 180.337 19.0581 180.289 18.6961C180.089 17.6139 178.553 18.0028 177.751 18.0296C178.015 17.8227 178.396 17.5373 178.759 17.206C179.482 16.5471 180.127 15.71 179.6 14.9726C178.709 13.8387 176.7 14.7657 175.912 15.484V15.484Z" fill="#424242"/>
</g>
<defs>
<linearGradient id="paint0_linear" x1="34.6912" y1="17.0162" x2="34.6912" y2="17.0162" gradientUnits="userSpaceOnUse">
<stop stop-color="#43A047"/>
<stop offset="0.999" stop-color="#66BB6A"/>
</linearGradient>
<linearGradient id="paint1_linear" x1="14.033" y1="36.3456" x2="36.274" y2="19.2808" gradientUnits="userSpaceOnUse">
<stop stop-color="#43A047"/>
<stop offset="0.999" stop-color="#66BB6A"/>
</linearGradient>
<linearGradient id="paint2_linear" x1="46.6532" y1="47.924" x2="46.6532" y2="47.924" gradientUnits="userSpaceOnUse">
<stop stop-color="#43A047"/>
<stop offset="0.999" stop-color="#66BB6A"/>
</linearGradient>
<linearGradient id="paint3_linear" x1="44.7247" y1="63.0616" x2="48.9393" y2="48.6618" gradientUnits="userSpaceOnUse">
<stop stop-color="#43A047"/>
<stop offset="0.999" stop-color="#66BB6A"/>
</linearGradient>
<linearGradient id="paint4_linear" x1="148.212" y1="42.2674" x2="148.212" y2="42.2674" gradientUnits="userSpaceOnUse">
<stop stop-color="#43A047"/>
<stop offset="0.999" stop-color="#66BB6A"/>
</linearGradient>
<linearGradient id="paint5_linear" x1="134.271" y1="56.941" x2="149.187" y2="43.4795" gradientUnits="userSpaceOnUse">
<stop stop-color="#43A047"/>
<stop offset="0.999" stop-color="#66BB6A"/>
</linearGradient>
<linearGradient id="paint6_linear" x1="153.303" y1="16.3599" x2="153.303" y2="16.3599" gradientUnits="userSpaceOnUse">
<stop stop-color="#43A047"/>
<stop offset="0.999" stop-color="#66BB6A"/>
</linearGradient>
<linearGradient id="paint7_linear" x1="166.681" y1="37.2751" x2="158.897" y2="14.5545" gradientUnits="userSpaceOnUse">
<stop stop-color="#43A047"/>
<stop offset="0.999" stop-color="#66BB6A"/>
</linearGradient>
<clipPath id="clip0">
<rect width="39.6246" height="39.6246" transform="matrix(0.888956 0.457992 -0.537979 0.842958 21.328 4.88628)" fill="white"/>
</clipPath>
<clipPath id="clip1">
<rect width="22.9666" height="21.9192" transform="matrix(0.992802 -0.119766 0.143626 0.989632 35.9999 46.6009)" fill="white"/>
</clipPath>
<clipPath id="clip2">
<rect width="29.9878" height="28.3424" transform="matrix(0.91275 0.408518 -0.474093 0.880475 137.458 33.7947)" fill="white"/>
</clipPath>
<clipPath id="clip3">
<rect width="36.3899" height="36.3899" transform="matrix(0.738977 -0.673731 0.738977 0.673731 138 24.517)" fill="white"/>
</clipPath>
</defs>
</svg>
