<svg width="218" height="109" viewBox="0 0 218 109" fill="none" xmlns="http://www.w3.org/2000/svg">
<path d="M87.6974 16.1956C84.1076 16.1926 81.195 19.1004 81.192 22.6902C81.189 26.2801 84.0967 29.1926 87.6866 29.1956C91.2764 29.1986 94.189 26.2909 94.192 22.7011C94.195 19.1112 91.2873 16.1986 87.6974 16.1956Z" fill="#3F51B5"/>
<path d="M70.3677 11.8478C66.7778 11.8448 63.8653 14.7525 63.8623 18.3424C63.8593 21.9322 66.767 24.8448 70.3568 24.8478C73.9467 24.8508 76.8593 21.9431 76.8623 18.3532C76.8653 14.7634 73.9575 11.8508 70.3677 11.8478Z" fill="#3F51B5"/>
<path d="M53.0217 27C49.4319 26.9971 46.5193 29.9048 46.5163 33.4946C46.5133 37.0845 49.421 39.997 53.0109 40C56.6007 40.003 59.5133 37.0953 59.5163 33.5055C59.5193 29.9156 56.6116 27.003 53.0217 27Z" fill="#3F51B5"/>
<path d="M35.692 22.6522C32.1021 22.6492 29.1896 25.557 29.1866 29.1468C29.1836 32.7367 32.0913 35.6492 35.6812 35.6522C39.271 35.6552 42.1836 32.7475 42.1866 29.1577C42.1896 25.5678 39.2818 22.6552 35.692 22.6522Z" fill="#3F51B5"/>
<path d="M18.3515 31.3045C14.7616 31.3015 11.849 34.2092 11.846 37.799C11.843 41.3889 14.7508 44.3015 18.3406 44.3045C21.9305 44.3074 24.843 41.3997 24.846 37.8099C24.849 34.22 21.9413 31.3075 18.3515 31.3045Z" fill="#3F51B5"/>
<path d="M20.2928 41.706L36.1161 33.7026L54.0956 38.2676L71.4416 23.1154L86.6052 26.8114L88.7787 18.5798L69.2829 13.5802L51.9369 28.7324L35.257 24.6019L16.3993 33.9028L20.2928 41.706Z" fill="#3F51B5"/>
<path d="M87.6649 55.1956C84.075 55.1926 81.1624 58.1003 81.1594 61.6902C81.1565 65.28 84.0642 68.1926 87.654 68.1956C91.2439 68.1986 94.1564 65.2909 94.1594 61.701C94.1624 58.1112 91.2547 55.1986 87.6649 55.1956Z" fill="#00BCD4"/>
<path d="M70.3352 50.8478C66.7453 50.8448 63.8327 53.7526 63.8297 57.3424C63.8267 60.9322 66.7345 63.8448 70.3243 63.8478C73.9142 63.8508 76.8267 60.9431 76.8297 57.3532C76.8327 53.7634 73.925 50.8508 70.3352 50.8478Z" fill="#00BCD4"/>
<path d="M52.9892 66C49.3993 65.997 46.4868 68.9047 46.4838 72.4946C46.4808 76.0844 49.3885 78.997 52.9783 79C56.5682 79.003 59.4808 76.0953 59.4838 72.5054C59.4867 68.9156 56.579 66.003 52.9892 66Z" fill="#00BCD4"/>
<path d="M35.6649 55.1522C32.075 55.1492 29.1625 58.057 29.1595 61.6468C29.1565 65.2367 32.0642 68.1492 35.654 68.1522C39.2439 68.1552 42.1565 65.2475 42.1595 61.6577C42.1625 58.0678 39.2547 55.1552 35.6649 55.1522Z" fill="#00BCD4"/>
<path d="M18.3099 81.1378C14.72 81.1348 11.8074 84.0425 11.8045 87.6323C11.8015 91.2222 14.7092 94.1348 18.299 94.1378C21.8889 94.1408 24.8015 91.233 24.8044 87.6432C24.8074 84.0533 21.8997 81.1408 18.3099 81.1378Z" fill="#00BCD4"/>
<path d="M21.9858 90.0242C26.5416 83.0946 33.4836 72.7004 36.9546 67.5033C39.5533 69.0221 43.6676 71.8422 50.814 76.1815L53.6292 77.9172L71.6258 62.1156L86.7894 65.8115L88.9631 57.3634L69.4672 52.3638L52.7718 66.8665C47.1414 63.3951 40.2116 59.056 38.6959 57.9714L37.6134 56.8872L35.6633 57.1022C33.2798 57.3169 33.2798 57.3169 15.0566 85.0351L21.9858 90.0242V90.0242Z" fill="#00BCD4"/>
<path d="M165 72.4999C155.925 72.4999 148.5 65.0749 148.5 55.9999C148.5 46.9249 155.925 39.4999 165 39.4999V3.74994C136.125 3.74994 112.75 27.1249 112.75 55.9999C112.75 84.8749 136.125 108.25 165 108.25C177.1 108.25 188.375 104.125 197.45 96.9749L175.45 68.9249C172.425 71.1249 168.85 72.4999 165 72.4999V72.4999Z" fill="#00BCD4"/>
<path d="M181.5 55.9999H217.25C217.25 27.1249 193.875 3.74994 165 3.74994V39.4999C174.075 39.4999 181.5 46.9249 181.5 55.9999Z" fill="#448AFF"/>
<path d="M217.25 56H181.5C181.5 61.225 179.025 65.9 175.175 68.925L197.175 96.975C209.55 87.35 217.25 72.5 217.25 56Z" fill="#3F51B5"/>
</svg>
