<svg width="198" height="79" viewBox="0 0 198 79" fill="none" xmlns="http://www.w3.org/2000/svg">
<g clip-path="url(#clip0)">
<path fill-rule="evenodd" clip-rule="evenodd" d="M117.8 77.9994L101.96 11.9999H94.0399L78.2 77.9994H86.7799L97.9998 29.2166L109.22 77.9994H117.8Z" fill="#FFECB3"/>
<path d="M65.5001 19.0999H130.5V59.0195H65.5001V19.0999Z" fill="white" stroke="#DCDCDC"/>
<path d="M71.4149 37.7642L80.2921 33.2919L83.9919 35.624L95.5379 30.1796L101.069 34.2686L111.293 29.1178L114.361 31.3865L124.585 26.2357" stroke="#449848" stroke-width="2" stroke-miterlimit="10" stroke-linecap="round" stroke-linejoin="round"/>
<path fill-rule="evenodd" clip-rule="evenodd" d="M113.365 59.5196H104.969L105.273 60.8395H113.681L113.365 59.5196ZM82.3184 60.8395H90.7267L91.0303 59.5196H82.6352L82.3184 60.8395Z" fill="#FFECB3"/>
</g>
<g clip-path="url(#clip1)">
<path d="M22.6335 11.6142C22.1356 11.0006 21.4579 9.58742 20.4477 10.2093C19.5923 10.8002 19.896 12.8269 20.5985 13.7029C20.0407 13.4673 19.2225 13.8351 18.987 14.459C18.4271 15.8412 19.5965 17.3204 20.7658 17.8411C19.4023 17.8948 19.237 19.6343 19.7824 20.5847C20.3278 21.535 21.9496 21.8553 22.9083 21.8594C22.9083 21.8594 25.9535 21.8429 25.0528 20.0496C23.5053 16.9692 25.5651 13.9467 25.8771 11.296C26.0052 10.2506 25.4701 7.92636 23.9165 8.07511C22.5075 8.27345 22.6273 10.5874 22.6335 11.6142V11.6142Z" fill="#CFD8DC"/>
<path opacity="0.2" d="M24.6251 8.90358C25.154 9.43248 25.373 10.6101 25.3006 11.2237C25.2097 11.9922 24.9556 12.8124 24.687 13.6843C24.0652 15.6945 23.3607 17.9733 24.5342 20.3079C24.6395 20.5206 24.6664 20.6756 24.6065 20.7727C24.4123 21.0909 23.495 21.2685 22.9124 21.2727C22.0715 21.2706 20.9579 21.0082 20.458 20.5083C20.3898 20.4401 20.334 20.3678 20.2906 20.2955C20.0344 19.8492 20.0055 19.1633 20.2266 18.7646C20.3485 18.5435 20.5282 18.4381 20.7927 18.4257C21.0633 18.4154 21.2926 18.2191 21.3422 17.9506C21.3671 17.8206 21.3475 17.686 21.2863 17.5686C21.2252 17.4513 21.1262 17.358 21.0055 17.3039C20.7141 17.1737 20.4125 16.963 20.1584 16.7089C19.9167 16.4672 19.1543 15.6015 19.5303 14.676C19.5324 14.6698 19.5345 14.6677 19.5365 14.6615C19.5964 14.5065 19.7493 14.3578 19.9394 14.2752C20.0985 14.207 20.2658 14.1925 20.3733 14.238C20.4932 14.2882 20.6265 14.2972 20.7521 14.2636C20.8777 14.2299 20.9886 14.1555 21.0674 14.052C21.2286 13.8372 21.2244 13.5438 21.055 13.3331C20.6749 12.862 20.4352 11.8993 20.5323 11.232C20.5716 10.9737 20.6563 10.7774 20.7699 10.6927C20.8898 10.6184 21.022 10.5605 21.3339 10.8725C21.524 11.0625 21.71 11.327 21.8732 11.5604C21.9785 11.7113 22.0798 11.8538 22.181 11.9798C22.1934 11.9964 22.2079 12.0108 22.2223 12.0253C22.3814 12.1844 22.6169 12.2381 22.8339 12.1616C23.0673 12.0769 23.2223 11.8559 23.2223 11.608L23.2202 11.4076C23.2099 10.5543 23.1871 8.78375 23.9908 8.6536C24.2325 8.635 24.435 8.71351 24.6251 8.90358V8.90358ZM25.0383 8.49038C24.749 8.20114 24.3792 8.02967 23.9185 8.07305C22.5074 8.27345 22.6273 10.5832 22.6355 11.6121C22.3897 11.3084 22.1004 10.8126 21.7471 10.4593C21.3856 10.0977 20.96 9.89112 20.4476 10.2052C19.5923 10.796 19.896 12.8228 20.5985 13.6987C20.0406 13.4632 19.2225 13.831 18.987 14.4549C18.5986 15.4135 19.0448 16.4217 19.7452 17.1221C20.053 17.4299 20.4084 17.6778 20.7658 17.8369C19.4022 17.8906 19.237 19.6302 19.7824 20.5806C19.8526 20.7045 19.9415 20.814 20.0448 20.9173C20.7369 21.6094 22.0736 21.8511 22.9103 21.8532C22.9103 21.8532 25.9556 21.8367 25.0548 20.0434C23.5074 16.963 25.5672 13.9405 25.8791 11.2898C25.968 10.5564 25.7304 9.18249 25.0383 8.49038V8.49038Z" fill="#424242"/>
<path d="M35.3703 17.463L35.3787 17.4841Z" fill="url(#paint0_linear)"/>
<path d="M25.5506 32.712C30.5317 32.1439 35.6843 32.1687 39.3535 28.0326L39.3452 28.0078L34.7959 15.8969C34.6637 15.5457 34.2113 15.4403 33.9427 15.7048C31.2796 18.3389 27.786 19.0434 24.2408 19.4484C19.363 20.0041 14.3013 20.0289 10.6486 23.913C10.4937 24.0514 10.4296 24.2766 10.5061 24.4853L10.5081 24.4873C12.0839 28.6822 13.6603 32.8768 15.2372 37.0713L15.2372 37.0754C18.0325 33.9165 21.7492 33.1459 25.5506 32.712Z" fill="url(#paint1_linear)"/>
<path d="M34.86 20.2954L37.0148 26.0286C36.5077 26.3188 36.1069 26.7639 35.8712 27.2985C35.6355 27.8332 35.5772 28.4293 35.705 28.9995C33.0605 30.425 29.9367 30.739 26.9142 31.0427L26.8832 31.0448C26.2985 31.1047 25.6932 31.1646 25.1003 31.2328C22.6438 31.5117 20.0634 31.9435 17.7681 33.1645C17.671 33.0178 17.5594 32.8856 17.4334 32.7596C16.7805 32.1067 15.8467 31.834 14.9583 32.0158L12.8035 26.2827C13.446 25.917 13.9171 25.3013 14.0989 24.57C14.1051 24.539 14.1133 24.5059 14.1195 24.4749L14.1257 24.4481L14.1443 24.3427C14.1505 24.3035 14.1546 24.2621 14.1608 24.2229C14.165 24.1857 14.1691 24.1444 14.1712 24.0927C14.1732 24.0576 14.1774 24.0246 14.1774 23.9915C14.1794 23.9275 14.1774 23.8634 14.1753 23.7994C14.1732 23.7684 14.1712 23.7374 14.167 23.6919C14.1629 23.6382 14.1567 23.5866 14.1505 23.5349C14.1464 23.5019 14.1402 23.4709 14.134 23.4357C14.1257 23.3862 14.1154 23.3345 14.0989 23.2725C14.0927 23.2457 14.0865 23.2188 14.0782 23.194C14.0782 23.1899 14.0741 23.1858 14.0741 23.1816C16.7144 21.7644 19.8299 21.4503 22.8483 21.1466L22.8793 21.1446C23.464 21.0846 24.0693 21.0247 24.6623 20.9566C27.1063 20.6776 29.6744 20.25 31.9717 19.0311C32.0854 19.2232 32.2238 19.3988 32.3829 19.5579C33.044 20.2025 33.9778 20.4752 34.86 20.2954V20.2954ZM35.1245 19.7748C34.7119 19.9303 34.2633 19.9636 33.8323 19.8705C33.4014 19.7774 33.0064 19.562 32.6948 19.25C32.5048 19.06 32.3436 18.8327 32.2279 18.5724L32.2259 18.5745C32.2052 18.529 32.1845 18.4836 32.166 18.436L32.1598 18.4381C29.8748 19.7604 27.2675 20.2273 24.621 20.5268C24.0198 20.595 23.4165 20.657 22.8132 20.7148C19.5758 21.0392 16.3405 21.3698 13.572 22.9688L13.5555 22.973C13.5576 22.975 13.5576 22.975 13.5576 22.9792C13.5741 23.0205 13.5927 23.0639 13.6113 23.1073C13.6154 23.1155 13.6154 23.1238 13.6196 23.132C13.6402 23.1899 13.6588 23.2457 13.6753 23.3035C13.6836 23.3283 13.6877 23.3531 13.6939 23.38C13.7043 23.4234 13.7125 23.4647 13.7208 23.506C13.727 23.5328 13.7311 23.5618 13.7332 23.5886C13.7394 23.632 13.7435 23.6775 13.7476 23.7229C13.7497 23.7539 13.7538 23.7828 13.7559 23.8138C13.758 23.8696 13.758 23.9233 13.758 23.977C13.758 24.0101 13.7559 24.0411 13.7518 24.0741C13.7476 24.1072 13.7476 24.1402 13.7435 24.1733C13.7394 24.2064 13.7332 24.2415 13.7291 24.2745L13.7105 24.3675C13.7022 24.4006 13.6981 24.4336 13.6898 24.4667C13.6009 24.8282 13.4252 25.1626 13.1778 25.4409C12.9305 25.7192 12.6191 25.933 12.2705 26.0637L14.7042 32.5385C15.1173 32.3834 15.5663 32.3505 15.9976 32.444C16.4288 32.5374 16.824 32.7531 17.1359 33.0653C17.328 33.2575 17.4871 33.4868 17.6069 33.7471L17.6214 33.745L17.6234 33.743C19.9064 32.4269 22.5095 31.9642 25.154 31.6625C25.7552 31.5943 26.3585 31.5324 26.9617 31.4745C30.1991 31.1502 33.4345 30.8196 36.2029 29.2205C36.2091 29.2185 36.2132 29.2143 36.2194 29.2123C35.7732 28.0264 36.3744 26.7021 37.5603 26.2558L35.1245 19.7748V19.7748Z" fill="#2E7D32"/>
<path d="M20.0138 27.9975C19.9208 27.7516 19.7556 27.5739 19.518 27.4686C19.2804 27.3632 18.9312 27.3198 18.4664 27.3384C17.828 27.3777 17.3239 27.3074 16.9561 27.1256C16.5884 26.9438 16.3219 26.636 16.1607 26.2021C15.9955 25.76 15.9872 25.3509 16.138 24.9728C16.2888 24.5948 16.5781 24.2931 17.0078 24.07L16.7454 23.3738C16.7269 23.3239 16.7288 23.2687 16.7509 23.2203C16.773 23.1719 16.8134 23.1342 16.8632 23.1155L17.0904 23.0287C17.1937 22.9916 17.3094 23.0411 17.3487 23.1465L17.6111 23.8469C18.0862 23.7394 18.5098 23.7952 18.8796 24.0204C19.2122 24.2208 19.4766 24.5514 19.6791 25.0142C19.7184 25.103 19.6708 25.2084 19.5779 25.2435L19.1626 25.3984C19.1203 25.4137 19.0738 25.4123 19.0324 25.3947C18.991 25.3771 18.9578 25.3445 18.9395 25.3034C18.8011 25.0038 18.6193 24.789 18.3941 24.6547C18.1296 24.4977 17.8445 24.477 17.5387 24.5927C17.2185 24.7146 17.0037 24.8881 16.8983 25.1175C16.7929 25.3468 16.7929 25.6112 16.9045 25.9046C17.0078 26.1814 17.1793 26.3653 17.4189 26.4604C17.6586 26.5554 18.0098 26.5926 18.4705 26.574C18.9292 26.5533 19.3072 26.5802 19.5965 26.6546C19.8857 26.7289 20.1274 26.8508 20.3154 27.0223C20.5034 27.1938 20.6522 27.421 20.7596 27.7062C20.929 28.1607 20.9332 28.578 20.7638 28.9581C20.5943 29.3383 20.2741 29.6461 19.7989 29.8816L20.0179 30.4642C20.0551 30.5675 20.0055 30.6832 19.9002 30.7225L19.677 30.8051C19.5737 30.8423 19.4581 30.7927 19.4188 30.6874L19.1998 30.1048C18.6812 30.2473 18.2247 30.2163 17.8218 30.0118C17.4664 29.83 17.1875 29.518 16.9892 29.0759C16.9479 28.985 16.9975 28.8817 17.0884 28.8445L17.5078 28.6854C17.5925 28.6544 17.6896 28.6896 17.7247 28.7701C17.861 29.0635 18.049 29.268 18.2825 29.3775C18.5552 29.5056 18.8692 29.5015 19.2308 29.3672C19.582 29.235 19.8279 29.047 19.9663 28.8011C20.1088 28.5594 20.1233 28.2888 20.0138 27.9975V27.9975Z" fill="white"/>
<path d="M19.8609 30.0511L19.1977 30.1068L17.014 24.0886L16.9396 23.8861L17.611 23.8469L19.7948 29.8775L19.8609 30.0511Z" fill="white"/>
<path opacity="0.5" d="M26.503 28.0285C28.0537 29.5791 30.5678 29.5791 32.1184 28.0285C33.6691 26.4778 33.6691 23.9637 32.1184 22.4131C30.5678 20.8625 28.0537 20.8624 26.503 22.4131C24.9524 23.9637 24.9524 26.4778 26.503 28.0285Z" fill="#2E7D32"/>
<path d="M24.2367 19.4484C26.2324 19.2211 28.2116 18.8988 30.0338 18.1923C28.2137 18.8968 26.2407 19.217 24.247 19.4463C21.1315 19.8017 17.9395 19.9401 15.0885 21.002C17.9375 19.938 21.1253 19.8037 24.2367 19.4484V19.4484Z" fill="#2E7D32"/>
<path d="M39.3308 27.9975L35.205 17.0208L39.3205 27.9706L39.3308 27.9975Z" fill="#2E7D32"/>
<path d="M26.2965 34.6355C31.166 34.0797 36.1781 34.1004 39.8287 30.2391C39.9836 30.1007 40.0477 29.8755 39.9692 29.6689C39.9671 29.6668 39.9651 29.6647 39.9671 29.6627L39.3556 28.0347C35.6885 32.1687 30.5338 32.146 25.5527 32.7141C21.7533 33.1459 18.0346 33.9186 15.2351 37.0734C15.4066 37.5258 15.5533 37.9204 15.669 38.2303C15.8012 38.5815 16.2516 38.689 16.5202 38.4245C19.2452 35.7532 22.743 35.0404 26.2965 34.6355V34.6355Z" fill="#2E7D32"/>
<path d="M24.8647 19.374C24.6457 19.4029 24.4412 19.4257 24.2263 19.4505C22.8277 19.6095 21.3381 19.7521 20.0159 19.9008L24.8606 32.7947C25.0879 32.7658 25.3193 32.7368 25.5506 32.712C26.9349 32.555 28.3335 32.4414 29.7095 32.272L24.8647 19.374Z" fill="#FFECB3"/>
<path d="M29.7157 32.2741C28.3377 32.4414 26.939 32.555 25.5527 32.7141C25.3234 32.741 25.0941 32.7678 24.8648 32.7988L24.8813 34.8194C25.3503 34.7512 25.8234 34.6913 26.2986 34.6375C27.441 34.5074 28.5939 34.4082 29.7343 34.2843L29.7157 32.2741V32.2741Z" fill="#FFECB3"/>
<path opacity="0.5" d="M29.7157 32.2741C28.3377 32.4414 26.939 32.555 25.5527 32.7141C25.3234 32.741 25.0941 32.7678 24.8648 32.7988L24.8813 34.8194C25.3503 34.7512 25.8234 34.6913 26.2986 34.6375C27.441 34.5074 28.5939 34.4082 29.7343 34.2843L29.7157 32.2741V32.2741Z" fill="#FFB74D"/>
<path opacity="0.2" d="M34.2795 16.1903L38.7998 28.2227L38.8019 28.2247C38.8019 28.2289 38.806 28.233 38.806 28.2371L39.4052 29.8321L39.4031 29.8341C36.3723 33.0426 32.3601 33.4352 28.1145 33.8546C27.4968 33.9145 26.8584 33.9785 26.2303 34.0488C22.9248 34.4248 19.1585 35.0673 16.1834 37.9308L15.7806 36.8585L15.6153 36.4205L15.4913 36.09L11.066 24.3179L11.0701 24.3138C14.1298 21.0599 18.204 20.6508 22.5178 20.2169C23.1024 20.157 23.7078 20.0971 24.3028 20.031C27.6084 19.6509 31.3747 19.0125 34.2795 16.1903V16.1903ZM34.672 15.711C34.4778 15.5168 34.1514 15.4962 33.9386 15.7048C31.2755 18.339 27.7819 19.0435 24.2367 19.4484C19.3589 20.0042 14.2972 20.0289 10.6445 23.913C10.4896 24.0514 10.4255 24.2766 10.502 24.4853L10.504 24.4874C12.0798 28.6822 13.6562 32.8769 15.2331 37.0713L15.2331 37.0754C15.4046 37.5279 15.5512 37.9225 15.6669 38.2324C15.6938 38.3047 15.7372 38.3687 15.7868 38.4183C15.9789 38.6105 16.3053 38.6353 16.5181 38.4266C19.2452 35.7573 22.7409 35.0425 26.2944 34.6376C31.166 34.0797 36.1781 34.1004 39.8287 30.2391C39.9837 30.1006 40.0477 29.8755 39.9692 29.6689C39.9671 29.6668 39.9651 29.6647 39.9671 29.6627L39.3556 28.0347L39.3473 28.0099L34.798 15.899C34.765 15.8247 34.7236 15.7627 34.672 15.711V15.711Z" fill="#424242"/>
<path d="M36.8702 43.3333C38.1408 42.4222 37.0107 40.3211 36.2256 39.6187C34.2443 37.8316 30.7053 36.9122 29.8396 33.5756C29.3355 31.6336 27.034 33.6252 27.034 33.6252C26.313 34.2595 25.3027 35.5672 25.5197 36.6436C25.7345 37.7179 27.0072 38.9162 28.067 38.0588C27.5299 39.2199 27.6249 41.1041 28.9575 41.7755C29.5442 42.0896 30.4016 41.8272 30.666 41.2818C30.7115 42.4057 31.8209 44.1308 32.8539 44.0109C34.0212 43.8147 33.6018 42.3044 33.5729 41.5152C34.2443 42.2941 35.6781 44.1122 36.8702 43.3333V43.3333Z" fill="#CFD8DC"/>
<path opacity="0.2" d="M35.9054 40.1207C36.4054 40.6207 36.9115 41.5814 36.8537 42.2631C36.833 42.5235 36.7339 42.7094 36.5417 42.852C36.1698 43.0833 35.61 42.8292 34.8765 42.0958C34.5997 41.819 34.3497 41.5235 34.1472 41.288L34.0171 41.1372C34.0068 41.1268 33.9985 41.1145 33.9882 41.1041C33.8249 40.9409 33.5791 40.8893 33.3622 40.974C33.1308 41.0649 32.982 41.2921 32.9903 41.54C32.9965 41.6991 33.0151 41.8747 33.0357 42.0565C33.1556 43.1557 33.0523 43.3788 32.7754 43.4366C32.606 43.449 32.3643 43.3147 32.1267 43.0771C31.6598 42.6102 31.2755 41.8128 31.2528 41.2611C31.2466 41.1103 31.1825 40.9719 31.0834 40.8727C31.0171 40.8074 30.9362 40.7587 30.8474 40.7308C30.7586 40.7028 30.6645 40.6963 30.5727 40.7118C30.4809 40.7274 30.3941 40.7645 30.3195 40.8201C30.2448 40.8757 30.1845 40.9483 30.1433 41.0318C30.0917 41.1372 29.9574 41.2343 29.7921 41.288C29.5959 41.352 29.3831 41.3417 29.2364 41.2653C29.2322 41.2611 29.2281 41.2611 29.2219 41.2591C29.0897 41.193 28.9699 41.1062 28.8666 41.0029C28.2282 40.3645 28.2302 39.1063 28.6001 38.3109C28.65 38.2021 28.6655 38.0807 28.6444 37.9629C28.6234 37.8451 28.5668 37.7366 28.4823 37.6518C28.4658 37.6353 28.4492 37.6188 28.4265 37.6043C28.2137 37.437 27.9121 37.4411 27.7013 37.6105C27.2799 37.9493 26.8626 37.689 26.5878 37.4143C26.3399 37.1663 26.156 36.8378 26.0961 36.5341C25.9515 35.8193 26.6725 34.7305 27.4183 34.0756C27.9534 33.6149 28.8562 33.1294 29.1124 33.3856C29.1579 33.431 29.2219 33.5281 29.2756 33.7306C29.5504 34.7946 30.0896 35.7139 30.9222 36.5465C31.7672 37.3915 32.7775 38.0134 33.7547 38.6146C34.5294 39.0918 35.2629 39.5443 35.8393 40.0629C35.8599 40.0753 35.8806 40.0959 35.9054 40.1207V40.1207ZM36.3186 39.7075C36.2876 39.6765 36.2587 39.6476 36.2277 39.6207C34.8745 38.3997 32.794 37.5837 31.3354 36.1251C30.6598 35.4495 30.1165 34.6334 29.8438 33.5756C29.7715 33.2967 29.662 33.1005 29.5277 32.9662C28.7261 32.1646 27.0361 33.6273 27.0361 33.6273C26.3151 34.2616 25.3048 35.5693 25.5217 36.6457C25.6064 37.061 25.8482 37.4969 26.1746 37.8233C26.6911 38.3398 27.4204 38.5857 28.0691 38.0609C27.6104 39.0526 27.6146 40.5732 28.4534 41.412C28.5959 41.5545 28.7653 41.6785 28.9595 41.7776C29.5463 42.0917 30.4037 41.8293 30.6681 41.2839C30.697 41.9822 31.1371 42.9139 31.7114 43.4883C32.0627 43.8395 32.4635 44.0585 32.8539 44.011C34.0212 43.8147 33.6018 42.3045 33.5729 41.5153C33.796 41.7756 34.1039 42.1495 34.4613 42.5069C35.172 43.2176 36.0748 43.8519 36.8702 43.3333C38.0933 42.4573 37.0933 40.4823 36.3186 39.7075V39.7075Z" fill="#424242"/>
</g>
<g clip-path="url(#clip2)">
<path d="M33.3813 53.207C32.8769 53.1523 31.9282 52.8047 31.7519 53.5762C31.6319 54.2598 32.6894 55.0742 33.4057 55.1562C33.0457 55.3086 32.8413 55.8691 33.0176 56.2754C33.3907 57.1934 34.5926 57.3398 35.3594 57.0332C34.7651 57.7031 35.4794 58.6035 36.1582 58.7949C36.8369 58.9863 37.7182 58.3711 38.1551 57.9199C38.1551 57.9199 39.5294 56.4727 38.3069 56.0508C36.2069 55.3262 35.7701 52.9238 34.7088 51.5234C34.2926 50.9687 32.9951 50.123 32.3576 50.9277C31.8082 51.6875 32.9126 52.7246 33.3813 53.207V53.207Z" fill="#CFD8DC"/>
<path opacity="0.2" d="M33.055 50.9844C33.535 50.9844 34.1688 51.4375 34.4144 51.7617C34.7219 52.168 34.9788 52.6758 35.2525 53.2148C35.8825 54.459 36.5969 55.8691 38.1888 56.418C38.3332 56.4688 38.4157 56.5293 38.4325 56.6035C38.4888 56.8457 38.1532 57.3633 37.8907 57.6406C37.5082 58.0371 36.8838 58.4395 36.43 58.4395C36.3682 58.4395 36.31 58.4316 36.2575 58.418C35.9388 58.3281 35.6144 58.0176 35.5338 57.7246C35.4888 57.5625 35.5225 57.4277 35.6369 57.2969C35.755 57.1641 35.77 56.9629 35.6707 56.8125C35.623 56.7393 35.553 56.685 35.472 56.6584C35.391 56.6318 35.3038 56.6345 35.2244 56.666C35.0332 56.7422 34.8007 56.7852 34.57 56.7852C34.3507 56.7852 33.6119 56.7363 33.3625 56.1211C33.3607 56.1172 33.3607 56.1152 33.3588 56.1113C33.3157 56.0098 33.3175 55.8672 33.3663 55.7383C33.4075 55.6309 33.4769 55.5449 33.5463 55.5156C33.6235 55.4827 33.6881 55.4239 33.7298 55.3487C33.7716 55.2734 33.7881 55.1858 33.7769 55.0996C33.7525 54.9219 33.6175 54.7852 33.445 54.7656C33.0588 54.7227 32.5132 54.3809 32.2544 54.0195C32.155 53.8789 32.1044 53.7461 32.1175 53.6523C32.1382 53.5605 32.1719 53.4707 32.455 53.4707C32.6275 53.4707 32.8319 53.5078 33.0119 53.541C33.1282 53.5625 33.2388 53.582 33.3419 53.5938C33.355 53.5957 33.3682 53.5957 33.3813 53.5957C33.5257 53.5957 33.6569 53.5098 33.7207 53.3711C33.7882 53.2207 33.7582 53.043 33.6457 52.9258L33.5538 52.832C33.1619 52.4336 32.3482 51.6074 32.6538 51.166C32.755 51.043 32.8825 50.9844 33.055 50.9844V50.9844ZM33.055 50.5938C32.7925 50.5938 32.5469 50.6875 32.3575 50.9258C31.8082 51.6875 32.9107 52.7227 33.3813 53.2051C33.1319 53.1777 32.7757 53.0801 32.455 53.0801C32.1269 53.0801 31.84 53.1836 31.75 53.5742C31.63 54.2578 32.6875 55.0723 33.4038 55.1543C33.0438 55.3066 32.8394 55.8672 33.0157 56.2734C33.2744 56.9102 33.9344 57.1758 34.57 57.1758C34.8494 57.1758 35.1232 57.125 35.3575 57.0313C34.7632 57.7012 35.4775 58.6016 36.1563 58.793C36.2444 58.8184 36.3344 58.8281 36.4282 58.8281C37.0563 58.8281 37.7725 58.3105 38.1532 57.916C38.1532 57.916 39.5275 56.4688 38.305 56.0469C36.205 55.3223 35.7682 52.9199 34.7069 51.5195C34.4144 51.1309 33.6832 50.5938 33.055 50.5938V50.5938Z" fill="#424242"/>
<path d="M41.8151 49.9512L41.8286 49.9572Z" fill="url(#paint2_linear)"/>
<path d="M44.2788 61.8008C46.2813 59.1778 48.6307 56.7539 48.4188 53.0645L48.4038 53.0567L40.8438 49.4824C40.6244 49.3789 40.3713 49.543 40.3694 49.7949C40.3563 52.2988 39.0907 54.2832 37.6657 56.1504C35.7044 58.7188 33.4188 61.1231 33.5238 64.6856C33.5163 64.8242 33.5894 64.961 33.7188 65.0235H33.7207C36.3393 66.2615 38.958 67.4991 41.5769 68.7363L41.5788 68.7383C41.4138 65.9238 42.7507 63.8028 44.2788 61.8008Z" fill="url(#paint3_linear)"/>
<path d="M42.8688 51.5313L46.4482 53.2227C46.3498 53.5996 46.3699 53.9994 46.5055 54.3635C46.6412 54.7277 46.8852 55.037 47.2019 55.2461C46.6488 57.1699 45.3738 58.7949 44.1401 60.3672L44.1269 60.3828C43.8888 60.6875 43.6413 61.002 43.4032 61.3145C42.4151 62.6074 41.4401 64.0313 40.9526 65.6934C40.8419 65.6699 40.7313 65.6602 40.6169 65.6602C40.0244 65.6602 39.4769 65.9727 39.1563 66.4785L35.5769 64.7871C35.7026 64.3105 35.6369 63.7969 35.3876 63.3652C35.3763 63.3477 35.3651 63.3281 35.3538 63.3105L35.3444 63.2949L35.3051 63.2363C35.2901 63.2148 35.2732 63.1934 35.2582 63.1719C35.2432 63.1523 35.2263 63.1309 35.2038 63.1055C35.1888 63.0879 35.1757 63.0703 35.1607 63.0547C35.1326 63.0234 35.1026 62.9941 35.0726 62.9648C35.0576 62.9512 35.0426 62.9375 35.0201 62.918C34.9938 62.8945 34.9676 62.873 34.9413 62.8516C34.9244 62.8379 34.9076 62.8262 34.8888 62.8125C34.8626 62.793 34.8344 62.7734 34.7988 62.752C34.7838 62.7422 34.7688 62.7324 34.7538 62.7246C34.7519 62.7227 34.7482 62.7227 34.7463 62.7207C35.3013 60.8027 36.5726 59.1816 37.8044 57.6113L37.8176 57.5957C38.0557 57.291 38.3032 56.9766 38.5413 56.6641C39.5238 55.377 40.4951 53.9609 40.9844 52.2988C41.1232 52.3359 41.2657 52.3535 41.4101 52.3535C42.0026 52.3457 42.5501 52.0332 42.8688 51.5313V51.5313ZM42.7526 51.1602C42.6359 51.4287 42.4474 51.6564 42.2096 51.8161C41.9718 51.9759 41.6949 52.0607 41.4119 52.0605C41.2394 52.0605 41.0632 52.0293 40.8926 51.9609V51.9629C40.8626 51.9512 40.8326 51.9395 40.8026 51.9258L40.8007 51.9297C40.3638 53.6348 39.3926 55.0879 38.3276 56.4805C38.0857 56.7969 37.8401 57.1113 37.5926 57.4238C36.2707 59.1074 34.9526 60.793 34.4219 62.8574L34.4163 62.8672C34.4182 62.8672 34.4182 62.8672 34.4201 62.8691C34.4463 62.8809 34.4744 62.8926 34.5026 62.9043C34.5082 62.9063 34.5119 62.9102 34.5176 62.9121C34.5532 62.9297 34.5869 62.9473 34.6207 62.9668C34.6357 62.9746 34.6488 62.9844 34.6638 62.9941C34.6882 63.0098 34.7107 63.0254 34.7332 63.041C34.7482 63.0508 34.7632 63.0625 34.7763 63.0742C34.7988 63.0918 34.8213 63.1113 34.8438 63.1309C34.8588 63.1445 34.8738 63.1563 34.8888 63.1699C34.9151 63.1953 34.9394 63.2207 34.9638 63.2461C34.9788 63.2617 34.9919 63.2773 35.0051 63.2949C35.0182 63.3125 35.0332 63.3281 35.0463 63.3457C35.0594 63.3633 35.0726 63.3828 35.0857 63.4004L35.1194 63.4531C35.1307 63.4727 35.1438 63.4902 35.1551 63.5098C35.2788 63.7227 35.3508 63.9638 35.3648 64.2123C35.3789 64.4607 35.3346 64.709 35.2357 64.9355L39.2782 66.8457C39.3952 66.5771 39.5841 66.3493 39.8222 66.1897C40.0603 66.03 40.3375 65.9451 40.6207 65.9453C40.7951 65.9453 40.9713 65.9785 41.1438 66.0449L41.1494 66.0371V66.0352C41.5882 64.334 42.5594 62.8848 43.6226 61.4922C43.8644 61.1758 44.1101 60.8613 44.3576 60.5488C45.6794 58.8652 46.9976 57.1797 47.5282 55.1152C47.5301 55.1113 47.5301 55.1074 47.5319 55.1035C46.7913 54.7539 46.4632 53.8438 46.7988 53.0723L42.7526 51.1602V51.1602Z" fill="#2E7D32"/>
<path d="M39.6269 62.1895C39.4732 62.1172 39.3176 62.1113 39.1619 62.1738C39.0063 62.2363 38.8282 62.3809 38.6257 62.6094C38.3538 62.9297 38.0932 63.1348 37.8438 63.2227C37.5944 63.3106 37.3338 63.291 37.0638 63.1621C36.7882 63.0313 36.5988 62.8418 36.4957 62.5918C36.3926 62.3418 36.3869 62.0625 36.4807 61.7539L36.0457 61.5488C36.0146 61.534 35.9905 61.507 35.9786 61.4737C35.9666 61.4404 35.9678 61.4035 35.9819 61.3711L36.0457 61.2227C36.0757 61.1563 36.1507 61.125 36.2163 61.1563L36.6532 61.3633C36.8201 61.0879 37.0376 60.9141 37.3076 60.8457C37.5494 60.7832 37.8194 60.8145 38.1213 60.9375C38.1794 60.9609 38.2057 61.0332 38.1794 61.0938L38.0613 61.3633C38.049 61.3905 38.0273 61.4119 38.0005 61.4231C37.9738 61.4343 37.9439 61.4346 37.9169 61.4238C37.7182 61.3477 37.5382 61.332 37.3751 61.375C37.1838 61.4258 37.0451 61.5508 36.9588 61.75C36.8688 61.959 36.8501 62.1426 36.9063 62.3008C36.9626 62.459 37.0826 62.584 37.2663 62.6699C37.4388 62.752 37.6001 62.7578 37.7519 62.6895C37.9038 62.6211 38.0801 62.4727 38.2807 62.2461C38.4794 62.0195 38.6632 61.8535 38.8282 61.752C38.9932 61.6504 39.1582 61.5938 39.3213 61.5859C39.4844 61.5781 39.6551 61.6152 39.8332 61.6992C40.1163 61.834 40.3076 62.0293 40.4032 62.2891C40.4988 62.5488 40.4932 62.8457 40.3844 63.1817L40.7482 63.3535C40.8119 63.3848 40.8419 63.4629 40.8119 63.5313L40.7482 63.6758C40.7182 63.7422 40.6432 63.7734 40.5776 63.7422L40.2138 63.5703C40.0432 63.8828 39.8219 64.084 39.5463 64.1777C39.3026 64.2598 39.0344 64.2441 38.7438 64.1289C38.6838 64.1055 38.6594 64.0332 38.6838 63.9727L38.8019 63.6992C38.8263 63.6445 38.8863 63.6152 38.9388 63.6367C39.1338 63.7109 39.3119 63.7188 39.4676 63.6602C39.6494 63.5918 39.7901 63.4414 39.8932 63.207C39.9926 62.9785 40.0188 62.7734 39.9701 62.5918C39.9251 62.4102 39.8088 62.2754 39.6269 62.1895V62.1895Z" fill="white"/>
<path d="M40.4894 63.2324L40.2138 63.5723L36.4919 61.7598L36.3663 61.6992L36.6532 61.3633L40.3807 63.1816L40.4894 63.2324Z" fill="white"/>
<path opacity="0.5" d="M42.5857 59.1367C43.993 59.1367 45.1338 57.9484 45.1338 56.4824C45.1338 55.0165 43.993 53.8281 42.5857 53.8281C41.1784 53.8281 40.0376 55.0165 40.0376 56.4824C40.0376 57.9484 41.1784 59.1367 42.5857 59.1367Z" fill="#2E7D32"/>
<path d="M37.6638 56.1523C38.4663 55.1016 39.2182 54.0137 39.7244 52.8184C39.2182 54.0117 38.4682 55.0957 37.6676 56.1465C36.4151 57.7871 35.0294 59.3613 34.2176 61.2109C35.0276 59.3613 36.4132 57.791 37.6638 56.1523V56.1523Z" fill="#2E7D32"/>
<path d="M48.3926 53.0586L41.5394 49.8203L48.3757 53.0508L48.3926 53.0586Z" fill="#2E7D32"/>
<path d="M45.4901 62.3574C47.4476 59.793 49.7313 57.4336 49.6357 53.8828C49.6432 53.7441 49.5701 53.6074 49.4407 53.5469C49.4388 53.5469 49.4369 53.5469 49.4369 53.5449L48.4207 53.0645C48.6326 56.752 46.2832 59.1777 44.2807 61.8008C42.7526 63.8008 41.4157 65.9238 41.5769 68.7383C41.8601 68.8711 42.1057 68.9883 42.2988 69.0801C42.5182 69.1836 42.7713 69.0215 42.7732 68.7695C42.7976 66.2188 44.0613 64.2285 45.4901 62.3574V62.3574Z" fill="#2E7D32"/>
<path d="M37.915 55.8203C37.8288 55.9375 37.7463 56.0449 37.66 56.1582C37.0975 56.8945 36.4863 57.666 35.9538 58.3613L44.0032 62.166C44.0932 62.0449 44.185 61.9219 44.2788 61.8008C44.8357 61.0723 45.4188 60.3574 45.9663 59.627L37.915 55.8203Z" fill="#FFECB3"/>
<path d="M45.9701 59.625C45.4207 60.3555 44.8376 61.0703 44.2807 61.8008C44.1888 61.9219 44.0969 62.043 44.0069 62.166L44.9313 63.1133C45.1132 62.8594 45.3007 62.6074 45.4919 62.3574C45.9513 61.7559 46.4294 61.1641 46.8907 60.5664L45.9701 59.625V59.625Z" fill="#FFECB3"/>
<path opacity="0.5" d="M45.9701 59.625C45.4207 60.3555 44.8376 61.0703 44.2807 61.8008C44.1888 61.9219 44.0969 62.043 44.0069 62.166L44.9313 63.1133C45.1132 62.8594 45.3007 62.6074 45.4919 62.3574C45.9513 61.7559 46.4294 61.1641 46.8907 60.5664L45.9701 59.625V59.625Z" fill="#FFB74D"/>
<path opacity="0.2" d="M40.7425 49.8652L48.2538 53.416H48.2557C48.2575 53.418 48.2613 53.418 48.2632 53.4199L49.2588 53.8906V53.8926C49.3394 56.8418 47.6969 58.9238 45.9607 61.1289C45.7075 61.4492 45.4469 61.7813 45.1938 62.1113C43.8644 63.8516 42.4469 65.9355 42.3963 68.6953L41.7269 68.3789L41.4532 68.25L41.2469 68.1523L33.8969 64.6797V64.6758C33.8088 61.6914 35.4719 59.5723 37.2325 57.3281C37.4707 57.0234 37.7182 56.709 37.9582 56.3965C39.2857 54.6543 40.705 52.5723 40.7425 49.8652V49.8652ZM40.7032 49.4531C40.5269 49.4531 40.3694 49.5977 40.3675 49.7969C40.3544 52.3008 39.0888 54.2852 37.6638 56.1523C35.7025 58.7207 33.4169 61.125 33.5219 64.6875C33.5144 64.8262 33.5875 64.9629 33.7169 65.0254H33.7188C36.3374 66.2634 38.9561 67.501 41.575 68.7383L41.5769 68.7402C41.86 68.873 42.1057 68.9902 42.2988 69.082C42.3438 69.1035 42.3925 69.1133 42.4375 69.1133C42.6119 69.1133 42.7713 68.9707 42.7732 68.7715C42.7994 66.2207 44.0613 64.2305 45.49 62.3594C47.4475 59.793 49.7313 57.4336 49.6357 53.8828C49.6432 53.7441 49.57 53.6074 49.4407 53.5469C49.4388 53.5469 49.4369 53.5469 49.4369 53.5449L48.4207 53.0645L48.4057 53.0566L40.8457 49.4824C40.7969 49.4629 40.75 49.4531 40.7032 49.4531V49.4531Z" fill="#424242"/>
<path d="M54.235 61.4707C54.3982 60.4395 52.9319 59.9805 52.2569 60.0195C50.5469 60.1113 48.5238 61.3496 46.6169 60.1816C45.5069 59.502 45.3663 61.5313 45.3663 61.5313C45.3269 62.1719 45.4619 63.2676 46.0488 63.6738C46.6338 64.0801 47.755 64.0449 47.8469 63.1387C48.13 63.9414 49.0282 64.7871 49.9375 64.4746C50.3463 64.3457 50.6163 63.8164 50.4888 63.4336C51.0194 63.9434 52.3057 64.2344 52.72 63.6895C53.1607 63.0449 52.285 62.5293 51.9138 62.1699C52.5719 62.2207 54.0475 62.4023 54.235 61.4707V61.4707Z" fill="#CFD8DC"/>
<path opacity="0.2" d="M52.3394 60.4082C52.7932 60.4082 53.4588 60.623 53.7419 60.9727C53.8507 61.1055 53.8901 61.2402 53.8676 61.3984C53.8038 61.6836 53.4344 61.8281 52.7688 61.8281C52.5176 61.8281 52.2701 61.8066 52.0713 61.791L51.9438 61.7812C51.9344 61.7812 51.9251 61.7793 51.9157 61.7793C51.7676 61.7793 51.6326 61.8711 51.5726 62.0137C51.5088 62.166 51.5444 62.3437 51.6607 62.457C51.7357 62.5293 51.8238 62.6035 51.9157 62.6797C52.4688 63.1426 52.5232 63.2969 52.4238 63.4551C52.3526 63.541 52.1819 63.5918 51.9663 63.5918C51.5426 63.5918 51.0063 63.3965 50.7457 63.1465C50.6744 63.0781 50.5826 63.043 50.4926 63.043C50.4328 63.0434 50.3741 63.0587 50.3211 63.0874C50.2681 63.1161 50.2224 63.1576 50.1878 63.2083C50.1532 63.259 50.1307 63.3176 50.122 63.3792C50.1134 63.4408 50.119 63.5036 50.1382 63.5625C50.1626 63.6367 50.1457 63.7461 50.0951 63.8496C50.0351 63.9727 49.9338 64.0684 49.8326 64.1016C49.8288 64.1016 49.8269 64.1035 49.8232 64.1055C49.7332 64.1367 49.6394 64.1523 49.5457 64.1523C48.9663 64.1523 48.3963 63.5566 48.2032 63.0059C48.1765 62.9309 48.1284 62.8661 48.0654 62.8204C48.0024 62.7747 47.9275 62.7501 47.8507 62.75C47.8357 62.75 47.8207 62.75 47.8038 62.7539C47.6313 62.7754 47.4963 62.9199 47.4776 63.0996C47.4401 63.459 47.1326 63.5332 46.8832 63.5332C46.6582 63.5332 46.4257 63.4648 46.2607 63.3496C45.8707 63.0801 45.7038 62.2246 45.7451 61.5625C45.7788 61.0918 45.9682 60.4355 46.2007 60.4355C46.2419 60.4355 46.3151 60.4512 46.4313 60.5215C47.0388 60.8945 47.7007 61.0742 48.4563 61.0742C49.2232 61.0742 49.9638 60.8906 50.6801 60.7129C51.2482 60.5723 51.7863 60.4395 52.2832 60.4121C52.2982 60.4082 52.3169 60.4082 52.3394 60.4082V60.4082ZM52.3394 60.0176C52.3113 60.0176 52.2851 60.0176 52.2588 60.0195C51.0907 60.082 49.7763 60.6797 48.4526 60.6797C47.8394 60.6797 47.2226 60.5508 46.6188 60.1797C46.4594 60.082 46.3207 60.041 46.1988 60.041C45.4713 60.041 45.3682 61.5312 45.3682 61.5312C45.3288 62.1719 45.4638 63.2676 46.0507 63.6738C46.2776 63.8301 46.5851 63.9219 46.8813 63.9219C47.3501 63.9219 47.7926 63.6934 47.8488 63.1387C48.0907 63.8242 48.7826 64.541 49.5438 64.541C49.6732 64.541 49.8063 64.5195 49.9394 64.4746C50.3482 64.3457 50.6182 63.8164 50.4907 63.4336C50.8207 63.75 51.4432 63.9824 51.9644 63.9824C52.2832 63.9824 52.5644 63.8965 52.7201 63.6895C53.1607 63.0449 52.2851 62.5293 51.9138 62.1699C52.1332 62.1875 52.4426 62.2187 52.7669 62.2187C53.4119 62.2187 54.1094 62.0918 54.2351 61.4707C54.3926 60.4785 53.0426 60.0176 52.3394 60.0176V60.0176Z" fill="#424242"/>
</g>
<g clip-path="url(#clip3)">
<path d="M144.062 50.3581C143.595 50.0656 142.83 49.2863 142.304 49.9238C141.873 50.506 142.53 51.7741 143.19 52.1936C142.769 52.1639 142.313 52.5906 142.298 53.055C142.24 54.0925 143.344 54.8046 144.232 54.8847C143.345 55.2271 143.628 56.4114 144.202 56.9153C144.775 57.4191 145.917 57.2651 146.55 57.052C146.55 57.052 148.554 56.3554 147.557 55.3757C145.843 53.6929 146.52 51.236 146.129 49.4179C145.978 48.6997 145.102 47.2876 144.111 47.7355C143.227 48.1835 143.827 49.6824 144.062 50.3581V50.3581Z" fill="#CFD8DC"/>
<path opacity="0.2" d="M144.765 48.1222C145.233 48.3519 145.642 49.0791 145.733 49.5C145.846 50.0273 145.863 50.6254 145.882 51.2607C145.925 52.7263 145.973 54.3876 147.273 55.6628C147.39 55.7794 147.443 55.8755 147.425 55.953C147.369 56.2066 146.804 56.5303 146.421 56.6642C145.866 56.8522 145.072 56.9299 144.63 56.7128C144.57 56.6832 144.517 56.648 144.472 56.6101C144.202 56.3735 144.029 55.9278 144.085 55.6151C144.115 55.4418 144.21 55.3319 144.382 55.2642C144.558 55.1964 144.665 55.0154 144.637 54.8271C144.624 54.7358 144.581 54.6515 144.514 54.5878C144.448 54.5242 144.361 54.485 144.27 54.4765C144.048 54.4563 143.802 54.3852 143.577 54.2749C143.363 54.1699 142.666 53.7707 142.705 53.0758C142.705 53.0712 142.706 53.0694 142.706 53.0648C142.711 52.9492 142.778 52.8166 142.885 52.7194C142.974 52.6386 143.081 52.5914 143.162 52.5971C143.253 52.6033 143.343 52.5792 143.418 52.5287C143.493 52.4783 143.55 52.4042 143.578 52.3182C143.636 52.1403 143.567 51.9477 143.408 51.8469C143.051 51.6219 142.677 51.041 142.59 50.5791C142.558 50.4 142.57 50.2515 142.626 50.1701C142.688 50.094 142.762 50.0261 143.038 50.1616C143.206 50.2441 143.388 50.3766 143.548 50.4938C143.652 50.5696 143.751 50.6408 143.846 50.7011C143.858 50.7092 143.871 50.7155 143.883 50.7217C144.024 50.7908 144.191 50.7732 144.317 50.674C144.452 50.5655 144.505 50.3849 144.449 50.2214L144.402 50.0897C144.203 49.5294 143.79 48.367 144.29 48.1002C144.446 48.0335 144.597 48.0397 144.765 48.1222V48.1222ZM144.944 47.7567C144.688 47.6311 144.406 47.6013 144.112 47.7337C143.227 48.1836 143.826 49.6797 144.063 50.3562C143.832 50.2113 143.53 49.9495 143.217 49.7961C142.898 49.6391 142.57 49.5987 142.303 49.9211C141.872 50.5033 142.529 51.7714 143.189 52.1909C142.769 52.1612 142.312 52.5879 142.297 53.0523C142.257 53.7719 142.778 54.3362 143.398 54.6404C143.67 54.7741 143.96 54.8575 144.231 54.8819C143.344 55.2244 143.627 56.4087 144.201 56.9126C144.275 56.9785 144.358 57.0307 144.45 57.0755C145.062 57.3761 145.998 57.2345 146.55 57.0475C146.55 57.0475 148.554 56.3509 147.557 55.3712C145.843 53.6884 146.52 51.2315 146.129 49.4134C146.023 48.9097 145.557 48.0573 144.944 47.7567V47.7567Z" fill="#424242"/>
<path d="M153.778 51.347L153.788 51.3595Z" fill="url(#paint4_linear)"/>
<path d="M150.736 63.6134C153.893 62.1172 157.296 60.9734 158.784 57.4198L158.773 57.4053L153.046 50.4436C152.88 50.2418 152.558 50.2742 152.44 50.5091C151.277 52.8457 149.132 54.0968 146.886 55.1621C143.794 56.6269 140.462 57.7829 138.928 61.1666C138.857 61.2927 138.866 61.4557 138.963 61.576L138.965 61.5769C140.949 63.9883 142.932 66.3993 144.917 68.8101L144.918 68.8128C146.05 66.1004 148.327 64.7554 150.736 63.6134Z" fill="url(#paint5_linear)"/>
<path d="M154.079 53.3296L156.791 56.6249C156.522 56.9305 156.358 57.3142 156.323 57.7199C156.287 58.1255 156.383 58.5317 156.596 58.8789C155.173 60.4143 153.184 61.3248 151.259 62.2056L151.239 62.2139C150.867 62.3851 150.482 62.5609 150.106 62.7394C148.549 63.4764 146.945 64.3421 145.706 65.6641C145.609 65.5892 145.506 65.5272 145.394 65.4724C144.817 65.1889 144.139 65.2194 143.595 65.5393L140.883 62.244C141.224 61.8582 141.396 61.3462 141.351 60.8229C141.348 60.8011 141.346 60.7775 141.344 60.7556L141.342 60.7365L141.33 60.6629C141.325 60.6356 141.319 60.6074 141.314 60.5801C141.308 60.5547 141.302 60.5265 141.292 60.492C141.285 60.4683 141.28 60.4456 141.273 60.4238C141.26 60.3811 141.244 60.3394 141.228 60.2976C141.22 60.2776 141.212 60.2576 141.199 60.2286C141.184 60.1941 141.168 60.1615 141.152 60.1288C141.142 60.1079 141.131 60.0889 141.119 60.0671C141.102 60.0363 141.084 60.0045 141.059 59.9674C141.049 59.9511 141.039 59.9348 141.028 59.9203C141.027 59.9176 141.023 59.9158 141.022 59.913C142.444 58.384 144.428 57.4754 146.35 56.5955L146.37 56.5872C146.742 56.416 147.128 56.2402 147.503 56.0617C149.052 55.3275 150.649 54.4673 151.89 53.1462C152.008 53.2473 152.139 53.332 152.279 53.401C152.861 53.6772 153.538 53.6468 154.079 53.3296V53.3296ZM154.136 52.9268C153.899 53.1222 153.611 53.2451 153.306 53.2808C153 53.3165 152.692 53.2633 152.416 53.1278C152.248 53.0453 152.09 52.9317 151.955 52.7861L151.954 52.7879C151.931 52.7626 151.907 52.7373 151.884 52.7101L151.88 52.7129C150.671 54.0993 149.057 54.9942 147.379 55.7877C146.998 55.968 146.614 56.1447 146.23 56.3187C144.168 57.2615 142.109 58.208 140.643 59.8858L140.633 59.8922C140.635 59.8931 140.635 59.8931 140.636 59.8958C140.656 59.9194 140.678 59.9438 140.7 59.9682C140.705 59.9727 140.707 59.9782 140.711 59.9827C140.738 60.0162 140.763 60.0488 140.787 60.0832C140.798 60.0977 140.806 60.1131 140.816 60.1294C140.833 60.1557 140.848 60.1811 140.862 60.2065C140.873 60.2228 140.882 60.2409 140.889 60.2582C140.903 60.2854 140.916 60.3144 140.929 60.3435C140.937 60.3634 140.947 60.3816 140.955 60.4016C140.969 60.4379 140.981 60.4733 140.993 60.5087C141 60.5305 141.006 60.5514 141.011 60.5741C141.015 60.5969 141.023 60.6187 141.028 60.6414C141.032 60.6641 141.036 60.6887 141.041 60.7114L141.05 60.7769C141.052 60.8006 141.056 60.8233 141.058 60.8469C141.081 61.1054 141.04 61.3654 140.94 61.6046C140.84 61.8438 140.682 62.0549 140.482 62.2196L143.545 65.9412C143.782 65.7459 144.071 65.6231 144.376 65.5876C144.682 65.5521 144.991 65.6054 145.267 65.741C145.437 65.8245 145.593 65.9399 145.731 66.0846L145.74 66.0799L145.741 66.0781C146.95 64.6963 148.562 63.805 150.238 63.0106C150.619 62.8303 151.003 62.6536 151.388 62.4796C153.45 61.5368 155.509 60.5903 156.974 58.9125C156.978 58.9098 156.979 58.9061 156.983 58.9034C156.422 58.2219 156.52 57.2132 157.202 56.652L154.136 52.9268V52.9268Z" fill="#2E7D32"/>
<path d="M146.023 61.7512C145.907 61.6101 145.758 61.5301 145.577 61.5141C145.397 61.4982 145.157 61.5482 144.855 61.6651C144.442 61.8347 144.094 61.9019 143.811 61.8648C143.527 61.8277 143.282 61.6848 143.078 61.435C142.87 61.1806 142.772 60.9127 142.787 60.6295C142.801 60.3462 142.924 60.0822 143.157 59.8383L142.827 59.4383C142.804 59.4096 142.793 59.3727 142.796 59.3358C142.8 59.2989 142.818 59.265 142.847 59.2415L142.977 59.1331C143.037 59.0853 143.124 59.0919 143.174 59.1526L143.504 59.5553C143.794 59.3775 144.085 59.3189 144.38 59.3841C144.644 59.4414 144.893 59.5998 145.131 59.8594C145.177 59.9091 145.169 59.9893 145.116 60.0334L144.877 60.2291C144.852 60.2487 144.821 60.2583 144.79 60.256C144.759 60.2537 144.73 60.2396 144.708 60.2167C144.55 60.0503 144.381 59.9495 144.203 59.9117C143.993 59.8677 143.8 59.9183 143.625 60.0634C143.441 60.2159 143.338 60.3787 143.321 60.5537C143.303 60.7286 143.362 60.903 143.502 61.0713C143.632 61.2306 143.787 61.3132 143.966 61.3219C144.146 61.3307 144.386 61.2761 144.685 61.1601C144.983 61.0432 145.238 60.9758 145.446 60.9597C145.653 60.9436 145.84 60.9696 146.003 61.0403C146.165 61.1111 146.315 61.2274 146.45 61.3912C146.664 61.6528 146.76 61.9271 146.734 62.2159C146.708 62.5047 146.566 62.7798 146.306 63.0421L146.582 63.3769C146.629 63.4367 146.623 63.5241 146.562 63.5738L146.434 63.6785C146.374 63.7263 146.286 63.7196 146.237 63.659L145.961 63.3241C145.651 63.5349 145.343 63.6172 145.032 63.5731C144.756 63.5332 144.502 63.3903 144.272 63.1434C144.224 63.0928 144.233 63.0135 144.285 62.9685L144.526 62.7692C144.575 62.7297 144.647 62.731 144.688 62.7762C144.844 62.9389 145.014 63.0315 145.192 63.0511C145.401 63.0742 145.607 63.0007 145.815 62.8308C146.017 62.6645 146.137 62.4852 146.173 62.2919C146.213 62.1004 146.161 61.9187 146.023 61.7512V61.7512Z" fill="white"/>
<path d="M146.385 63.1398L145.96 63.3259L143.165 59.8492L143.071 59.7324L143.504 59.5553L146.302 63.0403L146.385 63.1398Z" fill="white"/>
<path opacity="0.5" d="M150.309 60.3105C151.681 60.9839 153.339 60.4178 154.012 59.0461C154.686 57.6745 154.12 56.0167 152.748 55.3433C151.376 54.67 149.718 55.236 149.045 56.6077C148.372 57.9793 148.938 59.6372 150.309 60.3105Z" fill="#2E7D32"/>
<path d="M146.883 55.163C148.148 54.5638 149.38 53.9056 150.423 53.0294C149.381 53.9038 148.152 54.5592 146.889 55.1594C144.915 56.0952 142.841 56.9052 141.2 58.2474C142.84 56.9043 144.911 56.0979 146.883 55.163V55.163Z" fill="#2E7D32"/>
<path d="M158.761 57.4018L153.569 51.0927L158.748 57.3864L158.761 57.4018Z" fill="#2E7D32"/>
<path d="M151.661 64.7138C154.747 63.2509 158.056 62.136 159.594 58.7678C159.665 58.6416 159.657 58.4787 159.559 58.3601C159.557 58.3592 159.555 58.3583 159.556 58.3565L158.786 57.4207C157.299 60.9724 153.894 62.1181 150.738 63.6143C148.33 64.7545 146.051 66.1013 144.916 68.8119C145.131 69.0717 145.316 69.2989 145.462 69.4772C145.629 69.679 145.95 69.6484 146.067 69.4136C147.263 67.0385 149.409 65.7809 151.661 64.7138V64.7138Z" fill="#2E7D32"/>
<path d="M147.28 54.9726C147.143 55.041 147.013 55.102 146.877 55.1667C145.99 55.5866 145.04 56.016 144.202 56.4118L150.3 63.8233C150.443 63.753 150.589 63.6818 150.736 63.6134C151.613 63.1982 152.51 62.8083 153.379 62.3868L147.28 54.9726Z" fill="#FFECB3"/>
<path d="M153.384 62.3868C152.513 62.8074 151.616 63.1973 150.738 63.6143C150.593 63.6836 150.447 63.753 150.303 63.8251L150.769 65.1537C151.063 65.0031 151.361 64.8571 151.663 64.7147C152.387 64.3716 153.125 64.0467 153.849 63.7081L153.384 62.3868V62.3868Z" fill="#FFECB3"/>
<path opacity="0.5" d="M153.384 62.3868C152.513 62.8074 151.616 63.1973 150.738 63.6143C150.593 63.6836 150.447 63.753 150.303 63.8251L150.769 65.1537C151.063 65.0031 151.361 64.8571 151.663 64.7147C152.387 64.3716 153.125 64.0467 153.849 63.7081L153.384 62.3868V62.3868Z" fill="#FFB74D"/>
<path opacity="0.2" d="M152.772 50.7534L158.462 57.6698L158.464 57.6707C158.465 57.6734 158.468 57.6752 158.469 57.6779L159.223 58.5948L159.222 58.5966C157.946 61.3947 155.389 62.557 152.684 63.7895C152.29 63.9681 151.884 64.154 151.485 64.3418C149.39 65.334 147.051 66.6057 145.734 69.1638L145.227 68.5475L145.02 68.2959L144.863 68.1058L139.295 61.3396L139.296 61.336C140.581 58.5014 143.176 57.3143 145.923 56.0569C146.295 55.8857 146.68 55.7099 147.058 55.5324C149.152 54.5374 151.492 53.2684 152.772 50.7534V50.7534ZM152.923 50.3489C152.751 50.2646 152.531 50.3245 152.438 50.51C151.275 52.8466 149.13 54.0978 146.883 55.1631C143.792 56.6278 140.46 57.7839 138.926 61.1675C138.855 61.2937 138.863 61.4566 138.96 61.577L138.962 61.5779C140.946 63.9892 142.93 66.4003 144.914 68.8111L144.915 68.8138C145.13 69.0735 145.315 69.3007 145.462 69.479C145.496 69.5206 145.539 69.5531 145.582 69.5746C145.752 69.6581 145.973 69.6009 146.067 69.4154C147.264 67.0412 149.408 65.7828 151.66 64.7156C154.747 63.2509 158.056 62.136 159.594 58.7678C159.665 58.6416 159.657 58.4787 159.559 58.3601C159.557 58.3592 159.555 58.3584 159.556 58.3565L158.786 57.4207L158.775 57.4062L153.048 50.4445C153.01 50.4029 152.968 50.3714 152.923 50.3489V50.3489Z" fill="#424242"/>
<path d="M160.592 68.0684C161.224 67.1815 160.006 66.0505 159.33 65.7641C157.621 65.0318 155.081 65.2224 153.759 63.2171C152.989 62.05 151.92 63.8816 151.92 63.8816C151.587 64.4621 151.215 65.552 151.601 66.2129C151.984 66.8729 153.093 67.3765 153.599 66.5725C153.506 67.4591 153.993 68.6802 155.023 68.8229C155.481 68.8978 155.987 68.5318 156.039 68.1126C156.322 68.8434 157.442 69.7312 158.096 69.4196C158.821 69.0273 158.205 68.1259 158.008 67.612C158.626 67.9744 159.981 68.8504 160.592 68.0684V68.0684Z" fill="#CFD8DC"/>
<path opacity="0.2" d="M159.232 66.1672C159.674 66.3843 160.225 66.9039 160.34 67.3665C160.385 67.5428 160.361 67.6877 160.267 67.825C160.074 68.0613 159.647 68.0198 158.998 67.7013C158.754 67.5811 158.522 67.4425 158.336 67.3328L158.216 67.2627C158.207 67.2582 158.199 67.2519 158.189 67.2474C158.045 67.1765 157.871 67.1978 157.747 67.3025C157.615 67.4146 157.568 67.5979 157.63 67.7595C157.669 67.863 157.721 67.9746 157.776 68.0899C158.102 68.7877 158.084 68.9581 157.915 69.0585C157.806 69.1049 157.616 69.0707 157.406 68.9676C156.993 68.7648 156.56 68.3255 156.421 67.9668C156.383 67.8688 156.31 67.7919 156.222 67.7489C156.163 67.7207 156.099 67.7068 156.034 67.7084C155.969 67.7099 155.906 67.7268 155.849 67.7578C155.792 67.7887 155.743 67.8327 155.706 67.8862C155.67 67.9397 155.646 68.0011 155.638 68.0654C155.627 68.1465 155.561 68.2408 155.464 68.3134C155.349 68.3999 155.206 68.441 155.092 68.4236C155.089 68.4218 155.086 68.4227 155.081 68.4228C154.979 68.4089 154.881 68.3787 154.789 68.3338C154.225 68.0566 153.943 67.2265 154.007 66.6187C154.016 66.5358 153.999 66.4522 153.958 66.3793C153.918 66.3063 153.856 66.2475 153.781 66.2107C153.767 66.2035 153.752 66.1963 153.734 66.1919C153.556 66.1294 153.358 66.2001 153.257 66.3592C153.056 66.6776 152.722 66.5999 152.479 66.4806C152.259 66.3729 152.064 66.1977 151.956 66.0109C151.7 65.5721 151.93 64.6918 152.275 64.092C152.524 63.6677 153.01 63.1443 153.236 63.2555C153.277 63.2753 153.341 63.3249 153.422 63.4463C153.842 64.086 154.405 64.5709 155.141 64.9324C155.889 65.2994 156.695 65.4819 157.475 65.6583C158.093 65.7986 158.679 65.9318 159.176 66.144C159.192 66.1475 159.21 66.1565 159.232 66.1672V66.1672ZM159.412 65.8017C159.384 65.7883 159.359 65.7757 159.332 65.765C158.165 65.2645 156.609 65.1949 155.319 64.5615C154.721 64.2681 154.179 63.8523 153.761 63.2162C153.651 63.0486 153.535 62.9438 153.416 62.8855C152.707 62.5374 151.922 63.8825 151.922 63.8825C151.589 64.463 151.217 65.5529 151.603 66.2138C151.752 66.4686 152.01 66.7016 152.298 66.8433C152.755 67.0676 153.291 67.0655 153.601 66.5734C153.522 67.3306 153.867 68.3324 154.609 68.6966C154.735 68.7585 154.875 68.8021 155.025 68.8238C155.483 68.8987 155.989 68.5327 156.041 68.1135C156.217 68.5674 156.717 69.0828 157.225 69.3322C157.536 69.4847 157.849 69.5388 158.096 69.4196C158.821 69.0273 158.205 68.1259 158.008 67.612C158.214 67.7334 158.501 67.9107 158.817 68.0659C159.446 68.3745 160.184 68.5895 160.592 68.0684C161.201 67.2154 160.097 66.1382 159.412 65.8017V65.8017Z" fill="#424242"/>
</g>
<g clip-path="url(#clip4)">
<path d="M153.021 31.3324C152.397 31.8387 150.96 32.5278 151.592 33.5551C152.193 34.4249 154.254 34.1161 155.145 33.4018C154.905 33.969 155.279 34.801 155.914 35.0405C157.319 35.6098 158.824 34.4207 159.353 33.2316C159.408 34.6182 161.177 34.7862 162.143 34.2316C163.109 33.677 163.435 32.0278 163.439 31.053C163.439 31.053 163.422 27.9563 161.599 28.8723C158.466 30.4458 155.393 28.3512 152.697 28.034C151.634 27.9038 149.271 28.4479 149.422 30.0278C149.624 31.4606 151.977 31.3387 153.021 31.3324V31.3324Z" fill="#CFD8DC"/>
<path opacity="0.2" d="M150.265 29.3072C150.802 28.7693 152 28.5466 152.624 28.6202C153.405 28.7126 154.239 28.971 155.126 29.2441C157.17 29.8765 159.487 30.5929 161.861 29.3996C162.078 29.2925 162.235 29.2651 162.334 29.3261C162.658 29.5236 162.838 30.4563 162.843 31.0488C162.84 31.9039 162.574 33.0362 162.065 33.5446C161.996 33.614 161.922 33.6707 161.849 33.7148C161.395 33.9753 160.698 34.0047 160.292 33.7799C160.067 33.656 159.96 33.4732 159.948 33.2043C159.937 32.9291 159.737 32.6959 159.464 32.6455C159.332 32.6201 159.195 32.6401 159.076 32.7023C158.957 32.7644 158.862 32.8651 158.807 32.9879C158.674 33.2841 158.46 33.5909 158.202 33.8493C157.956 34.0951 157.076 34.8703 156.134 34.4879C156.128 34.4858 156.126 34.4837 156.12 34.4816C155.962 34.4207 155.811 34.2652 155.727 34.072C155.658 33.9102 155.643 33.74 155.689 33.6308C155.74 33.5088 155.749 33.3733 155.715 33.2455C155.681 33.1178 155.605 33.005 155.5 32.9249C155.281 32.761 154.983 32.7652 154.769 32.9375C154.29 33.324 153.311 33.5677 152.632 33.469C152.37 33.4291 152.17 33.343 152.084 33.2274C152.008 33.1056 151.949 32.9711 152.267 32.6539C152.46 32.4606 152.729 32.2715 152.966 32.1055C153.12 31.9984 153.265 31.8954 153.393 31.7925C153.41 31.7799 153.424 31.7652 153.439 31.7505C153.601 31.5887 153.655 31.3492 153.578 31.1286C153.492 30.8912 153.267 30.7337 153.015 30.7337L152.811 30.7358C151.943 30.7463 150.143 30.7694 150.01 29.9521C149.991 29.7063 150.071 29.5004 150.265 29.3072V29.3072ZM149.844 28.887C149.55 29.1811 149.376 29.5572 149.42 30.0257C149.624 31.4606 151.973 31.3387 153.019 31.3303C152.71 31.5803 152.206 31.8744 151.847 32.2337C151.479 32.6013 151.269 33.0341 151.588 33.5551C152.189 34.4249 154.25 34.1161 155.141 33.4018C154.901 33.969 155.275 34.801 155.91 35.0405C156.884 35.4354 157.91 34.9816 158.622 34.2694C158.935 33.9564 159.187 33.5951 159.349 33.2316C159.403 34.6182 161.172 34.7863 162.139 34.2316C162.265 34.1602 162.376 34.0699 162.481 33.9648C163.185 33.261 163.431 31.9017 163.433 31.0509C163.433 31.0509 163.416 27.9542 161.593 28.8702C158.46 30.4437 155.387 28.3492 152.691 28.0319C151.945 27.9416 150.548 28.1832 149.844 28.887V28.887Z" fill="#424242"/>
<path d="M158.969 18.3805L158.99 18.372Z" fill="url(#paint6_linear)"/>
<path d="M174.475 28.366C173.897 23.3007 173.923 18.0611 169.717 14.33L169.691 14.3384L157.376 18.9645C157.019 19.099 156.912 19.5591 157.181 19.8322C159.859 22.5402 160.576 26.0928 160.987 29.6979C161.553 34.6581 161.578 39.8053 165.527 43.5196C165.668 43.6772 165.897 43.7423 166.109 43.6646L166.112 43.6625C170.377 42.0601 174.643 40.4571 178.908 38.8536L178.912 38.8536C175.7 36.0111 174.916 32.2316 174.475 28.366Z" fill="url(#paint7_linear)"/>
<path d="M161.849 18.8994L167.679 16.7082C167.974 17.2238 168.427 17.6314 168.97 17.8711C169.514 18.1108 170.12 18.17 170.7 18.0401C172.149 20.7292 172.469 23.9058 172.778 26.9794L172.78 27.0109C172.841 27.6054 172.902 28.221 172.971 28.8239C173.255 31.3219 173.694 33.9459 174.935 36.28C174.786 36.3787 174.652 36.4922 174.523 36.6203C173.86 37.2842 173.582 38.2338 173.767 39.1372L167.937 41.3284C167.565 40.675 166.939 40.196 166.196 40.0111C166.164 40.0048 166.13 39.9964 166.099 39.9901L166.072 39.9838L165.964 39.9649C165.925 39.9586 165.883 39.9544 165.843 39.9481C165.805 39.9439 165.763 39.9397 165.71 39.9376C165.675 39.9355 165.641 39.9313 165.607 39.9313C165.542 39.9292 165.477 39.9313 165.412 39.9334C165.38 39.9355 165.349 39.9376 165.303 39.9418C165.248 39.946 165.196 39.9523 165.143 39.9586C165.109 39.9628 165.078 39.9691 165.042 39.9754C164.992 39.9838 164.939 39.9943 164.876 40.0111C164.849 40.0174 164.822 40.0237 164.796 40.0321C164.792 40.0321 164.788 40.0363 164.784 40.0363C163.343 37.3514 163.023 34.1833 162.714 31.1139L162.712 31.0824C162.651 30.4878 162.59 29.8723 162.521 29.2693C162.237 26.784 161.803 24.1726 160.563 21.8364C160.758 21.7209 160.937 21.5801 161.099 21.4183C161.754 20.746 162.032 19.7964 161.849 18.8994V18.8994ZM161.319 18.6305C161.478 19.05 161.511 19.5062 161.417 19.9444C161.322 20.3826 161.103 20.7843 160.786 21.1011C160.592 21.2944 160.361 21.4582 160.097 21.5759L160.099 21.578C160.053 21.599 160.006 21.62 159.958 21.6389L159.96 21.6452C161.305 23.9688 161.779 26.6201 162.084 29.3113C162.153 29.9227 162.216 30.5362 162.275 31.1496C162.605 34.4417 162.941 37.7317 164.567 40.5469L164.572 40.5637C164.574 40.5616 164.574 40.5616 164.578 40.5616C164.62 40.5448 164.664 40.5258 164.708 40.5069C164.717 40.5027 164.725 40.5027 164.733 40.4985C164.792 40.4775 164.849 40.4586 164.908 40.4418C164.933 40.4334 164.958 40.4292 164.985 40.4229C165.03 40.4124 165.072 40.404 165.114 40.3956C165.141 40.3893 165.17 40.3851 165.198 40.383C165.242 40.3767 165.288 40.3725 165.334 40.3683C165.366 40.3662 165.395 40.362 165.427 40.3599C165.483 40.3578 165.538 40.3578 165.593 40.3578C165.626 40.3578 165.658 40.3599 165.691 40.3641C165.725 40.3683 165.759 40.3683 165.792 40.3725C165.826 40.3767 165.862 40.383 165.895 40.3872L165.99 40.4061C166.023 40.4145 166.057 40.4187 166.091 40.4271C166.458 40.5175 166.798 40.6962 167.081 40.9477C167.364 41.1992 167.582 41.5159 167.714 41.8704L174.299 39.3956C174.141 38.9755 174.108 38.5189 174.203 38.0803C174.298 37.6418 174.517 37.2399 174.834 36.9228C175.03 36.7275 175.263 36.5657 175.528 36.4438L175.526 36.4291L175.523 36.427C174.185 34.1056 173.715 31.4584 173.408 28.7693C173.339 28.158 173.276 27.5445 173.217 26.931C172.887 23.639 172.551 20.349 170.925 17.5338C170.923 17.5275 170.918 17.5233 170.916 17.517C169.71 17.9708 168.364 17.3594 167.91 16.1535L161.319 18.6305V18.6305Z" fill="#2E7D32"/>
<path d="M169.681 33.9963C169.431 34.0908 169.25 34.2589 169.143 34.5005C169.036 34.7421 168.992 35.0972 169.011 35.5699C169.051 36.219 168.979 36.7317 168.794 37.1056C168.609 37.4796 168.296 37.7506 167.855 37.9145C167.406 38.0825 166.99 38.0909 166.605 37.9376C166.221 37.7842 165.914 37.4901 165.687 37.0531L164.979 37.3199C164.928 37.3388 164.872 37.3367 164.823 37.3143C164.774 37.2918 164.736 37.2508 164.717 37.2002L164.628 36.9691C164.591 36.864 164.641 36.7464 164.748 36.7064L165.46 36.4396C165.351 35.9564 165.408 35.5258 165.637 35.1497C165.841 34.8115 166.177 34.5425 166.647 34.3367C166.738 34.2967 166.845 34.3451 166.88 34.4396L167.038 34.8619C167.054 34.9049 167.052 34.9522 167.034 34.9943C167.016 35.0364 166.983 35.0701 166.941 35.0888C166.637 35.2295 166.418 35.4144 166.282 35.6434C166.122 35.9123 166.101 36.2022 166.219 36.5132C166.343 36.8388 166.519 37.0573 166.752 37.1644C166.986 37.2716 167.254 37.2716 167.553 37.1581C167.834 37.0531 168.021 36.8787 168.118 36.635C168.215 36.3913 168.252 36.0342 168.233 35.5657C168.212 35.0993 168.24 34.7148 168.315 34.4207C168.391 34.1266 168.515 33.8808 168.689 33.6896C168.864 33.4984 169.095 33.3471 169.385 33.2379C169.847 33.0656 170.271 33.0614 170.658 33.2337C171.044 33.406 171.357 33.7316 171.597 34.2148L172.189 33.9921C172.294 33.9543 172.412 34.0047 172.452 34.1119L172.536 34.3388C172.574 34.4438 172.523 34.5614 172.416 34.6014L171.824 34.8241C171.969 35.3514 171.937 35.8157 171.729 36.2253C171.544 36.5867 171.227 36.8703 170.778 37.072C170.685 37.114 170.58 37.0636 170.542 36.9712L170.381 36.5447C170.349 36.4585 170.385 36.3598 170.467 36.3241C170.765 36.1854 170.973 35.9942 171.084 35.7568C171.215 35.4795 171.21 35.1602 171.074 34.7925C170.939 34.4354 170.748 34.1854 170.498 34.0446C170.252 33.8997 169.977 33.885 169.681 33.9963V33.9963Z" fill="white"/>
<path d="M171.769 34.1518L171.826 34.8262L165.706 37.0468L165.5 37.1224L165.46 36.4396L171.593 34.219L171.769 34.1518Z" fill="white"/>
<path opacity="0.5" d="M169.712 27.3975C171.289 25.8206 171.289 23.2641 169.712 21.6873C168.136 20.1104 165.579 20.1104 164.002 21.6873C162.425 23.2641 162.425 25.8206 164.002 27.3975C165.579 28.9743 168.136 28.9743 169.712 27.3975Z" fill="#2E7D32"/>
<path d="M160.987 29.7021C160.756 27.6727 160.429 25.66 159.71 23.807C160.427 25.6579 160.752 27.6643 160.985 29.6916C161.347 32.8597 161.487 36.1056 162.567 39.0048C161.485 36.1077 161.349 32.866 160.987 29.7021V29.7021Z" fill="#2E7D32"/>
<path d="M169.681 14.3531L158.519 18.5485L169.654 14.3636L169.681 14.3531Z" fill="#2E7D32"/>
<path d="M176.431 27.6075C175.866 22.6557 175.887 17.559 171.96 13.8468C171.82 13.6892 171.591 13.6241 171.381 13.7039C171.378 13.706 171.376 13.7081 171.374 13.706L169.719 14.3279C173.923 18.0569 173.9 23.2986 174.477 28.3638C174.916 32.2274 175.702 36.009 178.91 38.8556C179.37 38.6813 179.771 38.5321 180.087 38.4145C180.444 38.28 180.553 37.822 180.284 37.5489C177.568 34.7778 176.843 31.221 176.431 27.6075V27.6075Z" fill="#2E7D32"/>
<path d="M160.912 29.0635C160.941 29.2862 160.964 29.4941 160.99 29.7126C161.151 31.1349 161.296 32.6497 161.448 33.9942L174.559 29.0677C174.53 28.8366 174.5 28.6013 174.475 28.366C174.315 26.9584 174.2 25.5361 174.028 24.1369L160.912 29.0635Z" fill="#FFECB3"/>
<path d="M174.03 24.1305C174.2 25.5318 174.315 26.9541 174.477 28.3638C174.505 28.597 174.532 28.8302 174.563 29.0634L176.618 29.0466C176.549 28.5697 176.488 28.0886 176.433 27.6054C176.301 26.4436 176.2 25.2713 176.074 24.1116L174.03 24.1305V24.1305Z" fill="#FFECB3"/>
<path opacity="0.5" d="M174.03 24.1305C174.2 25.5318 174.315 26.9541 174.477 28.3638C174.505 28.597 174.532 28.8302 174.563 29.0634L176.618 29.0466C176.549 28.5697 176.488 28.0886 176.433 27.6054C176.301 26.4436 176.2 25.2713 176.074 24.1116L174.03 24.1305V24.1305Z" fill="#FFB74D"/>
<path opacity="0.2" d="M157.674 19.4897L169.91 14.893L169.912 14.8909C169.916 14.8909 169.92 14.8867 169.925 14.8867L171.546 14.2774L171.549 14.2795C174.811 17.3615 175.21 21.4414 175.637 25.7588C175.698 26.3869 175.763 27.0361 175.834 27.6748C176.217 31.0362 176.87 34.8661 179.782 37.8913L178.692 38.301L178.246 38.4691L177.91 38.5951L165.939 43.0952L165.935 43.091C162.626 39.9796 162.21 35.8367 161.769 31.45C161.708 30.8555 161.647 30.2399 161.58 29.6349C161.193 26.2735 160.544 22.4436 157.674 19.4897V19.4897ZM157.187 19.0906C156.989 19.288 156.968 19.62 157.181 19.8364C159.859 22.5444 160.576 26.097 160.987 29.7021C161.553 34.6623 161.578 39.8094 165.527 43.5238C165.668 43.6814 165.897 43.7465 166.109 43.6688L166.112 43.6667C170.377 42.0643 174.643 40.4613 178.908 38.8578L178.912 38.8577C179.372 38.6834 179.774 38.5342 180.089 38.4166C180.162 38.3893 180.227 38.3451 180.278 38.2947C180.473 38.0993 180.498 37.7674 180.286 37.551C177.572 34.7778 176.845 31.2231 176.433 27.6096C175.866 22.6558 175.887 17.559 171.96 13.8468C171.82 13.6892 171.591 13.6241 171.381 13.7039C171.378 13.706 171.376 13.7081 171.374 13.706L169.719 14.3279L169.694 14.3363L157.378 18.9624C157.303 18.996 157.239 19.038 157.187 19.0906V19.0906Z" fill="#424242"/>
<path d="M185.276 16.8552C184.349 15.5632 182.213 16.7124 181.498 17.5107C179.681 19.5255 178.746 23.1243 175.353 24.0045C173.378 24.5171 175.404 26.8575 175.404 26.8575C176.049 27.5907 177.379 28.6181 178.473 28.3975C179.566 28.179 180.784 26.8848 179.912 25.8071C181.093 26.3533 183.009 26.2567 183.692 24.9016C184.011 24.305 183.744 23.4331 183.19 23.1642C184.332 23.118 186.087 21.9898 185.965 20.9393C185.765 19.7523 184.23 20.1788 183.427 20.2082C184.219 19.5255 186.068 18.0674 185.276 16.8552V16.8552Z" fill="#CFD8DC"/>
<path opacity="0.2" d="M182.009 17.8363C182.517 17.3279 183.494 16.8132 184.188 16.872C184.452 16.893 184.641 16.9939 184.786 17.1893C185.022 17.5674 184.763 18.1368 184.017 18.8826C183.736 19.1641 183.435 19.4183 183.196 19.6242L183.043 19.7565C183.032 19.767 183.019 19.7754 183.009 19.786C182.843 19.9519 182.79 20.2019 182.877 20.4225C182.969 20.6578 183.2 20.8091 183.452 20.8007C183.614 20.7944 183.793 20.7755 183.977 20.7545C185.095 20.6326 185.322 20.7377 185.381 21.0192C185.393 21.1914 185.257 21.4372 185.015 21.6788C184.54 22.1536 183.73 22.5444 183.169 22.5675C183.015 22.5738 182.874 22.639 182.774 22.7398C182.707 22.8072 182.658 22.8895 182.629 22.9797C182.601 23.07 182.594 23.1658 182.61 23.2591C182.626 23.3525 182.664 23.4407 182.72 23.5166C182.777 23.5925 182.85 23.6539 182.935 23.6957C183.043 23.7482 183.141 23.8848 183.196 24.0528C183.261 24.2524 183.251 24.4688 183.173 24.618C183.169 24.6222 183.169 24.6264 183.166 24.6327C183.099 24.7671 183.011 24.889 182.906 24.994C182.257 25.6432 180.977 25.6411 180.169 25.2651C180.058 25.2143 179.934 25.1985 179.815 25.22C179.695 25.2414 179.585 25.2989 179.498 25.3848C179.482 25.4016 179.465 25.4184 179.45 25.4415C179.28 25.6579 179.284 25.9646 179.456 26.1789C179.801 26.6075 179.536 27.0319 179.257 27.3113C179.005 27.5634 178.671 27.7504 178.362 27.8113C177.635 27.9584 176.528 27.2252 175.862 26.4668C175.393 25.9226 174.9 25.0045 175.16 24.744C175.206 24.6978 175.305 24.6327 175.511 24.5781C176.593 24.2986 177.528 23.7503 178.374 22.9037C179.234 22.0444 179.866 21.0171 180.477 20.0234C180.963 19.2355 181.423 18.4897 181.95 17.9036C181.963 17.8826 181.984 17.8615 182.009 17.8363V17.8363ZM181.589 17.4162C181.557 17.4477 181.528 17.4771 181.5 17.5086C180.259 18.8847 179.429 21.0003 177.946 22.4835C177.259 23.1705 176.429 23.723 175.353 24.0003C175.07 24.0739 174.87 24.1852 174.734 24.3218C173.918 25.1369 175.406 26.8554 175.406 26.8554C176.051 27.5886 177.381 28.616 178.475 28.3954C178.897 28.3092 179.341 28.0634 179.673 27.7315C180.198 27.2063 180.448 26.4647 179.914 25.805C180.923 26.2714 182.469 26.2672 183.322 25.4142C183.467 25.2693 183.593 25.097 183.694 24.8995C184.013 24.3029 183.746 23.431 183.192 23.1621C183.902 23.1327 184.849 22.6852 185.433 22.1011C185.79 21.744 186.013 21.3364 185.965 20.9393C185.765 19.7523 184.23 20.1788 183.427 20.2082C183.692 19.9813 184.072 19.6683 184.435 19.3049C185.158 18.5821 185.803 17.6641 185.276 16.8552C184.385 15.6115 182.377 16.6283 181.589 17.4162V17.4162Z" fill="#424242"/>
</g>
<defs>
<linearGradient id="paint0_linear" x1="35.3739" y1="17.4736" x2="35.3739" y2="17.4736" gradientUnits="userSpaceOnUse">
<stop stop-color="#43A047"/>
<stop offset="0.999" stop-color="#66BB6A"/>
</linearGradient>
<linearGradient id="paint1_linear" x1="12.8142" y1="30.6294" x2="36.8094" y2="21.6126" gradientUnits="userSpaceOnUse">
<stop stop-color="#43A047"/>
<stop offset="0.999" stop-color="#66BB6A"/>
</linearGradient>
<linearGradient id="paint2_linear" x1="41.8216" y1="49.9545" x2="41.8216" y2="49.9545" gradientUnits="userSpaceOnUse">
<stop stop-color="#43A047"/>
<stop offset="0.999" stop-color="#66BB6A"/>
</linearGradient>
<linearGradient id="paint3_linear" x1="37.5543" y1="66.8367" x2="44.8238" y2="51.4558" gradientUnits="userSpaceOnUse">
<stop stop-color="#43A047"/>
<stop offset="0.999" stop-color="#66BB6A"/>
</linearGradient>
<linearGradient id="paint4_linear" x1="153.783" y1="51.3534" x2="153.783" y2="51.3534" gradientUnits="userSpaceOnUse">
<stop stop-color="#43A047"/>
<stop offset="0.999" stop-color="#66BB6A"/>
</linearGradient>
<linearGradient id="paint5_linear" x1="141.869" y1="65.1079" x2="155.661" y2="53.7593" gradientUnits="userSpaceOnUse">
<stop stop-color="#43A047"/>
<stop offset="0.999" stop-color="#66BB6A"/>
</linearGradient>
<linearGradient id="paint6_linear" x1="158.979" y1="18.3768" x2="158.979" y2="18.3768" gradientUnits="userSpaceOnUse">
<stop stop-color="#43A047"/>
<stop offset="0.999" stop-color="#66BB6A"/>
</linearGradient>
<linearGradient id="paint7_linear" x1="172.357" y1="41.3175" x2="163.188" y2="16.9171" gradientUnits="userSpaceOnUse">
<stop stop-color="#43A047"/>
<stop offset="0.999" stop-color="#66BB6A"/>
</linearGradient>
<clipPath id="clip0">
<rect x="65.0001" y="11.9999" width="65.9995" height="65.9995" fill="white"/>
</clipPath>
<clipPath id="clip1">
<rect x="26.5754" y="2.42462" width="37.3984" height="37.3984" transform="rotate(45 26.5754 2.42462)" fill="white"/>
</clipPath>
<clipPath id="clip2">
<rect x="31.0001" y="47" width="24" height="25" fill="white"/>
</clipPath>
<clipPath id="clip3">
<rect x="144.592" y="43.4108" width="26.0589" height="26.0589" transform="rotate(26.1469 144.592 43.4108)" fill="white"/>
</clipPath>
<clipPath id="clip4">
<rect x="143.676" y="27.3239" width="38.03" height="38.03" transform="rotate(-45 143.676 27.3239)" fill="white"/>
</clipPath>
</defs>
</svg>
