<svg width="36" height="36" viewBox="0 0 36 36" fill="none" xmlns="http://www.w3.org/2000/svg">
<path d="M19.312 27.115V18.7022H22.1498L22.5716 15.4084H19.312V13.3103C19.312 12.3598 19.5768 11.7091 20.9407 11.7091H22.6691V8.77239C21.8281 8.68226 20.9829 8.63874 20.1371 8.64203C17.6288 8.64203 15.9066 10.1735 15.9066 12.9849V15.4022H13.0873V18.6961H15.9128V27.115H19.312Z" fill="black"/>
<path d="M34.7558 17.88C34.7558 27.2027 27.1992 34.76 17.8779 34.76C8.55661 34.76 1 27.2027 1 17.88C1 8.55732 8.55661 1 17.8779 1C27.1992 1 34.7558 8.55732 34.7558 17.88Z" stroke="black" stroke-width="2"/>
</svg>
