<svg width="36" height="36" viewBox="0 0 36 36" fill="none" xmlns="http://www.w3.org/2000/svg">
<g clip-path="url(#clip0)">
<path d="M27.2142 12.2056V23.7531C27.2142 24.4084 26.7148 24.9079 26.0596 24.9079H24.905V14.4279L17.9773 19.4049L11.0496 14.4279V24.9079H9.89497C9.23973 24.9079 8.74036 24.4084 8.74036 23.7531V12.2056C8.74036 11.8777 8.8639 11.589 9.07115 11.3846C9.17909 11.2766 9.30765 11.1914 9.44917 11.134C9.59069 11.0767 9.7423 11.0484 9.89497 11.0509H10.28L17.9773 16.6323L25.6745 11.0509H26.0596C26.3875 11.0509 26.6761 11.1744 26.8834 11.3846C27.0906 11.589 27.2142 11.8777 27.2142 12.2056Z" fill="black"/>
</g>
<path d="M34.7558 17.88C34.7558 27.2027 27.1992 34.76 17.8779 34.76C8.55661 34.76 1 27.2027 1 17.88C1 8.55732 8.55661 1 17.8779 1C27.1992 1 34.7558 8.55732 34.7558 17.88Z" stroke="black" stroke-width="2"/>
<defs>
<clipPath id="clip0">
<rect x="8.74036" y="8.74135" width="18.4738" height="18.476" fill="white"/>
</clipPath>
</defs>
</svg>
