<svg width="36" height="36" viewBox="0 0 36 36" fill="none" xmlns="http://www.w3.org/2000/svg">
<path d="M34.7558 17.88C34.7558 27.2027 27.1992 34.76 17.8779 34.76C8.55661 34.76 1 27.2027 1 17.88C1 8.55732 8.55661 1 17.8779 1C27.1992 1 34.7558 8.55732 34.7558 17.88Z" stroke="black" stroke-width="2"/>
<path d="M11.587 11.4167H11.5604C11.279 11.4343 10.9969 11.3935 10.7319 11.2971C10.4669 11.2006 10.2246 11.0505 10.0203 10.8561C9.81604 10.6617 9.65407 10.4272 9.54458 10.1673C9.43509 9.9074 9.38044 9.62769 9.38405 9.3457C9.38765 9.06371 9.44944 8.7855 9.56554 8.52849C9.68164 8.27148 9.84955 8.0412 10.0588 7.85208C10.268 7.66297 10.514 7.51908 10.7813 7.42943C11.0487 7.33977 11.3318 7.30629 11.6127 7.33108C11.8942 7.31141 12.1766 7.3501 12.4425 7.44472C12.7083 7.53934 12.9517 7.68785 13.1574 7.88093C13.3632 8.07402 13.5268 8.30752 13.6381 8.5668C13.7494 8.82609 13.8059 9.10556 13.8042 9.38772C13.8024 9.66987 13.7424 9.94861 13.6278 10.2065C13.5133 10.4643 13.3467 10.6958 13.1386 10.8863C12.9304 11.0767 12.6852 11.2222 12.4182 11.3135C12.1512 11.4047 11.8682 11.4399 11.587 11.4167Z" fill="black"/>
<path d="M11.587 11.4167H11.5604C11.279 11.4343 10.9969 11.3935 10.7319 11.2971C10.4669 11.2006 10.2246 11.0505 10.0203 10.8561C9.81604 10.6617 9.65407 10.4272 9.54458 10.1673C9.43509 9.9074 9.38044 9.62769 9.38405 9.3457C9.38765 9.06371 9.44944 8.7855 9.56554 8.52849C9.68164 8.27148 9.84955 8.0412 10.0588 7.85208C10.268 7.66297 10.514 7.51908 10.7813 7.42943C11.0487 7.33977 11.3318 7.30629 11.6127 7.33108C11.8942 7.31141 12.1766 7.3501 12.4425 7.44472C12.7083 7.53934 12.9517 7.68785 13.1574 7.88093C13.3632 8.07402 13.5268 8.30752 13.6381 8.5668C13.7494 8.82609 13.8059 9.10556 13.8042 9.38772C13.8024 9.66987 13.7424 9.94861 13.6278 10.2065C13.5133 10.4643 13.3467 10.6958 13.1386 10.8863C12.9304 11.0767 12.6852 11.2222 12.4182 11.3135C12.1512 11.4047 11.8682 11.4399 11.587 11.4167Z" stroke="black"/>
<path d="M9.76651 14.1667H13.4332V25.1667H9.76651V14.1667Z" fill="black"/>
<path d="M9.76651 14.1667H13.4332V25.1667H9.76651V14.1667Z" stroke="black"/>
<path d="M23.0582 14.1667C22.4403 14.1683 21.8309 14.3096 21.2753 14.5799C20.7197 14.8503 20.2324 15.2426 19.8498 15.7278V14.1667H16.1832V25.1667H19.8498V20.125C19.8498 19.6388 20.043 19.1725 20.3868 18.8286C20.7306 18.4848 21.1969 18.2917 21.6832 18.2917C22.1694 18.2917 22.6357 18.4848 22.9795 18.8286C23.3233 19.1725 23.5165 19.6388 23.5165 20.125V25.1667H27.1832V18.2917C27.1832 17.1977 26.7486 16.1484 25.975 15.3749C25.2014 14.6013 24.1522 14.1667 23.0582 14.1667Z" fill="black"/>
<path d="M23.0582 14.1667C22.4403 14.1683 21.8309 14.3096 21.2753 14.5799C20.7197 14.8503 20.2324 15.2426 19.8498 15.7278V14.1667H16.1832V25.1667H19.8498V20.125C19.8498 19.6388 20.043 19.1725 20.3868 18.8286C20.7306 18.4848 21.1969 18.2917 21.6832 18.2917C22.1694 18.2917 22.6357 18.4848 22.9795 18.8286C23.3233 19.1725 23.5165 19.6388 23.5165 20.125V25.1667H27.1832V18.2917C27.1832 17.1977 26.7486 16.1484 25.975 15.3749C25.2014 14.6013 24.1522 14.1667 23.0582 14.1667Z" stroke="black"/>
</svg>
