<svg width="312" height="247" viewBox="0 0 312 247" fill="none" xmlns="http://www.w3.org/2000/svg">
<g clip-path="url(#clip0)">
<path d="M281.094 96.2102L194.495 149.34C193.817 149.756 193.002 149.885 192.228 149.7C191.455 149.514 190.787 149.029 190.371 148.352L148.536 80.156C148.12 79.4779 147.991 78.6626 148.176 77.8893C148.362 77.1159 148.846 76.4478 149.524 76.0318L236.123 22.9018C236.801 22.4863 237.617 22.357 238.39 22.5423C239.163 22.7277 239.831 23.2125 240.248 23.8902L282.083 92.0859C282.496 92.7645 282.624 93.5792 282.439 94.352C282.254 95.1248 281.77 95.7928 281.094 96.2102Z" fill="url(#paint0_linear)"/>
<path d="M277.777 91.2906L200.036 156.699C199.428 157.211 198.641 157.461 197.849 157.393C197.057 157.326 196.324 156.946 195.811 156.339L144.292 95.1098C143.78 94.5016 143.53 93.7151 143.597 92.923C143.665 92.1309 144.044 91.398 144.652 90.8852L222.393 25.4769C223.001 24.9649 223.788 24.7152 224.58 24.7827C225.372 24.8502 226.105 25.2294 226.617 25.8369L278.123 87.0637C279.202 88.3318 279.043 90.2254 277.777 91.2906Z" fill="url(#paint1_linear)"/>
<path d="M277.68 94.4974L196.86 153.048C195.516 154.022 193.644 153.723 192.67 152.378L143.243 84.151C142.269 82.8067 142.568 80.9353 143.912 79.9615L224.732 21.4111C226.077 20.4372 227.948 20.7362 228.922 22.0805L278.349 90.3079C279.323 91.6523 279.024 93.5236 277.68 94.4974Z" fill="url(#paint2_linear)"/>
<path opacity="0.2" d="M227.121 24.027C227.178 23.9859 227.248 23.9971 227.289 24.0538L229.841 27.5765C230.285 28.1882 230.943 28.6101 231.684 28.7577C232.425 28.9053 233.194 28.7679 233.838 28.3728L238.3 25.6342C238.317 25.6225 238.341 25.6049 238.389 25.6197C238.436 25.6345 238.454 25.6588 238.466 25.675L280.176 93.6646C280.215 93.7353 280.184 93.7948 280.135 93.83L246.386 114.538C246.315 114.577 246.259 114.618 246.194 114.665C246.137 114.706 246.081 114.747 246.022 114.802L198.899 154.448C198.867 154.471 198.786 154.48 198.737 154.429L147.397 93.379C147.356 93.3223 147.367 93.2525 147.41 93.2092L149.468 91.483C150.049 90.9958 150.423 90.3067 150.515 89.5547C150.607 88.8027 150.411 88.0437 149.966 87.4307L146.475 82.6122C146.434 82.5555 146.445 82.4857 146.502 82.4447L227.127 24.0351L227.121 24.027ZM225.361 21.5975L144.736 80.0071C143.343 81.0162 143.03 82.9713 144.039 84.3642L147.53 89.1826L145.477 90.9169C144.843 91.45 144.447 92.213 144.376 93.0382C144.304 93.8633 144.564 94.683 145.096 95.3172L196.445 156.361C196.953 156.963 197.669 157.351 198.451 157.447C199.232 157.542 200.021 157.339 200.659 156.877C200.724 156.83 200.781 156.789 200.839 156.734L247.954 117.095L281.703 96.3863C282.407 95.9529 282.911 95.2581 283.104 94.4541C283.297 93.6501 283.163 92.8024 282.732 92.0967L241.022 24.1071C240.808 23.7575 240.528 23.4536 240.196 23.2126C239.865 22.9716 239.489 22.7984 239.091 22.7028C238.692 22.6072 238.279 22.5911 237.874 22.6555C237.47 22.7199 237.082 22.8634 236.733 23.0779L232.271 25.8165L229.719 22.2937C228.709 20.9008 226.754 20.5884 225.361 21.5975Z" fill="#424242"/>
<path d="M178.421 89.2779L165.253 98.8172C164.808 99.1399 164.179 99.0395 163.857 98.5941L156.277 88.1312C155.954 87.6858 156.055 87.0574 156.5 86.7347L169.668 77.1953C170.113 76.8727 170.741 76.9731 171.064 77.4185L178.644 87.8814C178.967 88.3268 178.874 88.9493 178.421 89.2779Z" fill="#757575"/>
<path d="M195.735 76.7347L182.559 86.28C182.114 86.6026 181.485 86.5022 181.163 86.0568L173.583 75.5939C173.26 75.1485 173.36 74.5201 173.806 74.1974L186.973 64.6581C187.419 64.3354 188.047 64.4358 188.37 64.8812L195.95 75.3441C196.281 75.7836 196.18 76.4121 195.735 76.7347Z" fill="#757575"/>
<path d="M213.041 64.1974L199.865 73.7427C199.42 74.0654 198.791 73.9649 198.468 73.5195L190.889 63.0566C190.566 62.6112 190.666 61.9828 191.112 61.6601L204.279 52.1208C204.725 51.7981 205.353 51.8985 205.676 52.3439L213.256 62.8068C213.587 63.2463 213.486 63.8748 213.041 64.1974Z" fill="#757575"/>
<path d="M240.257 54.3465L170.734 104.713C169.852 105.352 168.609 105.154 167.969 104.271L167.875 104.141C167.236 103.259 167.435 102.016 168.317 101.376L237.84 51.0101C238.723 50.3706 239.966 50.5692 240.605 51.4519L240.699 51.5815C241.345 52.4723 241.14 53.7071 240.257 54.3465Z" fill="#B4B4B5"/>
<path d="M213.849 124.477L194.98 138.147C194.09 138.792 192.833 138.591 192.187 137.7L173.026 111.252C172.381 110.361 172.582 109.104 173.473 108.459L192.342 94.789C193.232 94.1437 194.489 94.3445 195.135 95.2353L214.295 121.684C214.947 122.583 214.748 123.826 213.849 124.477Z" fill="#757575"/>
<path d="M198.659 93.0774L244.341 59.9829" stroke="#757575" stroke-width="1.981" stroke-miterlimit="10" stroke-linecap="round" stroke-linejoin="round"/>
<path d="M203.493 99.7503L249.175 66.6558" stroke="#757575" stroke-width="1.981" stroke-miterlimit="10" stroke-linecap="round" stroke-linejoin="round"/>
<path d="M210.534 51.0721L229.726 37.1679" stroke="#B4B4B5" stroke-width="1.981" stroke-miterlimit="10" stroke-linecap="round" stroke-linejoin="round"/>
<path d="M215.374 57.7532L234.566 43.8489" stroke="#B4B4B5" stroke-width="1.981" stroke-miterlimit="10" stroke-linecap="round" stroke-linejoin="round"/>
<path d="M208.327 106.423L254.009 73.3288" stroke="#757575" stroke-width="1.981" stroke-miterlimit="10" stroke-linecap="round" stroke-linejoin="round"/>
<path d="M213.167 113.104L258.849 80.0098" stroke="#757575" stroke-width="1.981" stroke-miterlimit="10" stroke-linecap="round" stroke-linejoin="round"/>
<path d="M218.001 119.777L263.683 86.6827" stroke="#757575" stroke-width="1.981" stroke-miterlimit="10" stroke-linecap="round" stroke-linejoin="round"/>
</g>
<g clip-path="url(#clip1)">
<path d="M274.397 202.35C273.889 203.833 272.813 205.053 271.406 205.743C269.999 206.432 268.375 206.534 266.892 206.027L239.104 196.515C237.621 196.007 236.401 194.932 235.711 193.525C235.022 192.118 234.919 190.495 235.426 189.012L250.1 146.13C250.352 145.396 250.745 144.719 251.258 144.137C251.771 143.555 252.394 143.079 253.091 142.738C253.788 142.397 254.545 142.196 255.319 142.148C256.094 142.099 256.87 142.204 257.604 142.455L285.395 151.965C286.877 152.472 288.097 153.548 288.786 154.955C289.476 156.361 289.578 157.985 289.071 159.467L274.398 202.349" fill="#C3C3C3"/>
<path d="M272.342 211.534C271.478 212.842 270.131 213.753 268.597 214.067C267.062 214.382 265.465 214.075 264.157 213.213L239.634 197.042C238.327 196.178 237.416 194.831 237.101 193.297C236.786 191.762 237.093 190.166 237.955 188.857L262.905 151.024C263.332 150.376 263.882 149.818 264.525 149.382C265.167 148.947 265.889 148.643 266.649 148.487C267.409 148.331 268.193 148.326 268.955 148.473C269.717 148.62 270.443 148.916 271.09 149.344L295.614 165.514C296.921 166.378 297.832 167.725 298.147 169.26C298.462 170.794 298.154 172.391 297.292 173.699L272.343 211.534" fill="#969698"/>
<path d="M273.871 201.132C273.631 201.835 273.255 202.483 272.765 203.04C272.274 203.596 271.679 204.051 271.012 204.378C270.346 204.704 269.621 204.896 268.881 204.942C268.14 204.989 267.397 204.888 266.695 204.648L240.102 195.55C239.4 195.31 238.752 194.934 238.195 194.443C237.639 193.952 237.184 193.357 236.858 192.69C236.531 192.024 236.339 191.299 236.293 190.559C236.246 189.818 236.346 189.076 236.587 188.374L250.628 147.345C250.869 146.643 251.245 145.995 251.735 145.438C252.226 144.881 252.822 144.426 253.488 144.1C254.155 143.774 254.879 143.582 255.619 143.535C256.36 143.489 257.103 143.589 257.805 143.83L284.397 152.928C285.099 153.168 285.747 153.545 286.304 154.036C286.861 154.526 287.315 155.122 287.642 155.789C287.968 156.455 288.16 157.18 288.206 157.92C288.252 158.661 288.152 159.404 287.911 160.106L273.869 201.133" fill="#D1D2D3"/>
<path d="M262.046 158.352C262.006 158.465 261.267 158.314 260.393 158.015L252.512 155.319C251.639 155.018 250.96 154.686 250.997 154.573L251.532 153.016C251.569 152.903 252.31 153.058 253.185 153.356L261.064 156.054C261.939 156.351 262.617 156.686 262.579 156.798L262.046 158.352Z" fill="#AAAAAA"/>
<path d="M260.604 162.573C260.565 162.686 259.825 162.535 258.951 162.23L251.07 159.537C250.197 159.236 249.517 158.905 249.556 158.79L250.089 157.237C250.123 157.123 250.865 157.275 251.741 157.575L259.619 160.271C260.496 160.572 261.171 160.902 261.136 161.016L260.604 162.573Z" fill="#AAAAAA"/>
<path d="M259.066 167.067C259.028 167.181 258.289 167.028 257.411 166.728L249.532 164.03C248.657 163.733 247.979 163.398 248.018 163.287L248.55 161.732C248.588 161.621 249.329 161.77 250.201 162.072L258.083 164.766C258.959 165.066 259.637 165.4 259.596 165.511L259.066 167.067Z" fill="#AAAAAA"/>
<path d="M273.835 192.579C273.796 192.692 273.056 192.541 272.18 192.24L264.302 189.544C263.427 189.246 262.75 188.912 262.788 188.796L263.319 187.242C263.357 187.132 264.1 187.284 264.973 187.584L272.853 190.278C273.728 190.579 274.405 190.911 274.368 191.023L273.835 192.579Z" fill="#AAAAAA"/>
<path d="M272.391 196.796C272.355 196.911 271.612 196.758 270.738 196.458L262.859 193.763C261.983 193.463 261.307 193.131 261.346 193.017L261.878 191.461C261.913 191.348 262.655 191.502 263.53 191.801L271.409 194.498C272.286 194.797 272.962 195.13 272.922 195.242L272.391 196.796Z" fill="#AAAAAA"/>
<path d="M270.852 201.295C270.816 201.406 270.075 201.255 269.2 200.954L261.319 198.258C260.445 197.959 259.766 197.626 259.806 197.514L260.336 195.959C260.375 195.848 261.117 195.998 261.992 196.296L269.871 198.994C270.747 199.295 271.422 199.625 271.385 199.737L270.852 201.295Z" fill="#AAAAAA"/>
<path d="M277.974 180.488C277.935 180.602 275.846 179.986 273.302 179.115L250.418 171.283C247.879 170.413 245.848 169.617 245.886 169.506L246.415 167.949C246.457 167.837 248.548 168.453 251.089 169.323L273.965 177.15C276.507 178.019 278.538 178.816 278.5 178.926L277.968 180.481" fill="#AAAAAA"/>
<path d="M276.665 184.492C276.627 184.604 274.536 183.989 271.992 183.119L249.108 175.286C246.567 174.418 244.539 173.621 244.577 173.508L245.109 171.953C245.148 171.841 247.238 172.454 249.78 173.324L272.664 181.157C275.205 182.025 277.233 182.821 277.196 182.933L276.664 184.491" fill="#AAAAAA"/>
<path d="M275.235 188.66C275.197 188.771 273.107 188.157 270.561 187.286L247.678 179.453C245.139 178.585 243.107 177.787 243.145 177.679L243.677 176.122C243.717 176.01 245.807 176.623 248.348 177.494L271.232 185.327C273.775 186.2 275.804 186.993 275.766 187.106L275.234 188.661" fill="#AAAAAA"/>
<path d="M282.33 161.399C282.586 161.486 282.822 161.623 283.025 161.802C283.228 161.98 283.393 162.197 283.512 162.44C283.631 162.683 283.701 162.947 283.718 163.217C283.734 163.486 283.698 163.757 283.61 164.012L280.297 173.698C280.12 174.215 279.745 174.64 279.255 174.881C278.764 175.122 278.198 175.158 277.681 174.981L262.737 169.867C262.221 169.69 261.796 169.315 261.556 168.825C261.316 168.335 261.28 167.77 261.457 167.253L264.77 157.564C264.858 157.308 264.996 157.072 265.175 156.87C265.354 156.667 265.571 156.502 265.814 156.383C266.057 156.264 266.321 156.195 266.591 156.178C266.861 156.161 267.132 156.198 267.387 156.286L282.331 161.4" fill="#27A8E0"/>
<path d="M259.058 184.88C260.108 185.241 260.697 186.296 260.375 187.243L257.458 195.76C257.135 196.707 256.021 197.181 254.97 196.822L240.372 191.825C239.32 191.466 238.731 190.407 239.054 189.463L241.971 180.946C242.291 179.998 243.408 179.526 244.459 179.883L259.058 184.88Z" fill="#AEADAD"/>
</g>
<g clip-path="url(#clip2)">
<path d="M148.803 145.886C147.675 144.819 146.41 143.719 144.838 142.691C142.262 140.989 140.211 140.139 140.211 140.139L140.073 140.106C139.228 139.688 138.212 139.374 137.197 139.06C133.285 137.477 129.307 136.169 125.212 135.051L124.524 134.887C121.202 133.88 117.847 133.011 114.408 132.194L113.995 132.096C110.555 131.279 107.03 130.515 103.472 129.888C102.234 129.594 100.825 129.405 99.2267 129.098C97.1301 128.745 95.0335 128.393 92.8518 128.092C91.9411 127.949 90.9452 127.858 89.8642 127.819C89.2287 127.741 88.6783 127.61 88.0953 127.617C87.6627 127.296 86.2799 126.386 84.511 126.184C82.349 126.107 79.8138 126.377 79.8138 126.377L79.5584 126.534C77.9271 126.365 77.0164 126.221 77.0164 126.221L76.9312 126.274C75.4177 125.914 73.9042 125.555 72.4955 125.366C71.6373 125.307 70.7791 125.249 69.9535 125.053C68.1321 124.766 64.5615 124.499 61.1285 124.265C58.0034 123.959 55.1208 123.856 52.6837 123.713C45.8702 123.331 41.7364 123.294 41.7364 123.294C27.4981 130.305 23.0668 137.029 21.8629 139.65C21.647 140.253 21.9291 140.902 22.5319 141.117C23.2199 141.281 24.3207 141.542 25.6441 141.784C24.675 142.499 23.7583 143.298 22.7891 144.013C22.2456 144.465 22.3247 145.356 22.98 145.657L27.8947 147.915C25.492 150.687 21.2895 156.448 22.5133 165.678C22.5856 165.986 22.7954 166.326 23.123 166.477C24.3812 166.994 27.8477 168.616 33.3782 170.729C34.3302 174.371 35.5634 177.135 35.9177 178.091C35.9702 178.176 36.3176 178.55 36.4552 178.582C56.7022 185.135 69.7084 188.515 69.7084 188.515L71.3595 188.907L71.6742 189.417C71.6742 189.417 72.8146 190.124 73.9153 190.386C74.8785 190.614 76.49 190.561 77.0206 190.469C78.259 190.763 79.1697 190.907 79.6349 191.09C92.4183 194.489 105.672 195.602 118.652 198.176C119.149 198.221 120.525 198.548 120.879 197.978C121.147 197.46 120.623 196.609 120.413 196.268C119.626 194.991 118.76 192.823 118.077 190.19C122.873 191.111 130.892 191.925 137.573 189.805C141.981 188.381 145.334 186.198 147.476 184.526C149.257 182.841 153.322 178.574 155.041 171.642C155.453 170.213 156.231 166.328 155.488 161.5C156.008 154.719 152.533 149.461 148.803 145.886Z" fill="#A1887F"/>
<path d="M147.854 148.35L84.4611 130.678C84.4611 130.678 71.9806 141.305 68.7946 148.906C65.6085 156.508 70.3522 168.972 70.3522 168.972C70.3522 168.972 119.988 186.428 132.317 186.231C144.646 186.034 151.375 174.841 152.499 171.329C153.762 167.849 154.284 154.019 147.854 148.35Z" fill="#455A64"/>
<path d="M136.893 156.866C136.893 156.866 143.313 157.374 144.849 162.535C146.385 167.696 143.767 172.598 143.767 172.598L120.881 167.672C120.881 167.672 130.38 155.828 136.893 156.866Z" fill="#78909C"/>
<path d="M137.137 183.379C137.137 183.379 127.186 184.577 124.927 174.81C122.885 165.967 131.613 158.592 136.893 156.866L106.871 150.463C106.871 150.463 97.0738 167.541 101.702 173.147C106.331 178.752 128.289 187.891 137.137 183.379Z" fill="#B0BEC5"/>
<path d="M147.548 184.834C145.407 186.506 142.106 188.774 137.645 190.113C128.777 192.876 117.619 190.59 114.657 189.596L115.307 180.738C117.548 181.706 120.72 183.041 124.762 184.074C129.768 185.335 133.313 186.323 136.942 185.731C144.423 184.528 151.107 176.885 152.852 169.232C155.577 157.452 146.36 146.687 147.434 146.142C148.167 145.808 153.051 151.256 154.975 158.762C156.662 165.122 155.506 170.299 155.114 171.95C153.395 178.882 149.329 183.149 147.548 184.834Z" fill="#78909C"/>
<path d="M153.79 160.08C154.112 161.174 154.44 162.85 154.448 164.96C154.709 175.488 146.885 182.423 146.426 182.823C144.796 184.18 139.885 188.029 132.515 188.459C126.842 188.783 122.445 186.794 120.564 185.839C118.454 184.32 114.416 180.817 113.063 175.191C110.988 166.485 116.236 156.321 126.374 150.662C124.678 152.294 122.276 155.066 120.66 159.116C120.11 160.512 114.864 173.729 122.218 180.708C127.613 185.841 137 184.873 142.704 181.358C151.218 176.112 155.115 163.374 149.913 151.31L153.79 160.08Z" fill="#78909C"/>
<path d="M155.56 161.808C152.477 143.27 130.682 145.071 124.168 152.609C119.886 157.479 117.308 162.826 116.223 168.31C116.08 169.221 115.368 172.831 115.731 177.423C116.12 182.821 118.249 193.138 120.432 196.491C120.59 196.746 121.252 197.63 120.899 198.2C120.545 198.771 119.084 198.496 118.671 198.398C105.692 195.825 92.4381 194.712 79.6547 191.313C78.9668 191.149 77.5057 190.875 75.5269 190.332C73.4105 189.757 71.602 189.11 69.6757 188.652C69.6757 188.652 56.6696 185.273 36.4225 178.72C36.2325 178.602 35.9375 178.314 35.885 178.229C34.5271 175.072 25.1533 153.95 42.1073 141.624C60.4561 128.321 73.5129 128.732 73.5129 128.732L140.178 140.277C140.263 140.224 156.481 146.91 155.56 161.808Z" fill="#B0BEC5"/>
<path d="M30.3439 146.17C30.3439 146.17 20.8285 152.269 22.5658 165.763C22.638 166.071 22.8479 166.412 23.1755 166.562C27.7428 168.446 60.1343 183.842 108.287 186.121C108.287 186.121 104.989 169.712 110.873 159.626L30.3439 146.17Z" fill="#ECEFF1"/>
<path d="M49.2623 154.951C49.2623 154.951 47.0643 160.534 46.2474 163.974C46.2474 163.974 36.4584 161.431 32.1328 158.224C32.1328 158.224 33.5577 152.53 37.5917 149.927L49.2623 154.951Z" fill="#B0BEC5"/>
<path d="M84.4882 166.369L82.1673 174.612C82.1673 174.612 89.0668 176.469 97.4325 176.13L97.4866 167.639L84.4882 166.369Z" fill="#B0BEC5"/>
<path d="M56.3923 158.898C56.3923 158.898 53.8787 162.443 53.816 167.298C53.816 167.298 64.9758 172.637 75.3727 172.926C75.3727 172.926 76.3186 165.883 77.765 163.465L56.3923 158.898Z" fill="#B0BEC5"/>
<path d="M46.2383 125.453C38.4394 131.668 30.7781 137.916 23.0643 144.078C22.5208 144.531 22.5999 145.422 23.2552 145.723C30.7584 149.321 38.9625 152.723 47.7299 155.896C71.1029 164.281 92.731 168.69 111.246 170.907C111.716 168.62 112.448 165.233 114.221 161.439C115.909 157.697 119.037 150.954 126.398 146.888C130.76 144.436 134.802 143.942 136.551 143.921C141.589 143.519 146.857 145.206 148.855 145.971C146.686 143.784 143.867 141.88 140.126 140.191C136.987 138.719 132.296 137.969 129.976 137.636C121.42 136.33 113.137 133.564 104.568 132.619C90.4164 131.003 70.7481 128.439 46.2383 125.453Z" fill="#CFD8DC"/>
<path d="M22.0005 139.683C23.2044 137.062 27.6357 130.338 41.874 123.326C41.874 123.326 54.911 123.515 72.6331 125.398C75.3979 125.692 78.4646 126.856 81.5045 127.215C84.6821 127.606 89.7069 127.564 93.0745 128.073C108.589 130.376 123.344 133.735 137.387 139.178C137.387 139.178 126.145 139.996 117.406 150.785C111.861 157.608 109.514 166.571 109.514 166.571C109.514 166.571 85.7489 159.837 71.1432 154.624C50.6992 147.371 27.9308 142.254 22.6695 141.15C22.0667 140.934 21.7846 140.286 22.0005 139.683Z" fill="#ECEFF1"/>
<path d="M102.869 129.672C102.869 129.672 96.9616 131.903 92.968 136.478L69.3353 132.246C69.3353 132.246 71.5737 128.635 76.4136 126.005C76.466 126.091 94.1357 127.889 102.869 129.672Z" fill="#B0BEC5"/>
<path d="M66.8603 134.711L90.6504 139.198C90.6504 139.198 86.4203 142.627 83.647 150.326L60.6541 142.176C60.6541 142.176 63.0292 137.072 66.8603 134.711Z" fill="#B0BEC5"/>
<path d="M124.472 134.802C124.472 134.802 108.921 138.159 100.888 157.909C100.888 157.909 94.4009 156.15 92.638 155.005C92.638 155.005 94.0422 147.562 100.877 139.592C106.291 133.319 113.34 131.795 113.34 131.795L124.472 134.802Z" fill="#B0BEC5"/>
<path d="M69.318 124.974C69.318 124.974 59.8146 129.186 53.721 138.931L35.8802 135.712C35.8802 135.712 41.2411 127.827 51.9106 123.602C52.0482 123.635 65.1446 124.492 69.318 124.974Z" fill="#B0BEC5"/>
<path d="M111.246 170.907C111.246 170.907 113.156 153.991 126.241 146.633C136.124 141.131 144.242 143.059 146.188 143.739C147.38 144.531 151.136 147.385 153.733 152.362C156.54 157.68 155.337 161.828 155.58 162.031C155.58 162.031 155.642 157.176 152.337 151.813C150.239 148.407 146.051 145.232 145.055 145.141C140.862 144.436 133.603 144.093 127.048 148.133C116.576 154.585 115.028 162.939 112.759 169.74L111.246 170.907Z" fill="#546E7A"/>
<path d="M111.246 170.907L107.708 170.503L107.682 171.224C107.682 171.224 110.899 172.06 111.876 171.929C112.852 171.797 112.896 169.773 112.896 169.773L111.246 170.907Z" fill="#546E7A"/>
<path d="M108.868 171.433C108.868 171.433 107.804 177.139 108.543 185.963L108.202 186.173C108.202 186.173 106.546 178.149 107.545 171.191L108.868 171.433Z" fill="#546E7A"/>
<path d="M88.4556 127.63C88.4556 127.63 86.8956 126.242 84.6812 126.079C82.4668 125.917 79.9841 126.272 79.9841 126.272C79.9841 126.272 65.0407 137.477 61.38 151.361C58.9026 160.875 62.2188 174.453 71.504 189.522C71.504 189.522 72.6443 190.229 73.745 190.491C74.8458 190.752 77.1256 190.639 77.1256 190.639C77.1256 190.639 64.4176 170.397 67.9201 154.731C70.75 143.121 80.2895 133.249 88.4556 127.63Z" fill="#8D6E63"/>
<path d="M76.3844 132.249C76.3844 132.249 66.8639 140.817 63.9994 149.512C61.135 158.207 63.0924 167.102 64.1554 169.971C65.1332 172.892 66.9606 172.236 66.8806 169.819C66.8857 167.349 64.0047 158.67 66.6929 151.024C69.5315 143.049 72.9954 140.093 77.3622 135.17C81.7617 130.11 78.1654 130.564 76.3844 132.249Z" fill="#A1887F"/>
</g>
<defs>
<linearGradient id="paint0_linear" x1="193.021" y1="49.7956" x2="237.744" y2="122.696" gradientUnits="userSpaceOnUse">
<stop offset="0.007" stop-color="#B4B4B5"/>
<stop offset="0.365" stop-color="#B2B2B3"/>
<stop offset="0.569" stop-color="#AAA9AA"/>
<stop offset="0.734" stop-color="#9C9C9D"/>
<stop offset="0.877" stop-color="#898889"/>
<stop offset="1" stop-color="#717071"/>
</linearGradient>
<linearGradient id="paint1_linear" x1="183.785" y1="58.477" x2="238.84" y2="123.922" gradientUnits="userSpaceOnUse">
<stop offset="0.012" stop-color="#EEEEEF"/>
<stop offset="0.307" stop-color="#ECECED"/>
<stop offset="0.475" stop-color="#E4E3E4"/>
<stop offset="0.611" stop-color="#D6D6D7"/>
<stop offset="0.73" stop-color="#C2C2C3"/>
<stop offset="0.837" stop-color="#A9A8A9"/>
<stop offset="0.935" stop-color="#8A898A"/>
<stop offset="1" stop-color="#717071"/>
</linearGradient>
<linearGradient id="paint2_linear" x1="184.563" y1="51.0219" x2="237.21" y2="123.693" gradientUnits="userSpaceOnUse">
<stop offset="0.006" stop-color="#EEEEEF"/>
<stop offset="0.347" stop-color="#ECECED"/>
<stop offset="0.541" stop-color="#E3E3E4"/>
<stop offset="0.698" stop-color="#D6D6D7"/>
<stop offset="0.835" stop-color="#C2C2C3"/>
<stop offset="0.958" stop-color="#A8A8A9"/>
<stop offset="1" stop-color="#9E9E9F"/>
</linearGradient>
<clipPath id="clip0">
<rect x="123" y="75.0947" width="128" height="128" transform="rotate(-35.9216 123 75.0947)" fill="white"/>
</clipPath>
<clipPath id="clip1">
<rect x="259.453" y="133" width="64" height="64" transform="rotate(35.8171 259.453 133)" fill="white"/>
</clipPath>
<clipPath id="clip2">
<rect y="137.147" width="128" height="128" transform="rotate(-31.6405 0 137.147)" fill="white"/>
</clipPath>
</defs>
</svg>
