<svg width="296" height="288" viewBox="0 0 296 288" fill="none" xmlns="http://www.w3.org/2000/svg">
<g clip-path="url(#clip0)">
<path d="M275.094 74.2102L188.495 127.34C187.817 127.756 187.002 127.885 186.228 127.7C185.455 127.514 184.787 127.029 184.371 126.352L142.536 58.156C142.12 57.4779 141.991 56.6626 142.176 55.8893C142.362 55.1159 142.846 54.4478 143.524 54.0318L230.123 0.901799C230.801 0.486277 231.617 0.356977 232.39 0.542315C233.163 0.727653 233.831 1.21247 234.248 1.8902L276.083 70.0859C276.496 70.7645 276.624 71.5792 276.439 72.352C276.254 73.1248 275.77 73.7928 275.094 74.2102V74.2102Z" fill="url(#paint0_linear)"/>
<path d="M271.777 69.2906L194.036 134.699C193.428 135.211 192.641 135.461 191.849 135.393C191.057 135.326 190.324 134.946 189.811 134.339L138.292 73.1098C137.78 72.5016 137.53 71.7151 137.597 70.923C137.665 70.1309 138.044 69.398 138.652 68.8852L216.393 3.47691C217.001 2.96491 217.788 2.71524 218.58 2.78274C219.372 2.85023 220.105 3.22937 220.617 3.83688L272.123 65.0637C273.202 66.3318 273.043 68.2254 271.777 69.2906V69.2906Z" fill="url(#paint1_linear)"/>
<path d="M271.68 72.4974L190.86 131.048C189.516 132.022 187.644 131.723 186.67 130.378L137.243 62.151C136.269 60.8067 136.568 58.9353 137.912 57.9615L218.732 -0.588904C220.077 -1.56279 221.948 -1.26378 222.922 0.0805278L272.349 68.3079C273.323 69.6523 273.024 71.5236 271.68 72.4974V72.4974Z" fill="url(#paint2_linear)"/>
<path opacity="0.2" d="M221.121 2.02699C221.178 1.98592 221.248 1.99708 221.289 2.05377L223.841 5.57649C224.285 6.18824 224.943 6.61008 225.684 6.7577C226.425 6.90532 227.194 6.76785 227.838 6.37276L232.3 3.63423C232.317 3.6225 232.341 3.6049 232.389 3.61969C232.436 3.63448 232.454 3.65878 232.466 3.67497L274.176 71.6646C274.215 71.7353 274.184 71.7948 274.135 71.83L240.386 92.5382C240.315 92.5771 240.259 92.6181 240.194 92.6651C240.137 92.7061 240.081 92.7472 240.022 92.8022L192.899 132.448C192.867 132.471 192.786 132.48 192.737 132.429L141.397 71.379C141.356 71.3223 141.367 71.2525 141.41 71.2092L143.468 69.483C144.049 68.9958 144.423 68.3067 144.515 67.5547C144.607 66.8027 144.411 66.0437 143.965 65.4307L140.475 60.6122C140.434 60.5555 140.445 60.4857 140.502 60.4447L221.127 2.03509L221.121 2.02699ZM219.361 -0.402474L138.736 58.0071C137.343 59.0162 137.03 60.9713 138.039 62.3642L141.53 67.1826L139.477 68.9169C138.843 69.45 138.447 70.213 138.376 71.0382C138.304 71.8633 138.564 72.683 139.096 73.3172L190.445 134.361C190.953 134.963 191.669 135.351 192.451 135.447C193.232 135.542 194.021 135.339 194.659 134.877C194.724 134.83 194.781 134.789 194.839 134.734L241.954 95.0945L275.703 74.3863C276.407 73.9529 276.911 73.2581 277.104 72.4541C277.297 71.6501 277.163 70.8024 276.732 70.0967L235.022 2.10707C234.808 1.75751 234.528 1.45355 234.196 1.21259C233.865 0.971622 233.489 0.798385 233.091 0.702793C232.692 0.607201 232.279 0.591129 231.874 0.6555C231.47 0.719871 231.082 0.86342 230.732 1.07793L226.271 3.81646L223.718 0.293735C222.709 -1.09916 220.754 -1.41156 219.361 -0.402474V-0.402474Z" fill="#424242"/>
<path d="M172.421 67.2779L159.253 76.8172C158.808 77.1399 158.179 77.0395 157.857 76.5941L150.277 66.1312C149.954 65.6858 150.055 65.0574 150.5 64.7347L163.668 55.1953C164.113 54.8727 164.741 54.9731 165.064 55.4185L172.644 65.8814C172.967 66.3268 172.874 66.9493 172.421 67.2779Z" fill="#757575"/>
<path d="M189.735 54.7347L176.559 64.28C176.114 64.6026 175.485 64.5022 175.163 64.0568L167.583 53.5939C167.26 53.1485 167.36 52.5201 167.806 52.1974L180.973 42.6581C181.419 42.3354 182.047 42.4358 182.37 42.8812L189.95 53.3441C190.281 53.7836 190.18 54.4121 189.735 54.7347V54.7347Z" fill="#757575"/>
<path d="M207.041 42.1974L193.865 51.7427C193.42 52.0654 192.791 51.9649 192.468 51.5195L184.889 41.0566C184.566 40.6112 184.666 39.9828 185.112 39.6601L198.279 30.1208C198.725 29.7981 199.353 29.8985 199.676 30.3439L207.256 40.8068C207.587 41.2463 207.486 41.8748 207.041 42.1974Z" fill="#757575"/>
<path d="M234.257 32.3465L164.734 82.7128C163.852 83.3523 162.609 83.1537 161.969 82.2709L161.875 82.1414C161.236 81.2587 161.435 80.0158 162.317 79.3763L231.84 29.0101C232.723 28.3706 233.966 28.5692 234.605 29.4519L234.699 29.5815C235.345 30.4723 235.14 31.7071 234.257 32.3465Z" fill="#B4B4B5"/>
<path d="M207.849 102.477L188.98 116.147C188.09 116.792 186.833 116.591 186.187 115.7L167.026 89.2516C166.381 88.3608 166.582 87.1039 167.473 86.4586L186.342 72.789C187.232 72.1437 188.489 72.3445 189.135 73.2353L208.295 99.6841C208.947 100.583 208.748 101.826 207.849 102.477V102.477Z" fill="#757575"/>
<path d="M192.659 71.0774L238.341 37.9829" stroke="#757575" stroke-width="1.981" stroke-miterlimit="10" stroke-linecap="round" stroke-linejoin="round"/>
<path d="M197.493 77.7503L243.175 44.6558" stroke="#757575" stroke-width="1.981" stroke-miterlimit="10" stroke-linecap="round" stroke-linejoin="round"/>
<path d="M204.534 29.0721L223.726 15.1679" stroke="#B4B4B5" stroke-width="1.981" stroke-miterlimit="10" stroke-linecap="round" stroke-linejoin="round"/>
<path d="M209.374 35.7532L228.566 21.8489" stroke="#B4B4B5" stroke-width="1.981" stroke-miterlimit="10" stroke-linecap="round" stroke-linejoin="round"/>
<path d="M202.327 84.4232L248.009 51.3288" stroke="#757575" stroke-width="1.981" stroke-miterlimit="10" stroke-linecap="round" stroke-linejoin="round"/>
<path d="M207.167 91.1042L252.849 58.0098" stroke="#757575" stroke-width="1.981" stroke-miterlimit="10" stroke-linecap="round" stroke-linejoin="round"/>
<path d="M212.001 97.7772L257.683 64.6827" stroke="#757575" stroke-width="1.981" stroke-miterlimit="10" stroke-linecap="round" stroke-linejoin="round"/>
</g>
<g clip-path="url(#clip1)">
<path d="M240.397 243.35C239.889 244.833 238.813 246.053 237.406 246.743C235.999 247.432 234.375 247.534 232.892 247.027L205.104 237.515C203.621 237.007 202.401 235.932 201.711 234.525C201.022 233.118 200.919 231.495 201.426 230.012L216.1 187.13C216.352 186.396 216.745 185.719 217.258 185.137C217.771 184.555 218.394 184.079 219.091 183.738C219.788 183.397 220.545 183.196 221.319 183.148C222.094 183.099 222.87 183.204 223.604 183.455L251.395 192.965C252.877 193.472 254.097 194.548 254.786 195.955C255.476 197.361 255.578 198.985 255.071 200.467L240.398 243.349" fill="#C3C3C3"/>
<path d="M238.342 252.534C237.478 253.842 236.131 254.753 234.597 255.067C233.062 255.382 231.465 255.075 230.157 254.213L205.634 238.042C204.327 237.178 203.416 235.831 203.101 234.297C202.786 232.762 203.093 231.166 203.955 229.857L228.905 192.024C229.332 191.376 229.882 190.818 230.525 190.382C231.167 189.947 231.889 189.643 232.649 189.487C233.409 189.331 234.193 189.326 234.955 189.473C235.717 189.62 236.443 189.916 237.09 190.344L261.614 206.514C262.921 207.378 263.832 208.725 264.147 210.26C264.462 211.794 264.154 213.391 263.292 214.699L238.343 252.534" fill="#969698"/>
<path d="M239.871 242.132C239.631 242.835 239.255 243.483 238.765 244.04C238.274 244.596 237.679 245.051 237.012 245.378C236.346 245.704 235.621 245.896 234.881 245.942C234.14 245.989 233.397 245.888 232.695 245.648L206.102 236.55C205.4 236.31 204.752 235.934 204.195 235.443C203.639 234.952 203.184 234.357 202.858 233.69C202.531 233.024 202.339 232.299 202.293 231.559C202.246 230.818 202.346 230.076 202.587 229.374L216.628 188.345C216.869 187.643 217.245 186.995 217.735 186.438C218.226 185.881 218.822 185.426 219.488 185.1C220.155 184.774 220.879 184.582 221.619 184.535C222.36 184.489 223.103 184.589 223.805 184.83L250.397 193.928C251.099 194.168 251.747 194.545 252.304 195.036C252.861 195.526 253.315 196.122 253.642 196.789C253.968 197.455 254.16 198.18 254.206 198.92C254.252 199.661 254.152 200.404 253.911 201.106L239.869 242.133" fill="#D1D2D3"/>
<path d="M228.046 199.352C228.006 199.465 227.267 199.314 226.393 199.015L218.512 196.319C217.639 196.018 216.96 195.686 216.997 195.573L217.532 194.016C217.569 193.903 218.31 194.058 219.185 194.356L227.064 197.054C227.939 197.351 228.617 197.686 228.579 197.798L228.046 199.352" fill="#AAAAAA"/>
<path d="M226.604 203.573C226.565 203.686 225.825 203.535 224.951 203.23L217.07 200.537C216.197 200.236 215.517 199.905 215.556 199.79L216.089 198.237C216.123 198.123 216.865 198.275 217.741 198.575L225.619 201.271C226.496 201.572 227.171 201.902 227.136 202.016L226.604 203.573" fill="#AAAAAA"/>
<path d="M225.066 208.067C225.028 208.181 224.289 208.028 223.411 207.728L215.532 205.03C214.657 204.733 213.979 204.398 214.018 204.287L214.55 202.732C214.588 202.621 215.329 202.77 216.201 203.072L224.083 205.766C224.959 206.066 225.637 206.4 225.596 206.511L225.066 208.067Z" fill="#AAAAAA"/>
<path d="M239.835 233.579C239.796 233.692 239.056 233.541 238.18 233.24L230.302 230.544C229.427 230.246 228.75 229.912 228.788 229.796L229.319 228.242C229.357 228.132 230.1 228.284 230.973 228.584L238.853 231.278C239.728 231.579 240.405 231.911 240.368 232.023L239.835 233.579" fill="#AAAAAA"/>
<path d="M238.391 237.796C238.355 237.911 237.612 237.758 236.738 237.458L228.859 234.763C227.983 234.463 227.307 234.131 227.346 234.017L227.878 232.461C227.913 232.348 228.655 232.502 229.53 232.801L237.409 235.498C238.286 235.797 238.962 236.13 238.922 236.242L238.391 237.796" fill="#AAAAAA"/>
<path d="M236.852 242.295C236.816 242.406 236.075 242.255 235.2 241.954L227.319 239.258C226.445 238.959 225.766 238.626 225.806 238.514L226.336 236.959C226.375 236.848 227.117 236.998 227.992 237.296L235.871 239.994C236.747 240.295 237.422 240.625 237.385 240.737L236.852 242.295" fill="#AAAAAA"/>
<path d="M243.974 221.488C243.935 221.602 241.846 220.986 239.302 220.115L216.418 212.283C213.879 211.413 211.848 210.617 211.886 210.506L212.415 208.949C212.457 208.837 214.548 209.453 217.089 210.323L239.965 218.15C242.507 219.019 244.538 219.816 244.5 219.926L243.968 221.481" fill="#AAAAAA"/>
<path d="M242.665 225.492C242.627 225.604 240.536 224.989 237.992 224.119L215.108 216.286C212.567 215.418 210.539 214.621 210.577 214.508L211.109 212.953C211.148 212.841 213.238 213.454 215.78 214.324L238.664 222.157C241.205 223.025 243.233 223.821 243.196 223.933L242.664 225.491" fill="#AAAAAA"/>
<path d="M241.235 229.66C241.197 229.771 239.107 229.157 236.561 228.286L213.678 220.453C211.139 219.585 209.107 218.787 209.145 218.679L209.677 217.122C209.717 217.01 211.807 217.623 214.348 218.494L237.232 226.327C239.775 227.2 241.804 227.993 241.766 228.106L241.234 229.661" fill="#AAAAAA"/>
<path d="M248.33 202.399C248.586 202.486 248.822 202.623 249.025 202.802C249.228 202.98 249.393 203.197 249.512 203.44C249.631 203.683 249.701 203.947 249.718 204.217C249.734 204.486 249.698 204.757 249.61 205.012L246.297 214.698C246.12 215.215 245.745 215.64 245.255 215.881C244.764 216.122 244.198 216.158 243.681 215.981L228.737 210.867C228.221 210.69 227.796 210.315 227.556 209.825C227.316 209.335 227.28 208.77 227.457 208.253L230.77 198.564C230.858 198.308 230.996 198.072 231.175 197.87C231.354 197.667 231.571 197.502 231.814 197.383C232.057 197.264 232.321 197.195 232.591 197.178C232.861 197.161 233.132 197.198 233.387 197.286L248.331 202.4" fill="#27A8E0"/>
<path d="M225.058 225.88C226.108 226.241 226.697 227.296 226.375 228.243L223.458 236.76C223.135 237.707 222.021 238.181 220.97 237.822L206.372 232.825C205.32 232.466 204.731 231.407 205.054 230.463L207.971 221.946C208.291 220.998 209.408 220.526 210.459 220.883L225.058 225.88Z" fill="#AEADAD"/>
</g>
<g clip-path="url(#clip2)">
<path d="M148.803 186.886C147.675 185.819 146.41 184.719 144.838 183.691C142.262 181.989 140.211 181.139 140.211 181.139L140.073 181.106C139.228 180.688 138.212 180.374 137.197 180.06C133.285 178.477 129.307 177.169 125.212 176.051L124.524 175.887C121.202 174.88 117.847 174.011 114.408 173.194L113.995 173.096C110.555 172.279 107.03 171.515 103.472 170.888C102.234 170.594 100.825 170.405 99.2267 170.098C97.1301 169.745 95.0335 169.393 92.8518 169.092C91.9411 168.949 90.9452 168.858 89.8642 168.819C89.2287 168.741 88.6784 168.61 88.0953 168.617C87.6627 168.296 86.2799 167.386 84.511 167.184C82.349 167.107 79.8138 167.377 79.8138 167.377L79.5584 167.534C77.9271 167.365 77.0164 167.221 77.0164 167.221L76.9312 167.274C75.4177 166.914 73.9042 166.555 72.4955 166.366C71.6373 166.307 70.7791 166.249 69.9535 166.053C68.1321 165.766 64.5615 165.499 61.1285 165.265C58.0034 164.959 55.1208 164.856 52.6837 164.713C45.8702 164.331 41.7364 164.294 41.7364 164.294C27.4981 171.305 23.0668 178.029 21.8629 180.65C21.647 181.253 21.9291 181.902 22.5319 182.117C23.2199 182.281 24.3207 182.542 25.6441 182.784C24.675 183.499 23.7583 184.298 22.7891 185.013C22.2456 185.465 22.3247 186.356 22.98 186.657L27.8947 188.915C25.492 191.687 21.2895 197.448 22.5133 206.678C22.5856 206.986 22.7954 207.326 23.123 207.477C24.3812 207.994 27.8477 209.616 33.3782 211.729C34.3302 215.371 35.5634 218.135 35.9177 219.091C35.9702 219.176 36.3176 219.55 36.4552 219.582C56.7022 226.135 69.7084 229.515 69.7084 229.515L71.3595 229.907L71.6742 230.417C71.6742 230.417 72.8146 231.124 73.9153 231.386C74.8785 231.614 76.49 231.561 77.0206 231.469C78.259 231.763 79.1697 231.907 79.6349 232.09C92.4183 235.489 105.672 236.602 118.652 239.176C119.149 239.221 120.525 239.548 120.879 238.978C121.147 238.46 120.623 237.609 120.413 237.268C119.626 235.991 118.76 233.823 118.077 231.19C122.873 232.111 130.892 232.925 137.573 230.805C141.981 229.381 145.334 227.198 147.476 225.526C149.257 223.841 153.322 219.574 155.041 212.642C155.453 211.213 156.231 207.328 155.488 202.5C156.008 195.719 152.533 190.461 148.803 186.886V186.886Z" fill="#A1887F"/>
<path d="M147.854 189.35L84.4611 171.678C84.4611 171.678 71.9806 182.305 68.7946 189.906C65.6085 197.508 70.3522 209.972 70.3522 209.972C70.3522 209.972 119.988 227.428 132.317 227.231C144.646 227.034 151.375 215.841 152.499 212.329C153.762 208.849 154.284 195.019 147.854 189.35V189.35Z" fill="#455A64"/>
<path d="M136.893 197.866C136.893 197.866 143.313 198.373 144.849 203.535C146.385 208.696 143.767 213.598 143.767 213.598L120.881 208.672C120.881 208.672 130.38 196.828 136.893 197.866V197.866Z" fill="#78909C"/>
<path d="M137.137 224.379C137.137 224.379 127.186 225.577 124.927 215.81C122.885 206.967 131.613 199.592 136.893 197.866L106.871 191.463C106.871 191.463 97.0738 208.541 101.702 214.147C106.331 219.752 128.289 228.891 137.137 224.379Z" fill="#B0BEC5"/>
<path d="M147.548 225.834C145.407 227.506 142.106 229.774 137.645 231.113C128.777 233.876 117.619 231.59 114.657 230.596L115.307 221.738C117.548 222.706 120.72 224.041 124.762 225.074C129.768 226.335 133.313 227.323 136.942 226.731C144.423 225.528 151.107 217.885 152.852 210.232C155.577 198.452 146.36 187.687 147.434 187.142C148.167 186.808 153.051 192.256 154.975 199.762C156.662 206.122 155.506 211.299 155.114 212.95C153.395 219.882 149.329 224.149 147.548 225.834V225.834Z" fill="#78909C"/>
<path d="M153.79 201.08C154.112 202.174 154.44 203.85 154.448 205.96C154.709 216.488 146.885 223.423 146.426 223.823C144.796 225.18 139.885 229.029 132.515 229.459C126.842 229.783 122.445 227.794 120.564 226.839C118.454 225.32 114.416 221.817 113.063 216.191C110.988 207.485 116.236 197.321 126.374 191.662C124.678 193.294 122.276 196.066 120.66 200.116C120.11 201.512 114.864 214.729 122.218 221.708C127.613 226.841 137 225.873 142.704 222.358C151.218 217.112 155.115 204.374 149.913 192.31L153.79 201.08V201.08Z" fill="#78909C"/>
<path d="M155.56 202.808C152.477 184.27 130.682 186.071 124.168 193.609C119.886 198.479 117.308 203.826 116.223 209.31C116.08 210.221 115.368 213.831 115.731 218.423C116.12 223.821 118.249 234.138 120.432 237.491C120.59 237.746 121.252 238.63 120.899 239.2C120.545 239.771 119.084 239.496 118.671 239.398C105.692 236.825 92.4381 235.712 79.6547 232.313C78.9668 232.149 77.5057 231.875 75.5269 231.332C73.4105 230.757 71.602 230.11 69.6757 229.652C69.6757 229.652 56.6696 226.273 36.4225 219.72C36.2325 219.602 35.9375 219.314 35.885 219.229C34.5271 216.072 25.1533 194.95 42.1073 182.624C60.4561 169.321 73.5129 169.732 73.5129 169.732L140.178 181.277C140.263 181.224 156.481 187.91 155.56 202.808Z" fill="#B0BEC5"/>
<path d="M30.3439 187.17C30.3439 187.17 20.8285 193.269 22.5658 206.763C22.638 207.071 22.8479 207.412 23.1755 207.562C27.7428 209.446 60.1343 224.842 108.287 227.121C108.287 227.121 104.989 210.712 110.873 200.626L30.3439 187.17Z" fill="#ECEFF1"/>
<path d="M49.2623 195.951C49.2623 195.951 47.0643 201.534 46.2474 204.974C46.2474 204.974 36.4584 202.431 32.1328 199.224C32.1328 199.224 33.5577 193.53 37.5917 190.927L49.2623 195.951Z" fill="#B0BEC5"/>
<path d="M84.4882 207.369L82.1673 215.612C82.1673 215.612 89.0668 217.469 97.4325 217.13L97.4866 208.639L84.4882 207.369V207.369Z" fill="#B0BEC5"/>
<path d="M56.3923 199.898C56.3923 199.898 53.8787 203.443 53.816 208.298C53.816 208.298 64.9758 213.637 75.3727 213.926C75.3727 213.926 76.3186 206.883 77.765 204.465L56.3923 199.898Z" fill="#B0BEC5"/>
<path d="M46.2383 166.453C38.4394 172.668 30.7781 178.916 23.0643 185.078C22.5208 185.531 22.5999 186.422 23.2552 186.723C30.7584 190.321 38.9625 193.723 47.7299 196.896C71.1029 205.281 92.731 209.69 111.246 211.907C111.716 209.62 112.448 206.233 114.221 202.439C115.909 198.697 119.037 191.954 126.398 187.888C130.76 185.436 134.802 184.942 136.551 184.921C141.589 184.519 146.857 186.206 148.855 186.971C146.686 184.784 143.867 182.88 140.126 181.191C136.987 179.719 132.296 178.969 129.976 178.636C121.42 177.33 113.137 174.564 104.568 173.619C90.4164 172.003 70.7481 169.439 46.2383 166.453V166.453Z" fill="#CFD8DC"/>
<path d="M22.0005 180.683C23.2044 178.062 27.6357 171.338 41.874 164.326C41.874 164.326 54.911 164.515 72.6331 166.398C75.3979 166.692 78.4646 167.856 81.5045 168.215C84.6821 168.606 89.7069 168.564 93.0745 169.073C108.589 171.376 123.344 174.735 137.387 180.178C137.387 180.178 126.145 180.996 117.406 191.785C111.861 198.608 109.514 207.571 109.514 207.571C109.514 207.571 85.7489 200.837 71.1432 195.624C50.6992 188.371 27.9308 183.254 22.6695 182.15C22.0667 181.934 21.7846 181.286 22.0005 180.683V180.683Z" fill="#ECEFF1"/>
<path d="M102.869 170.672C102.869 170.672 96.9616 172.903 92.968 177.478L69.3353 173.246C69.3353 173.246 71.5737 169.635 76.4136 167.005C76.466 167.091 94.1357 168.889 102.869 170.672Z" fill="#B0BEC5"/>
<path d="M66.8603 175.711L90.6504 180.198C90.6504 180.198 86.4203 183.627 83.647 191.326L60.6541 183.176C60.6541 183.176 63.0292 178.072 66.8603 175.711Z" fill="#B0BEC5"/>
<path d="M124.472 175.802C124.472 175.802 108.921 179.159 100.888 198.909C100.888 198.909 94.4009 197.15 92.638 196.005C92.638 196.005 94.0422 188.562 100.877 180.592C106.291 174.319 113.34 172.795 113.34 172.795L124.472 175.802Z" fill="#B0BEC5"/>
<path d="M69.318 165.974C69.318 165.974 59.8146 170.186 53.721 179.931L35.8802 176.712C35.8802 176.712 41.2411 168.827 51.9106 164.602C52.0482 164.635 65.1446 165.492 69.318 165.974V165.974Z" fill="#B0BEC5"/>
<path d="M111.246 211.907C111.246 211.907 113.156 194.991 126.241 187.633C136.124 182.131 144.242 184.059 146.188 184.739C147.38 185.531 151.136 188.385 153.733 193.362C156.54 198.68 155.337 202.828 155.58 203.031C155.58 203.031 155.642 198.176 152.337 192.813C150.239 189.407 146.051 186.232 145.055 186.141C140.862 185.436 133.603 185.093 127.048 189.133C116.576 195.585 115.028 203.939 112.759 210.74L111.246 211.907Z" fill="#546E7A"/>
<path d="M111.246 211.907L107.708 211.503L107.682 212.224C107.682 212.224 110.899 213.06 111.876 212.929C112.852 212.797 112.896 210.773 112.896 210.773L111.246 211.907V211.907Z" fill="#546E7A"/>
<path d="M108.868 212.433C108.868 212.433 107.804 218.139 108.543 226.963L108.202 227.173C108.202 227.173 106.546 219.149 107.545 212.191L108.868 212.433V212.433Z" fill="#546E7A"/>
<path d="M88.4556 168.63C88.4556 168.63 86.8956 167.242 84.6812 167.079C82.4668 166.917 79.9841 167.272 79.9841 167.272C79.9841 167.272 65.0407 178.477 61.38 192.361C58.9026 201.875 62.2188 215.453 71.504 230.522C71.504 230.522 72.6443 231.229 73.745 231.491C74.8458 231.752 77.1256 231.639 77.1256 231.639C77.1256 231.639 64.4176 211.397 67.9201 195.731C70.75 184.121 80.2895 174.249 88.4556 168.63Z" fill="#8D6E63"/>
<path d="M76.3844 173.249C76.3844 173.249 66.8639 181.817 63.9994 190.512C61.135 199.207 63.0924 208.102 64.1554 210.971C65.1332 213.892 66.9606 213.236 66.8806 210.819C66.8857 208.349 64.0047 199.67 66.6929 192.024C69.5315 184.049 72.9954 181.093 77.3622 176.17C81.7617 171.11 78.1654 171.564 76.3844 173.249V173.249Z" fill="#A1887F"/>
</g>
<defs>
<linearGradient id="paint0_linear" x1="187.021" y1="27.7956" x2="231.744" y2="100.696" gradientUnits="userSpaceOnUse">
<stop offset="0.007" stop-color="#B4B4B5"/>
<stop offset="0.365" stop-color="#B2B2B3"/>
<stop offset="0.569" stop-color="#AAA9AA"/>
<stop offset="0.734" stop-color="#9C9C9D"/>
<stop offset="0.877" stop-color="#898889"/>
<stop offset="1" stop-color="#717071"/>
</linearGradient>
<linearGradient id="paint1_linear" x1="177.785" y1="36.477" x2="232.84" y2="101.922" gradientUnits="userSpaceOnUse">
<stop offset="0.012" stop-color="#EEEEEF"/>
<stop offset="0.307" stop-color="#ECECED"/>
<stop offset="0.475" stop-color="#E4E3E4"/>
<stop offset="0.611" stop-color="#D6D6D7"/>
<stop offset="0.73" stop-color="#C2C2C3"/>
<stop offset="0.837" stop-color="#A9A8A9"/>
<stop offset="0.935" stop-color="#8A898A"/>
<stop offset="1" stop-color="#717071"/>
</linearGradient>
<linearGradient id="paint2_linear" x1="178.563" y1="29.0219" x2="231.21" y2="101.693" gradientUnits="userSpaceOnUse">
<stop offset="0.006" stop-color="#EEEEEF"/>
<stop offset="0.347" stop-color="#ECECED"/>
<stop offset="0.541" stop-color="#E3E3E4"/>
<stop offset="0.698" stop-color="#D6D6D7"/>
<stop offset="0.835" stop-color="#C2C2C3"/>
<stop offset="0.958" stop-color="#A8A8A9"/>
<stop offset="1" stop-color="#9E9E9F"/>
</linearGradient>
<clipPath id="clip0">
<rect x="117" y="53.0947" width="128" height="128" transform="rotate(-35.9216 117 53.0947)" fill="white"/>
</clipPath>
<clipPath id="clip1">
<rect x="225.453" y="174" width="64" height="64" transform="rotate(35.8171 225.453 174)" fill="white"/>
</clipPath>
<clipPath id="clip2">
<rect y="178.147" width="128" height="128" transform="rotate(-31.6405 0 178.147)" fill="white"/>
</clipPath>
</defs>
</svg>
