<svg width="36" height="36" viewBox="0 0 36 36" fill="none" xmlns="http://www.w3.org/2000/svg">
<path d="M26.2991 8.44778C26.0273 8.22383 25.6993 8.07707 25.35 8.02312C25.0006 7.96917 24.6431 8.01005 24.3154 8.14142L7.20797 14.9827C6.84222 15.1318 6.53088 15.3875 6.31527 15.716C6.09965 16.0444 5.98995 16.43 6.00072 16.8217C6.01149 17.2133 6.14222 17.5925 6.37557 17.9088C6.60891 18.2251 6.93384 18.4637 7.30725 18.5929L10.7677 19.7852L12.696 26.1036C12.7224 26.1879 12.7606 26.2681 12.8096 26.3419C12.8172 26.3532 12.8277 26.3608 12.8353 26.3731C12.8916 26.4506 12.9595 26.5192 13.0368 26.5764C13.0583 26.5931 13.0806 26.6089 13.1036 26.6237C13.194 26.6831 13.2941 26.7266 13.3995 26.7523L13.4119 26.7532L13.4177 26.756C13.4815 26.7687 13.5464 26.7751 13.6114 26.775L13.6286 26.7721C13.7264 26.7705 13.8233 26.7539 13.916 26.7229C13.9379 26.7154 13.956 26.704 13.9771 26.6946C14.0464 26.6664 14.112 26.6302 14.1727 26.5868C14.2211 26.5461 14.2695 26.5054 14.3178 26.4648L16.8972 23.6441L20.7442 26.5962C21.0828 26.8575 21.4997 26.9996 21.9289 27C22.3787 26.9995 22.8147 26.8458 23.1637 26.5646C23.5127 26.2835 23.7535 25.892 23.8457 25.4559L26.9606 10.3106C27.031 9.96984 27.0067 9.61655 26.8902 9.28845C26.7737 8.96036 26.5693 8.66978 26.2991 8.44778ZM13.9895 20.0859C13.8573 20.2166 13.7669 20.3831 13.7298 20.5644L13.4339 21.9866L12.6855 19.5347L16.5659 17.5329L13.9895 20.0859ZM21.9146 25.1013L17.3678 21.6121C17.1776 21.4667 16.939 21.3976 16.6996 21.4186C16.4602 21.4397 16.2377 21.5493 16.0762 21.7256L15.2495 22.6286L15.5416 21.2225L22.3031 14.525C22.4635 14.3651 22.561 14.1537 22.578 13.9289C22.5949 13.7041 22.5303 13.4807 22.3956 13.299C22.261 13.1173 22.0652 12.9891 21.8437 12.9378C21.6221 12.8864 21.3893 12.9151 21.1872 13.0187L11.4836 18.0227L7.92774 16.7339L25.0905 9.93423L21.9146 25.1013Z" fill="black"/>
<path d="M34.7558 17.88C34.7558 27.2027 27.1992 34.76 17.8779 34.76C8.55661 34.76 1 27.2027 1 17.88C1 8.55732 8.55661 1 17.8779 1C27.1992 1 34.7558 8.55732 34.7558 17.88Z" stroke="black" stroke-width="2"/>
</svg>
